<svg width="630" height="500" viewBox="0 0 630 500" fill="none" xmlns="http://www.w3.org/2000/svg">
<rect width="630" height="500" fill="#FF6973"/>
<path d="M143.22 136.066C140.58 136.066 138.66 134.466 138.66 130.786C138.66 118.146 150.58 91.1057 153.62 87.2657C155.06 85.6657 155.62 84.8657 155.62 84.3857C155.62 83.5857 154.9 83.2657 153.3 83.2657C147.54 83.2657 141.46 84.4657 137.54 89.7457C127.06 103.746 117.22 125.186 114.82 128.946C114.82 124.946 116.82 106.786 116.82 96.3857C116.82 87.1057 107.78 82.7057 102.74 82.7057C91.0604 82.7057 75.7004 91.1857 75.7004 101.106C75.7004 107.426 84.1004 112.226 88.4204 112.226C89.4604 112.226 90.1004 111.746 90.1004 110.626C90.1004 109.586 86.1004 107.346 86.1004 102.466C86.1004 94.7057 96.3404 87.5057 101.22 87.5057C104.18 87.5057 105.38 89.1857 105.38 91.1057C105.38 101.026 89.1404 135.026 80.1004 135.026C77.0604 135.026 74.5004 132.626 74.5004 129.186C74.5004 124.946 77.7804 121.426 79.5404 120.066C80.6604 119.106 81.1404 118.706 81.1404 117.746C81.1404 117.026 80.3404 116.546 79.1404 116.546C74.5004 116.546 65.1404 121.186 65.1404 127.586C65.1404 133.026 74.0204 141.426 83.7804 141.426C95.7004 141.426 103.22 117.106 107.54 102.946C107.54 109.746 105.3 127.586 105.3 132.386C105.3 137.186 108.66 141.426 111.14 141.426C112.42 141.426 117.06 138.466 118.58 135.106C120.9 130.146 131.54 107.586 138.02 99.3457C133.78 109.266 129.22 122.466 129.22 130.386C129.22 136.946 135.06 141.426 140.58 141.426C148.5 141.426 154.34 131.586 154.34 131.586C154.34 131.586 155.06 130.386 155.06 129.666C155.06 128.786 154.26 128.066 153.38 128.066C152.42 128.066 151.78 129.186 151.78 129.186C151.78 129.186 147.54 136.066 143.22 136.066ZM189.941 131.586C189.941 131.586 190.661 130.386 190.661 129.666C190.661 128.786 189.861 128.066 188.981 128.066C188.021 128.066 187.381 129.186 187.381 129.186C187.381 129.186 183.381 134.626 177.941 134.626C177.461 134.626 177.061 134.546 176.661 134.466C179.781 130.466 181.621 125.426 181.621 121.186C181.621 113.826 176.501 109.346 169.861 109.346C161.541 109.346 151.301 116.706 151.301 130.146C151.301 136.386 157.141 141.426 163.781 141.426C167.221 141.426 170.341 140.226 172.901 138.226C174.021 138.386 175.061 138.466 176.021 138.466C185.381 138.466 189.941 131.586 189.941 131.586ZM160.741 132.146C160.741 121.346 166.341 113.426 169.941 113.426C171.781 113.426 173.061 114.866 173.061 118.466C173.061 121.986 172.181 126.946 170.581 130.946C170.341 130.866 170.021 130.786 169.701 130.786C168.421 130.786 165.701 132.946 165.701 134.706C165.701 135.426 166.181 136.066 167.061 136.626C166.261 137.266 165.461 137.586 164.581 137.586C162.181 137.586 160.741 135.346 160.741 132.146ZM200.606 136.066C198.286 136.066 196.366 134.306 196.366 131.906C196.366 126.146 199.326 117.186 201.966 110.066H206.926C207.966 110.066 209.326 108.066 209.326 107.266C209.326 106.786 209.086 106.546 208.686 106.546H203.326C204.766 102.626 205.966 99.8257 205.966 99.1057C205.966 97.6657 202.126 94.3057 199.726 94.3057C198.766 94.3057 197.966 94.9457 197.566 95.8257C196.126 98.3857 194.526 102.226 192.926 106.546H191.326C190.206 106.546 188.926 108.546 188.926 109.346C188.926 109.826 189.166 110.066 189.566 110.066H191.726C188.926 118.386 186.606 127.506 186.606 131.906C186.606 137.506 192.926 141.426 197.966 141.426C205.886 141.426 211.726 131.586 211.726 131.586C211.726 131.586 212.446 130.386 212.446 129.666C212.446 128.786 211.646 128.066 210.766 128.066C209.806 128.066 209.166 129.186 209.166 129.186C209.166 129.186 204.926 136.066 200.606 136.066ZM239.683 136.066C238.083 136.066 237.123 134.866 237.123 133.026C237.123 126.786 242.243 119.826 242.243 114.866C242.243 112.146 239.523 109.346 237.123 109.346C233.683 109.346 230.803 111.106 230.483 111.346C231.043 110.706 241.203 98.6257 241.203 91.9857C241.203 89.1057 237.603 84.9457 234.003 84.9457C219.123 84.9457 208.003 123.746 208.003 137.106C208.003 140.146 212.643 141.426 215.843 141.426C216.963 141.426 217.283 140.786 217.283 139.826C217.283 125.266 223.683 115.746 229.283 115.746C230.403 115.746 231.043 116.466 231.043 118.066C231.043 121.026 226.883 126.866 226.883 132.626C226.883 137.826 230.963 141.426 237.043 141.426C241.763 141.426 246.163 135.826 246.163 135.826C246.163 135.826 247.043 134.786 247.043 134.066C247.043 133.186 246.163 132.306 245.283 132.306C244.563 132.306 244.003 132.946 243.603 133.426C243.603 133.426 241.283 136.066 239.683 136.066ZM237.283 91.9057C237.283 96.7857 227.603 110.626 222.083 115.186C227.283 100.946 232.803 90.3057 235.763 90.3057C236.723 90.3057 237.283 90.9457 237.283 91.9057ZM271.694 125.826C271.694 121.666 276.254 113.426 280.654 113.426C281.534 113.426 282.094 113.986 282.094 115.026C282.094 118.386 277.534 125.826 271.694 125.826ZM293.214 131.586C293.214 131.586 293.934 130.386 293.934 129.666C293.934 128.786 293.134 128.066 292.254 128.066C291.294 128.066 290.654 129.186 290.654 129.186C290.654 129.186 285.934 136.546 278.334 136.546C274.494 136.546 271.294 133.826 271.294 129.106C271.294 129.106 273.454 129.586 274.334 129.586C284.414 129.586 287.374 121.586 287.374 117.746C287.374 113.506 283.454 109.346 278.574 109.346C271.614 109.346 261.454 117.426 261.454 129.666C261.454 136.466 267.294 141.426 275.374 141.426C287.534 141.426 293.214 131.586 293.214 131.586ZM300.207 118.306C300.447 117.746 300.767 117.346 301.167 117.346C302.207 117.346 302.207 120.306 303.247 129.186C300.847 131.106 297.567 133.346 294.687 133.986C293.007 134.386 290.767 138.786 290.767 140.226C290.767 141.186 291.167 141.426 291.887 141.426C294.847 141.426 300.367 136.626 303.967 133.106C305.647 139.106 310.207 141.426 315.807 141.426C323.727 141.426 329.567 131.586 329.567 131.586C329.567 131.586 330.287 130.386 330.287 129.666C330.287 128.786 329.487 128.066 328.607 128.066C327.647 128.066 327.007 129.186 327.007 129.186C327.007 129.186 322.767 136.066 318.447 136.066C315.087 136.066 313.007 133.266 312.607 127.026C318.927 122.306 325.727 112.946 325.727 110.786C325.727 109.826 325.167 109.346 324.207 109.346C323.167 109.346 316.367 111.506 316.367 113.506C316.367 114.946 315.167 119.026 312.447 122.626C312.047 113.026 310.847 109.346 306.927 109.346C303.727 109.346 298.767 111.426 297.647 114.946C295.327 122.466 292.127 127.106 290.687 129.186C290.447 129.586 289.807 130.386 289.807 131.106C289.807 131.906 290.687 132.786 291.487 132.786C292.447 132.786 293.007 131.906 293.247 131.586C294.927 129.106 297.647 124.866 300.207 118.306ZM340.215 136.066C337.895 136.066 335.975 134.306 335.975 131.906C335.975 126.146 338.935 117.186 341.575 110.066H346.535C347.575 110.066 348.935 108.066 348.935 107.266C348.935 106.786 348.695 106.546 348.295 106.546H342.935C344.375 102.626 345.575 99.8257 345.575 99.1057C345.575 97.6657 341.735 94.3057 339.335 94.3057C338.375 94.3057 337.575 94.9457 337.175 95.8257C335.735 98.3857 334.135 102.226 332.535 106.546H330.935C329.815 106.546 328.535 108.546 328.535 109.346C328.535 109.826 328.775 110.066 329.175 110.066H331.335C328.535 118.386 326.215 127.506 326.215 131.906C326.215 137.506 332.535 141.426 337.575 141.426C345.495 141.426 351.335 131.586 351.335 131.586C351.335 131.586 352.055 130.386 352.055 129.666C352.055 128.786 351.255 128.066 350.375 128.066C349.415 128.066 348.775 129.186 348.775 129.186C348.775 129.186 344.535 136.066 340.215 136.066ZM369.052 133.266C369.052 126.786 374.972 119.986 374.972 116.386C374.972 114.306 373.612 112.546 371.692 112.546C369.772 112.546 368.652 113.586 365.052 113.586C363.132 113.586 361.692 113.026 361.692 111.906C361.692 110.626 362.732 109.346 362.732 107.266C362.732 105.666 360.012 103.106 357.772 103.106C355.852 103.106 353.132 105.746 353.132 109.026C353.132 113.026 355.772 114.946 355.772 114.946C353.452 122.466 350.252 127.106 348.812 129.186C348.572 129.586 347.932 130.386 347.932 131.106C347.932 131.906 348.812 132.786 349.612 132.786C350.572 132.786 351.132 131.906 351.372 131.586C353.052 129.106 356.092 124.226 359.132 116.466C359.132 116.466 363.932 116.786 363.932 118.386C363.932 120.866 358.892 126.386 358.892 133.426C358.892 137.826 362.972 141.426 369.052 141.426C376.972 141.426 382.812 131.586 382.812 131.586C382.812 131.586 383.532 130.386 383.532 129.666C383.532 128.786 382.732 128.066 381.852 128.066C380.892 128.066 380.252 129.186 380.252 129.186C380.252 129.186 376.012 136.066 371.692 136.066C370.092 136.066 369.052 135.106 369.052 133.266ZM420.779 131.586C420.779 131.586 421.499 130.386 421.499 129.666C421.499 128.786 420.699 128.066 419.819 128.066C418.859 128.066 418.219 129.186 418.219 129.186C418.219 129.186 413.979 136.066 409.659 136.066C408.299 136.066 407.419 135.106 407.419 133.826C407.419 128.386 412.059 119.266 412.059 116.866C412.059 114.066 408.779 113.106 406.379 113.106C406.379 113.106 404.139 109.346 397.659 109.346C388.859 109.346 379.259 121.586 379.259 133.106C379.259 137.986 382.939 141.426 387.259 141.426C393.339 141.426 398.619 134.626 398.619 134.626C399.179 139.106 402.619 141.426 407.019 141.426C414.939 141.426 420.779 131.586 420.779 131.586ZM402.219 117.426C402.219 123.586 395.179 135.346 391.339 135.346C389.659 135.346 389.019 134.066 389.019 131.746C389.019 125.026 394.699 113.986 399.339 113.986C400.939 113.986 402.219 115.106 402.219 117.426ZM450.347 131.586C450.347 131.586 451.227 130.386 451.227 129.666C451.227 128.786 450.507 128.066 449.547 128.066C448.587 128.066 447.787 129.186 447.787 129.186C447.787 129.186 442.907 136.466 435.627 136.466C431.227 136.466 427.707 133.826 427.707 128.306C427.707 121.026 432.267 113.266 436.907 113.266C438.187 113.266 439.227 114.066 439.227 114.946C439.227 116.626 436.027 117.106 436.027 119.826C436.027 121.586 437.947 123.186 440.107 123.186C442.187 123.186 444.907 119.826 444.907 117.106C444.907 113.426 441.467 109.346 435.787 109.346C427.627 109.346 417.867 118.546 417.867 129.266C417.867 138.226 425.467 141.426 432.347 141.426C443.707 141.426 450.347 131.586 450.347 131.586ZM460.997 136.066C458.677 136.066 456.757 134.306 456.757 131.906C456.757 126.146 459.717 117.186 462.357 110.066H467.317C468.357 110.066 469.717 108.066 469.717 107.266C469.717 106.786 469.477 106.546 469.077 106.546H463.717C465.157 102.626 466.357 99.8257 466.357 99.1057C466.357 97.6657 462.517 94.3057 460.117 94.3057C459.157 94.3057 458.357 94.9457 457.957 95.8257C456.517 98.3857 454.917 102.226 453.317 106.546H451.717C450.597 106.546 449.317 108.546 449.317 109.346C449.317 109.826 449.557 110.066 449.957 110.066H452.117C449.317 118.386 446.997 127.506 446.997 131.906C446.997 137.506 453.317 141.426 458.357 141.426C466.277 141.426 472.117 131.586 472.117 131.586C472.117 131.586 472.837 130.386 472.837 129.666C472.837 128.786 472.037 128.066 471.157 128.066C470.197 128.066 469.557 129.186 469.557 129.186C469.557 129.186 465.317 136.066 460.997 136.066ZM490.234 94.5457C490.234 91.9057 488.474 90.1457 486.154 90.1457C482.634 90.1457 479.434 94.1457 479.434 98.2257C479.434 101.106 481.434 102.786 483.754 102.786C487.194 102.786 490.234 98.7857 490.234 94.5457ZM478.714 133.026C478.714 125.266 483.194 118.706 483.194 113.906C483.194 112.706 479.274 109.346 476.874 109.346C475.914 109.346 475.114 109.986 474.714 110.866C472.794 115.346 468.474 126.866 468.474 132.626C468.474 137.826 472.554 141.426 478.634 141.426C486.554 141.426 492.394 131.586 492.394 131.586C492.394 131.586 493.114 130.386 493.114 129.666C493.114 128.786 492.314 128.066 491.434 128.066C490.474 128.066 489.834 129.186 489.834 129.186C489.834 129.186 485.594 136.066 481.274 136.066C479.674 136.066 478.714 134.866 478.714 133.026ZM527.988 131.586C527.988 131.586 528.708 130.386 528.708 129.666C528.708 128.786 527.908 128.066 527.028 128.066C526.068 128.066 525.428 129.186 525.428 129.186C525.428 129.186 521.428 134.626 515.988 134.626C515.508 134.626 515.108 134.546 514.708 134.466C517.828 130.466 519.668 125.426 519.668 121.186C519.668 113.826 514.548 109.346 507.908 109.346C499.588 109.346 489.348 116.706 489.348 130.146C489.348 136.386 495.188 141.426 501.828 141.426C505.268 141.426 508.388 140.226 510.948 138.226C512.068 138.386 513.108 138.466 514.068 138.466C523.428 138.466 527.988 131.586 527.988 131.586ZM498.788 132.146C498.788 121.346 504.388 113.426 507.988 113.426C509.828 113.426 511.108 114.866 511.108 118.466C511.108 121.986 510.228 126.946 508.628 130.946C508.388 130.866 508.068 130.786 507.748 130.786C506.468 130.786 503.748 132.946 503.748 134.706C503.748 135.426 504.228 136.066 505.108 136.626C504.308 137.266 503.508 137.586 502.628 137.586C500.228 137.586 498.788 135.346 498.788 132.146ZM553.453 133.026C553.453 127.266 557.693 121.026 557.693 116.226C557.693 113.106 554.413 109.346 550.893 109.346C544.093 109.346 538.333 114.466 538.333 114.466C535.853 110.626 533.933 110.146 532.733 110.146C531.773 110.146 530.973 110.706 530.573 111.666C528.733 116.226 524.093 128.146 524.093 137.026C524.093 139.586 527.373 141.426 531.613 141.426C532.733 141.426 533.373 141.186 533.373 139.826C533.373 124.466 540.893 114.946 545.693 114.946C546.573 114.946 547.293 115.506 547.293 116.226C547.293 121.026 543.213 126.786 543.213 133.346C543.213 137.826 547.293 141.426 553.373 141.426C561.293 141.426 567.133 131.586 567.133 131.586C567.133 131.586 567.853 130.386 567.853 129.666C567.853 128.786 567.053 128.066 566.173 128.066C565.213 128.066 564.573 129.186 564.573 129.186C564.573 129.186 560.333 136.066 556.013 136.066C554.413 136.066 553.453 134.866 553.453 133.026Z" fill="#FFEECC"/>
<path d="M291.741 394.307C292.593 393.666 297.267 318.149 299.497 280.471L296.8 265.283L294.645 254.891L163.14 337.535L159.97 351.136L167.757 378.042L209.412 411.807L237.143 416.28L268.04 405.02C275.585 401.716 290.889 394.949 291.741 394.307Z" fill="#15788C"/>
<path d="M339.194 397.112C338.34 396.474 333.347 320.978 330.957 283.309L333.591 268.11L335.701 257.71L467.554 339.798L470.781 353.385L463.108 380.324L421.596 414.264L393.884 418.854L362.94 407.724C355.381 404.452 340.048 397.75 339.194 397.112Z" fill="#15788C"/>
<path d="M304.461 232.48L293.283 241.033L293.864 263.423L301.912 287.929L315.779 290.566L330.692 284.137L337.045 262.799L334.333 240.947L329.522 234.559L325.767 223.905L321.491 218.583L307.63 218.612L306.571 221.813L304.461 232.48Z" fill="#00B9BE"/>
<path d="M294.91 254.091L298.102 250.752L298.237 251.818L294.91 254.091Z" fill="#15788C"/>
<path d="M299.576 254.348L304.897 249.538L305.035 252.07L305.039 254.07L302.107 254.076L299.853 259.278L299.576 254.348Z" fill="#15788C"/>
<path d="M309.313 257.926L312.371 254.854L314.506 255.649L312.511 257.786L313.848 259.782L317.713 259.774L317.715 260.84L311.719 261.386L313.32 262.449L313.457 264.181L316.127 266.175L317.857 264.971L317.719 262.706L319.984 262.435L323.575 258.695L323.047 261.362L320.92 263.632L320.922 264.698L324.253 264.158L323.723 265.759L325.593 267.754L325.864 269.886L323.332 269.891L323.595 268.158L322.392 266.561L320.259 266.299L316.933 268.972L313.734 268.845L311.197 266.585L308.931 266.723L308.004 269.39L306.807 270.859L308.546 273.521L312.411 273.513L309.614 274.718L311.352 277.114L307.215 274.59L305.342 271.129L306.935 268.193L306.663 265.661L304.934 267.131L303.334 267.135C303.65 269.444 304.095 273.77 303.346 272.599C302.597 271.428 301.162 269.36 300.538 268.473L301.598 265.272L303.725 262.869L305.592 263.131L305.72 260.599L307.593 264.327L309.324 263.39L309.313 257.926Z" fill="#15788C"/>
<path d="M325.022 249.763L322.759 250.834L326.495 252.958L328.505 257.885L331.841 260.011L333.312 262.273L332.117 264.408L332.122 267.074L332.795 269.871L335.059 269.067L335.053 266.268L333.454 266.271L333.45 264.672L334.648 263.736L334.909 261.337L332.905 259.075L330.637 258.014L330.235 256.949L331.166 255.88L333.831 255.475L334.76 254.007L333.822 251.477L331.828 254.013L329.831 254.684L326.09 250.56L327.151 248.025L327.543 244.293L325.41 244.297L325.681 246.296L325.022 249.763Z" fill="#15788C"/>
<path d="M326.778 260.954L326.776 259.888L328.647 262.416L329.984 264.013L329.058 267.347L327.323 266.551L327.452 264.418L326.251 263.754L326.778 260.954Z" fill="#15788C"/>
<path d="M317.882 276.567L314.947 275.373L313.35 276.709L314.953 278.305L317.887 279.099L319.349 277.363L321.881 276.958L322.81 275.357L326.145 276.549L326.543 275.482L324.276 275.22L323.873 273.489L320.806 272.695L320.678 275.228L317.882 276.567Z" fill="#15788C"/>
<path d="M309.302 252.994L307.701 252.198L307.704 253.797L309.838 254.326L310.767 252.458L309.302 252.994Z" fill="#15788C"/>
<path d="M315.817 245.517L315.287 247.117L317.814 244.713L315.817 245.517Z" fill="#15788C"/>
<path d="M318.877 243.112L317.809 242.314L322.738 241.104L322.61 243.637L323.813 245.1L322.75 246.569L322.347 245.237L321.55 246.438L320.218 246.707L321.146 244.573L321.674 242.306L319.675 242.31L318.877 243.112Z" fill="#15788C"/>
<path d="M307.952 245L307.816 243.535L310.752 245.128L309.555 246.33L307.952 245Z" fill="#15788C"/>
<path d="M307.536 237.271L304.468 235.678L306.998 234.74L310.458 232.334L311.26 233.265L311.396 234.864L308.465 235.403L307.536 237.271Z" fill="#15788C"/>
<path d="M319.125 234.181L318.322 232.584L319.52 231.915L324.187 232.971L328.056 234.962L325.659 235.634L324.595 236.969L321.657 234.176L319.125 234.181Z" fill="#15788C"/>
<path d="M294.91 254.091L298.102 250.752L298.237 251.818L294.91 254.091Z" stroke="#15788C" stroke-width="2" stroke-linejoin="round"/>
<path d="M299.576 254.348L304.897 249.538L305.035 252.07L305.039 254.07L302.107 254.076L299.853 259.278L299.576 254.348Z" stroke="#15788C" stroke-width="2" stroke-linejoin="round"/>
<path d="M309.313 257.926L312.371 254.854L314.506 255.649L312.511 257.786L313.848 259.782L317.713 259.774L317.715 260.84L311.719 261.386L313.32 262.449L313.457 264.181L316.127 266.175L317.857 264.971L317.719 262.706L319.984 262.435L323.575 258.695L323.047 261.362L320.92 263.632L320.922 264.698L324.253 264.158L323.723 265.759L325.593 267.754L325.864 269.886L323.332 269.891L323.595 268.158L322.392 266.561L320.259 266.299L316.933 268.972L313.734 268.845L311.197 266.585L308.931 266.723L308.004 269.39L306.807 270.859L308.546 273.521L312.411 273.513L309.614 274.718L311.352 277.114L307.215 274.59L305.342 271.129L306.935 268.193L306.663 265.661L304.934 267.131L303.334 267.135C303.65 269.444 304.095 273.77 303.346 272.599C302.597 271.428 301.162 269.36 300.538 268.473L301.598 265.272L303.725 262.869L305.592 263.131L305.72 260.599L307.593 264.327L309.324 263.39L309.313 257.926Z" stroke="#15788C" stroke-width="2" stroke-linejoin="round"/>
<path d="M325.022 249.763L322.759 250.834L326.495 252.958L328.505 257.885L331.841 260.011L333.312 262.273L332.117 264.408L332.122 267.074L332.795 269.871L335.059 269.067L335.053 266.268L333.454 266.271L333.45 264.672L334.648 263.736L334.909 261.337L332.905 259.075L330.637 258.014L330.235 256.949L331.166 255.88L333.831 255.475L334.76 254.007L333.822 251.477L331.828 254.013L329.831 254.684L326.09 250.56L327.151 248.025L327.543 244.293L325.41 244.297L325.681 246.296L325.022 249.763Z" stroke="#15788C" stroke-width="2" stroke-linejoin="round"/>
<path d="M326.778 260.954L326.776 259.888L328.647 262.416L329.984 264.013L329.058 267.347L327.323 266.551L327.452 264.418L326.251 263.754L326.778 260.954Z" stroke="#15788C" stroke-width="2" stroke-linejoin="round"/>
<path d="M317.882 276.567L314.947 275.373L313.35 276.709L314.953 278.305L317.887 279.099L319.349 277.363L321.881 276.958L322.81 275.357L326.145 276.549L326.543 275.482L324.276 275.22L323.873 273.489L320.806 272.695L320.678 275.228L317.882 276.567Z" stroke="#15788C" stroke-width="2" stroke-linejoin="round"/>
<path d="M309.302 252.994L307.701 252.198L307.704 253.797L309.838 254.326L310.767 252.458L309.302 252.994Z" stroke="#15788C" stroke-width="2" stroke-linejoin="round"/>
<path d="M315.817 245.517L315.287 247.117L317.814 244.713L315.817 245.517Z" stroke="#15788C" stroke-width="2" stroke-linejoin="round"/>
<path d="M318.877 243.112L317.809 242.314L322.738 241.104L322.61 243.637L323.813 245.1L322.75 246.569L322.347 245.237L321.55 246.438L320.218 246.707L321.146 244.573L321.674 242.306L319.675 242.31L318.877 243.112Z" stroke="#15788C" stroke-width="2" stroke-linejoin="round"/>
<path d="M307.952 245L307.816 243.535L310.752 245.128L309.555 246.33L307.952 245Z" stroke="#15788C" stroke-width="2" stroke-linejoin="round"/>
<path d="M307.536 237.271L304.468 235.678L306.998 234.74L310.458 232.334L311.26 233.265L311.396 234.864L308.465 235.403L307.536 237.271Z" stroke="#15788C" stroke-width="2" stroke-linejoin="round"/>
<path d="M319.125 234.181L318.322 232.584L319.52 231.915L324.187 232.971L328.056 234.962L325.659 235.634L324.595 236.969L321.657 234.176L319.125 234.181Z" stroke="#15788C" stroke-width="2" stroke-linejoin="round"/>
<path d="M303.874 222.618L306.669 220.913L308.805 222.741L308.909 224.673L308.378 225.474L305.852 228.678L304.526 231.747C304.281 231.647 303.772 231.422 303.692 231.315C303.612 231.209 302.81 229.318 302.42 228.386L302.28 225.487L303.874 222.618Z" fill="#46425E"/>
<path d="M323.573 225.975L323.532 222.344L325.93 222.005L327.832 223.434C328.478 224.332 329.77 226.182 329.771 226.395C329.771 226.609 329.487 228.928 329.345 230.061L327.718 232.297L324.744 228.572L323.573 225.975Z" fill="#46425E"/>
<path d="M311.965 378.004L314.35 371.602L326.335 366.512L330.076 371.036L329.563 380.633L327.987 391.832L323.2 396.906L318.93 394.25L311.965 378.004Z" fill="#00B9BE"/>
<path d="M309.267 362.55L308.431 345.492L325.213 340.125L329.219 343.849L329.8 366.505L321.552 373.719L312.753 372.405L309.267 362.55Z" fill="#00B9BE"/>
<path d="M303.872 332.44C303.951 327.997 304.11 318.845 304.108 317.779L324.087 311.873L328.902 319.859L330.014 341.714L320.701 349.464L306.033 345.763L303.872 332.44Z" fill="#00B9BE"/>
<path d="M323.613 339.862L322.014 339.865L323.676 338.129L325.608 337.792L323.613 339.862Z" fill="#15788C"/>
<path d="M320.143 337.603L318.743 337.54L321.272 336.002L320.143 337.603Z" fill="#15788C"/>
<path d="M324.593 330.664L323.788 328L324.321 327.932L325.256 328.863L324.593 330.664Z" fill="#15788C"/>
<path d="M314.339 334.55L314.336 333.084L316.004 334.347L314.339 334.55Z" fill="#15788C"/>
<path d="M306.34 333.568L306.003 331.902L307.605 332.965L309.401 331.629L308.673 333.963L306.34 333.568Z" fill="#15788C"/>
<path d="M314.454 325.82L313.049 323.158L315.516 323.952L314.454 325.82Z" fill="#15788C"/>
<path d="M323.613 339.862L322.014 339.865L323.676 338.129L325.608 337.792L323.613 339.862Z" stroke="#15788C" stroke-width="2" stroke-linejoin="round"/>
<path d="M320.143 337.603L318.743 337.54L321.272 336.002L320.143 337.603Z" stroke="#15788C" stroke-width="2" stroke-linejoin="round"/>
<path d="M324.593 330.664L323.788 328L324.321 327.932L325.256 328.863L324.593 330.664Z" stroke="#15788C" stroke-width="2" stroke-linejoin="round"/>
<path d="M314.339 334.55L314.336 333.084L316.004 334.347L314.339 334.55Z" stroke="#15788C" stroke-width="2" stroke-linejoin="round"/>
<path d="M306.34 333.568L306.003 331.902L307.605 332.965L309.401 331.629L308.673 333.963L306.34 333.568Z" stroke="#15788C" stroke-width="2" stroke-linejoin="round"/>
<path d="M314.454 325.82L313.049 323.158L315.516 323.952L314.454 325.82Z" stroke="#15788C" stroke-width="2" stroke-linejoin="round"/>
<path d="M299.809 301.794L302.971 284.195L320.819 278.826L328.832 286.539L329.653 296.933L327.3 318.53L316.113 322.552L304.378 319.644L299.809 301.794Z" fill="#00B9BE"/>
<path d="M313.354 309.896L313.291 311.696L314.954 310.226L316.884 309.156L318.616 308.619L320.355 311.747L323.088 312.008L325.078 307.872L325.073 305.273L322.207 305.146L318.146 306.887L316.347 307.024L313.012 305.965L315.149 307.76L313.354 309.896Z" fill="#15788C"/>
<path d="M309.56 312.303L310.09 310.769L311.823 310.766L310.96 312.367L309.56 312.303Z" fill="#15788C"/>
<path d="M305.096 312.379L303.892 310.116L305.827 311.445L305.096 312.379Z" fill="#15788C"/>
<path d="M305.608 302.649L302.802 299.189L305.138 300.85L306.869 299.914L305.608 302.649Z" fill="#15788C"/>
<path d="M314.863 298.631L310.011 304.572L313.404 301.966L313.81 305.097L315.136 301.762L314.863 298.631Z" fill="#15788C"/>
<path d="M320.94 304.616L317.934 301.556L322.266 301.414L323.266 301.878L322.336 303.28L320.94 304.616Z" fill="#15788C"/>
<path d="M315.983 292.831L313.915 291.369L316.98 291.496L315.983 292.831Z" fill="#15788C"/>
<path d="M323.439 288.95L324.902 287.348L326.902 288.143L325.44 290.012L323.439 288.95Z" fill="#15788C"/>
<path d="M310.927 296.64L305.315 289.921L305.919 291.719L304.392 294.655L306.388 293.318L310.927 296.64Z" fill="#15788C"/>
<path d="M313.354 309.896L313.291 311.696L314.954 310.226L316.884 309.156L318.616 308.619L320.355 311.747L323.088 312.008L325.078 307.872L325.073 305.273L322.207 305.146L318.146 306.887L316.347 307.024L313.012 305.965L315.149 307.76L313.354 309.896Z" stroke="#15788C" stroke-width="2" stroke-linejoin="round"/>
<path d="M309.56 312.303L310.09 310.769L311.823 310.766L310.96 312.367L309.56 312.303Z" stroke="#15788C" stroke-width="2" stroke-linejoin="round"/>
<path d="M305.096 312.379L303.892 310.116L305.827 311.445L305.096 312.379Z" stroke="#15788C" stroke-width="2" stroke-linejoin="round"/>
<path d="M305.608 302.649L302.802 299.189L305.138 300.85L306.869 299.914L305.608 302.649Z" stroke="#15788C" stroke-width="2" stroke-linejoin="round"/>
<path d="M314.863 298.631L310.011 304.572L313.404 301.966L313.81 305.097L315.136 301.762L314.863 298.631Z" stroke="#15788C" stroke-width="2" stroke-linejoin="round"/>
<path d="M320.94 304.616L317.934 301.556L322.266 301.414L323.266 301.878L322.336 303.28L320.94 304.616Z" stroke="#15788C" stroke-width="2" stroke-linejoin="round"/>
<path d="M315.983 292.831L313.915 291.369L316.98 291.496L315.983 292.831Z" stroke="#15788C" stroke-width="2" stroke-linejoin="round"/>
<path d="M323.439 288.95L324.902 287.348L326.902 288.143L325.44 290.012L323.439 288.95Z" stroke="#15788C" stroke-width="2" stroke-linejoin="round"/>
<path d="M310.927 296.64L305.315 289.921L305.919 291.719L304.392 294.655L306.388 293.318L310.927 296.64Z" stroke="#15788C" stroke-width="2" stroke-linejoin="round"/>
<path d="M282.87 232.525L298.617 242.088L293.855 259.424L212.71 332.899C201.439 338.876 178.575 350.777 177.295 350.566C176.016 350.356 147.603 343.077 133.557 339.463C119.141 329.453 90.1505 309.221 89.509 308.369C88.8674 307.517 74.4491 287.609 67.3201 277.762L59.2908 262.318L68.3206 246.572L97.0845 235.05L218.354 228.396L282.87 232.525Z" fill="#00B9BE"/>
<path d="M346.579 233.722L330.873 243.351L335.708 260.667L417.162 333.799C428.459 339.728 451.372 351.533 452.651 351.317C453.93 351.101 482.312 343.702 496.343 340.029C510.716 329.959 539.621 309.604 540.259 308.749C540.897 307.895 555.231 287.926 562.318 278.049L570.282 262.571L561.186 246.864L532.374 235.463L411.077 229.321L346.579 233.722Z" fill="#00B9BE"/>
<path d="M320.961 219.917L330.269 209.768L349.974 200.13L376.858 181.948" stroke="#00B9BE" stroke-width="3"/>
<path d="M309.766 219.94L300.415 209.831L280.669 200.277L253.709 182.208" stroke="#00B9BE" stroke-width="3"/>
</svg>
