<svg width="34" height="48" viewBox="0 0 34 48" fill="none" xmlns="http://www.w3.org/2000/svg">
<path d="M0.929301 26.3613C1.0274 20.8777 1.22293 9.58154 1.22016 8.26554L25.8801 0.975445L31.8229 10.833L33.1958 37.8084L21.7009 47.3738L3.59605 42.8059L0.929301 26.3613Z" fill="#00B9BE"/>
<path d="M25.2948 35.5221L23.3208 35.5262L25.3726 33.3834L27.757 32.9671L25.2948 35.5221Z" fill="#15788C"/>
<path d="M21.0119 32.7346L19.2845 32.656L22.406 30.7576L21.0119 32.7346Z" fill="#15788C"/>
<path d="M26.5047 24.1689L25.5107 20.881L26.1686 20.7973L27.3225 21.9464L26.5047 24.1689Z" fill="#15788C"/>
<path d="M13.8482 28.9661L13.8443 27.1566L15.904 28.715L13.8482 28.9661Z" fill="#15788C"/>
<path d="M3.97556 27.7532L3.55996 25.6978L5.53672 27.0096L7.75401 25.3599L6.85533 28.2406L3.97556 27.7532Z" fill="#15788C"/>
<path d="M13.99 18.191L12.2558 14.9046L15.3011 15.8851L13.99 18.191Z" fill="#15788C"/>
<path d="M25.2948 35.5221L23.3208 35.5262L25.3726 33.3834L27.757 32.9671L25.2948 35.5221Z" stroke="#15788C" stroke-width="2" stroke-linejoin="round"/>
<path d="M21.0119 32.7346L19.2845 32.656L22.406 30.7576L21.0119 32.7346Z" stroke="#15788C" stroke-width="2" stroke-linejoin="round"/>
<path d="M26.5047 24.1689L25.5107 20.881L26.1686 20.7973L27.3225 21.9464L26.5047 24.1689Z" stroke="#15788C" stroke-width="2" stroke-linejoin="round"/>
<path d="M13.8482 28.9661L13.8443 27.1566L15.904 28.715L13.8482 28.9661Z" stroke="#15788C" stroke-width="2" stroke-linejoin="round"/>
<path d="M3.97556 27.7532L3.55996 25.6978L5.53672 27.0096L7.75401 25.3599L6.85533 28.2406L3.97556 27.7532Z" stroke="#15788C" stroke-width="2" stroke-linejoin="round"/>
<path d="M13.99 18.191L12.2558 14.9046L15.3011 15.8851L13.99 18.191Z" stroke="#15788C" stroke-width="2" stroke-linejoin="round"/>
</svg>
