<svg width="55" height="90" viewBox="0 0 55 90" fill="none" xmlns="http://www.w3.org/2000/svg">
<path d="M14.6561 17.9834L0.860125 28.5406L1.57651 56.1754L11.5104 86.4228L28.6255 89.6767L47.033 81.7418L54.8735 55.405L51.5266 28.4337L45.5879 20.5501L40.9541 7.39977L35.6761 0.830842L18.568 0.866945L17.2603 4.81775L14.6561 17.9834Z" fill="#00B9BE"/>
<path d="M2.86828 44.6575L6.80759 40.5367L6.97489 41.8523L2.86828 44.6575Z" fill="#15788C"/>
<path d="M8.62649 44.9744L15.194 39.0384L15.3651 42.1636L15.3703 44.6311L11.7513 44.6388L8.96834 51.0602L8.62649 44.9744Z" fill="#15788C"/>
<path d="M20.6444 49.3906L24.42 45.599L27.0541 46.5805L24.5921 49.2177L26.2423 51.6818L31.0129 51.6717L31.0157 52.9877L23.6145 53.6613L25.5913 54.9732L25.7603 57.1114L29.0555 59.5719L31.1909 58.0869L31.0205 55.2907L33.8163 54.9558L38.2482 50.3404L37.5971 53.6318L34.971 56.4339L34.9737 57.7499L39.0849 57.0832L38.431 59.0586L40.7393 61.5213L41.0738 64.1526L37.9483 64.1592L38.2728 62.02L36.7881 60.0491L34.1554 59.7257L30.0498 63.0244L26.1014 62.8682L22.97 60.0783L20.1738 60.2487L19.0293 63.5411L17.5526 65.3538L19.698 68.6393L24.4686 68.6292L21.0172 70.117L23.1619 73.0735L18.0558 69.9588L15.7438 65.6866L17.7101 62.0634L17.3746 58.9386L15.2399 60.7526L13.2658 60.7568C13.6557 63.6073 14.2043 68.947 13.2801 67.5013C12.3558 66.0556 10.5848 63.5041 9.81479 62.4091L11.1225 58.4582L13.7482 55.4917L16.0519 55.8158L16.2099 52.6899L18.5226 57.2911L20.6587 56.1351L20.6444 49.3906Z" fill="#15788C"/>
<path d="M40.0344 39.315L37.2407 40.6369L41.8523 43.2592L44.3326 49.3406L48.4507 51.9639L50.2661 54.7566L48.7912 57.3918L48.7981 60.6818L49.6279 64.1346L52.4223 63.1417L52.415 59.6871L50.441 59.6913L50.4369 57.7173L51.9149 56.5627L52.2377 53.601L49.7643 50.8096L46.965 49.4995L46.4687 48.1846L47.6174 46.8661L50.9064 46.3657L52.0541 44.5537L50.896 41.4306L48.4351 44.5614L45.9693 45.3891L41.3525 40.2993L42.6619 37.171L43.1457 32.5639L40.5137 32.5694L40.8479 35.0363L40.0344 39.315Z" fill="#15788C"/>
<path d="M42.2021 53.1286L42.1993 51.8126L44.5089 54.9333L46.1581 56.9038L45.0153 61.0188L42.8747 60.0363L43.0336 57.4039L41.5514 56.5845L42.2021 53.1286Z" fill="#15788C"/>
<path d="M31.2211 72.3985L27.599 70.9256L25.6284 72.5748L27.6066 74.5447L31.2277 75.524L33.0327 73.3817L36.1572 72.8816L37.3045 70.9052L41.4202 72.377L41.9109 71.0599L39.1137 70.7368L38.6157 68.5994L34.8301 67.6203L34.6722 70.7462L31.2211 72.3985Z" fill="#15788C"/>
<path d="M20.6316 43.304L18.6555 42.3212L18.6597 44.2952L21.2931 44.9476L22.4397 42.6422L20.6316 43.304Z" fill="#15788C"/>
<path d="M28.6727 34.0749L28.0189 36.0503L31.1382 33.0827L28.6727 34.0749Z" fill="#15788C"/>
<path d="M32.45 31.1059L31.1319 30.1217L37.2153 28.6284L37.0574 31.7542L38.5418 33.5606L37.2296 35.3729L36.7326 33.7289L35.7487 35.2115L34.1044 35.544L35.2503 32.9096L35.9024 30.1117L33.4349 30.1169L32.45 31.1059Z" fill="#15788C"/>
<path d="M18.9658 33.4374L18.7975 31.6283L22.4206 33.5946L20.9433 35.0783L18.9658 33.4374Z" fill="#15788C"/>
<path d="M18.4521 23.8974L14.6644 21.9314L17.7875 20.7733L22.0583 17.8032L23.0478 18.9526L23.2164 20.9263L19.5988 21.592L18.4521 23.8974Z" fill="#15788C"/>
<path d="M32.7558 20.0837L31.7646 18.1118L33.2434 17.2861L39.0037 18.59L43.7794 21.0475L40.8201 21.8762L39.5076 23.524L35.8813 20.0771L32.7558 20.0837Z" fill="#15788C"/>
<path d="M2.86828 44.6575L6.80759 40.5367L6.97489 41.8523L2.86828 44.6575Z" stroke="#15788C" stroke-width="2" stroke-linejoin="round"/>
<path d="M8.62649 44.9744L15.194 39.0384L15.3651 42.1636L15.3703 44.6311L11.7513 44.6388L8.96834 51.0602L8.62649 44.9744Z" stroke="#15788C" stroke-width="2" stroke-linejoin="round"/>
<path d="M20.6444 49.3906L24.42 45.599L27.0541 46.5805L24.5921 49.2177L26.2423 51.6818L31.0129 51.6717L31.0157 52.9877L23.6145 53.6613L25.5913 54.9732L25.7603 57.1114L29.0555 59.5719L31.1909 58.0869L31.0205 55.2907L33.8163 54.9558L38.2482 50.3404L37.5971 53.6318L34.971 56.4339L34.9737 57.7499L39.0849 57.0832L38.431 59.0586L40.7393 61.5213L41.0738 64.1526L37.9483 64.1592L38.2728 62.02L36.7881 60.0491L34.1554 59.7257L30.0498 63.0244L26.1014 62.8682L22.97 60.0783L20.1738 60.2487L19.0293 63.5411L17.5526 65.3538L19.698 68.6393L24.4686 68.6292L21.0172 70.117L23.1619 73.0735L18.0558 69.9588L15.7438 65.6866L17.7101 62.0634L17.3746 58.9386L15.2399 60.7526L13.2658 60.7568C13.6557 63.6073 14.2043 68.947 13.2801 67.5013C12.3558 66.0556 10.5848 63.5041 9.81479 62.4091L11.1225 58.4582L13.7482 55.4917L16.0519 55.8158L16.2099 52.6899L18.5226 57.2911L20.6587 56.1351L20.6444 49.3906Z" stroke="#15788C" stroke-width="2" stroke-linejoin="round"/>
<path d="M40.0344 39.315L37.2407 40.6369L41.8523 43.2592L44.3326 49.3406L48.4507 51.9639L50.2661 54.7566L48.7912 57.3918L48.7981 60.6818L49.6279 64.1346L52.4223 63.1417L52.415 59.6871L50.441 59.6913L50.4369 57.7173L51.9149 56.5627L52.2377 53.601L49.7643 50.8096L46.965 49.4995L46.4687 48.1846L47.6174 46.8661L50.9064 46.3657L52.0541 44.5537L50.896 41.4306L48.4351 44.5614L45.9693 45.3891L41.3525 40.2993L42.6619 37.171L43.1457 32.5639L40.5137 32.5694L40.8479 35.0363L40.0344 39.315Z" stroke="#15788C" stroke-width="2" stroke-linejoin="round"/>
<path d="M42.2021 53.1286L42.1993 51.8126L44.5089 54.9333L46.1581 56.9038L45.0153 61.0188L42.8747 60.0363L43.0336 57.4039L41.5514 56.5845L42.2021 53.1286Z" stroke="#15788C" stroke-width="2" stroke-linejoin="round"/>
<path d="M31.2211 72.3985L27.599 70.9256L25.6284 72.5748L27.6066 74.5447L31.2277 75.524L33.0327 73.3817L36.1572 72.8816L37.3045 70.9052L41.4202 72.377L41.9109 71.0599L39.1137 70.7368L38.6157 68.5994L34.8301 67.6203L34.6722 70.7462L31.2211 72.3985Z" stroke="#15788C" stroke-width="2" stroke-linejoin="round"/>
<path d="M20.6316 43.304L18.6555 42.3212L18.6597 44.2952L21.2931 44.9476L22.4397 42.6422L20.6316 43.304Z" stroke="#15788C" stroke-width="2" stroke-linejoin="round"/>
<path d="M28.6727 34.0749L28.0189 36.0503L31.1382 33.0827L28.6727 34.0749Z" stroke="#15788C" stroke-width="2" stroke-linejoin="round"/>
<path d="M32.45 31.1059L31.1319 30.1217L37.2153 28.6284L37.0574 31.7542L38.5418 33.5606L37.2296 35.3729L36.7326 33.7289L35.7487 35.2115L34.1044 35.544L35.2503 32.9096L35.9024 30.1117L33.4349 30.1169L32.45 31.1059Z" stroke="#15788C" stroke-width="2" stroke-linejoin="round"/>
<path d="M18.9658 33.4374L18.7975 31.6283L22.4206 33.5946L20.9433 35.0783L18.9658 33.4374Z" stroke="#15788C" stroke-width="2" stroke-linejoin="round"/>
<path d="M18.4521 23.8974L14.6644 21.9314L17.7875 20.7733L22.0583 17.8032L23.0478 18.9526L23.2164 20.9263L19.5988 21.592L18.4521 23.8974Z" stroke="#15788C" stroke-width="2" stroke-linejoin="round"/>
<path d="M32.7558 20.0837L31.7646 18.1118L33.2434 17.2861L39.0037 18.59L43.7794 21.0475L40.8201 21.8762L39.5076 23.524L35.8813 20.0771L32.7558 20.0837Z" stroke="#15788C" stroke-width="2" stroke-linejoin="round"/>
<path d="M13.9313 5.81173L17.3814 3.70705L20.0182 5.96339L20.1466 8.34839L19.4907 9.33679L16.3735 13.2914L14.7365 17.0784C14.4346 16.9557 13.8062 16.6773 13.7072 16.5459C13.6082 16.4146 12.619 14.0807 12.1368 12.9302L11.9647 9.35267L13.9313 5.81173Z" fill="#46425E"/>
<path d="M38.2452 9.95523L38.1946 5.47266L41.1548 5.05516L43.5026 6.8186C44.3001 7.92731 45.8951 10.2105 45.8956 10.4737C45.8962 10.7369 45.5458 13.6 45.3705 14.9986L43.3612 17.7583L39.6913 13.16L38.2452 9.95523Z" fill="#46425E"/>
</svg>
