<svg width="38" height="55" viewBox="0 0 38 55" fill="none" xmlns="http://www.w3.org/2000/svg">
<path d="M0.914553 28.5365L4.81673 6.81404L26.846 0.187474L36.7361 9.70772L37.7502 22.5367L34.8454 49.1922L21.0377 54.1563L6.55401 50.5679L0.914553 28.5365Z" fill="#00B9BE"/>
<path d="M17.6324 38.5359L17.5548 40.7568L19.6074 38.9429L21.9899 37.6219L24.127 36.9594L26.2737 40.8206L29.6467 41.1425L32.1034 36.0378L32.0966 32.83L28.5595 32.673L23.5467 34.8221L21.3263 34.9913L17.211 33.684L19.8477 35.8992L17.6324 38.5359Z" fill="#15788C"/>
<path d="M12.9505 41.5068L13.6045 39.6136L15.743 39.6091L14.6779 41.5854L12.9505 41.5068Z" fill="#15788C"/>
<path d="M7.43984 41.6006L5.95343 38.8072L8.34217 40.4472L7.43984 41.6006Z" fill="#15788C"/>
<path d="M8.07251 29.5907L4.60896 25.3209L7.49209 27.3711L9.62818 26.2151L8.07251 29.5907Z" fill="#15788C"/>
<path d="M19.495 24.6315L13.5061 31.9645L17.6941 28.7479L18.1958 32.6126L19.8321 28.4966L19.495 24.6315Z" fill="#15788C"/>
<path d="M26.9954 32.0183L23.2861 28.2425L28.6321 28.0668L29.867 28.6399L28.7192 30.3696L26.9954 32.0183Z" fill="#15788C"/>
<path d="M20.8781 17.4728L18.3245 15.6686L22.1084 15.8251L20.8781 17.4728Z" fill="#15788C"/>
<path d="M30.0801 12.6828L31.8855 10.705L34.3551 11.6868L32.5504 13.9936L30.0801 12.6828Z" fill="#15788C"/>
<path d="M14.637 22.1743L7.71039 13.8815L8.45533 16.1007L6.5712 19.7237L9.03525 18.0735L14.637 22.1743Z" fill="#15788C"/>
<path d="M17.6324 38.5359L17.5548 40.7568L19.6074 38.9429L21.9899 37.6219L24.127 36.9594L26.2737 40.8206L29.6467 41.1425L32.1034 36.0378L32.0966 32.83L28.5595 32.673L23.5467 34.8221L21.3263 34.9913L17.211 33.684L19.8477 35.8992L17.6324 38.5359Z" stroke="#15788C" stroke-width="2" stroke-linejoin="round"/>
<path d="M12.9505 41.5068L13.6045 39.6136L15.743 39.6091L14.6779 41.5854L12.9505 41.5068Z" stroke="#15788C" stroke-width="2" stroke-linejoin="round"/>
<path d="M7.43984 41.6006L5.95343 38.8072L8.34217 40.4472L7.43984 41.6006Z" stroke="#15788C" stroke-width="2" stroke-linejoin="round"/>
<path d="M8.07251 29.5907L4.60896 25.3209L7.49209 27.3711L9.62818 26.2151L8.07251 29.5907Z" stroke="#15788C" stroke-width="2" stroke-linejoin="round"/>
<path d="M19.495 24.6315L13.5061 31.9645L17.6941 28.7479L18.1958 32.6126L19.8321 28.4966L19.495 24.6315Z" stroke="#15788C" stroke-width="2" stroke-linejoin="round"/>
<path d="M26.9954 32.0183L23.2861 28.2425L28.6321 28.0668L29.867 28.6399L28.7192 30.3696L26.9954 32.0183Z" stroke="#15788C" stroke-width="2" stroke-linejoin="round"/>
<path d="M20.8781 17.4728L18.3245 15.6686L22.1084 15.8251L20.8781 17.4728Z" stroke="#15788C" stroke-width="2" stroke-linejoin="round"/>
<path d="M30.0801 12.6828L31.8855 10.705L34.3551 11.6868L32.5504 13.9936L30.0801 12.6828Z" stroke="#15788C" stroke-width="2" stroke-linejoin="round"/>
<path d="M14.637 22.1743L7.71039 13.8815L8.45533 16.1007L6.5712 19.7237L9.03525 18.0735L14.637 22.1743Z" stroke="#15788C" stroke-width="2" stroke-linejoin="round"/>
</svg>
