<svg width="1699" height="1692" viewBox="0 0 1699 1692" fill="none" xmlns="http://www.w3.org/2000/svg">
<path d="M1539.82 535.856C1531.56 527.784 1523.85 521.339 1514.53 515.458C1494.24 504.26 1471.89 502.89 1453.43 507.466C1434.96 512.042 1418.75 523.128 1409.12 537.404C1398.92 550.053 1393.66 566.456 1389.48 580.667C1381.66 610.717 1381.98 637.948 1383.93 664.614C1385.88 691.281 1388.9 715.756 1394.66 742.922C1385.64 716.884 1381 692.973 1376.86 665.243C1373.28 639.14 1372.4 610.282 1377.46 577.541C1381.08 561.702 1385.77 543.672 1398.66 528.268C1409.36 511.801 1428.26 497.96 1449.98 492.256C1472.76 484.361 1499.49 487.857 1523.6 499.554C1523.6 499.554 1524.16 501.182 1525.79 500.618C1531.39 422.117 1455.89 393.598 1452.07 393.098L1441.68 389.409C1441.68 389.409 1419.27 382.593 1399.8 394.807C1393.86 398.69 1390.67 405.264 1385.28 410.774C1370.83 432.188 1364.58 456.228 1356.14 479.205C1350.82 490.162 1345.5 501.118 1335.8 509.948C1326.1 518.778 1314.71 522.726 1304.38 524.482C1294.06 526.239 1283.16 526.368 1273.9 525.933C1264.07 523.87 1254.8 523.435 1247.17 522.436C1230.26 521.002 1215.62 526.078 1203.73 533.845C1192.4 543.239 1183.26 553.696 1176.88 566.844C1164.12 593.14 1156.81 619.371 1154.44 649.357C1155.18 619.935 1159.74 591.013 1171.94 563.09C1178.32 549.941 1186.33 536.229 1198.72 524.644C1210.04 515.25 1224.69 510.175 1240.46 508.354C1245.39 464.721 1244.94 426.598 1234.79 397.305C1229.72 382.659 1221.95 370.767 1211.49 361.632C1201.6 354.123 1189.02 349.37 1177.56 347.872C1166.1 346.373 1154.71 350.321 1145.51 355.332C1136.31 360.343 1127.67 366.982 1121.23 374.684C1108.34 390.087 1096.01 407.119 1090.26 427.34C1093.82 406.056 1103.39 386.333 1115.72 369.302C1119.47 364.355 1123.79 361.036 1127.55 356.089C1115.83 332.807 1101.99 313.907 1078.32 292.944C1065.67 282.745 1051.4 273.109 1031.74 268.985C1012.08 264.86 987.042 266.246 962.132 278.524C935.03 289.739 924.396 311.652 918.08 330.246C912.328 350.468 909.83 369.561 906.205 385.4C902.58 401.239 896.763 416.014 888.191 428.099C879.619 440.183 864.973 445.259 851.954 449.771C864.409 443.632 874.673 436.429 881.053 423.281C887.998 411.761 890.56 398.113 892.557 382.838C894.555 367.563 895.425 349.034 901.677 324.994C903.24 318.984 904.803 312.974 908.557 308.027C909.62 305.836 911.747 301.453 912.811 299.262C913.874 297.07 916.565 294.315 918.692 289.932C921.882 283.358 927.828 279.475 934.837 273.401C940.782 269.517 948.355 265.07 955.928 260.623C985.72 246.653 1014.58 245.767 1038.62 252.018C1062.66 258.27 1078.06 271.16 1089.65 283.551C1112.25 306.704 1122.34 330.551 1130.8 354.962C1135.12 351.642 1139.44 348.323 1143.75 345.004C1154.02 337.802 1167.04 333.29 1180.12 334.225C1194.83 334.595 1209.04 338.784 1221.69 348.983C1234.34 359.182 1244.86 373.765 1252.13 389.474C1258.33 407.376 1262.91 425.841 1262.6 445.998C1263.36 463.963 1263.05 484.12 1259.49 505.405C1264.94 505.341 1272.58 506.34 1278.02 506.275C1281.84 506.775 1287.29 506.71 1291.11 507.209C1296.55 507.145 1299.81 506.017 1305.25 505.953C1313.39 503.133 1323.15 499.749 1328.54 494.238C1335.55 488.164 1339.8 479.399 1343.49 469.006C1350.87 448.221 1356.56 422.553 1373.14 396.756C1381.71 384.672 1391.91 372.023 1409.81 365.82C1417.94 363 1426.65 361.808 1435.91 362.243C1439.73 362.742 1441.92 363.805 1445.18 362.677C1443.92 348.53 1439.91 331.693 1432.01 308.91C1413.4 255.206 1350.04 240.705 1350.04 240.705L1346.23 240.206C1342.41 239.706 1336.4 238.143 1331.52 239.835C1329.89 240.399 1328.26 240.963 1326.63 241.527C1319.56 242.155 1313.61 246.038 1307.1 248.294C1296.28 253.869 1288.7 258.316 1280.07 264.955C1283.76 254.562 1290.2 246.861 1301.53 237.467C1310.17 230.828 1320.99 225.253 1338.4 222.868C1333.19 197.33 1321.54 179.493 1305.07 168.794C1277.09 151.151 1242.85 157.548 1241.22 158.112L1230.89 159.868L1225.88 150.668C1201.95 107.921 1158.93 62.6767 1090.58 86.3629C1090.58 86.3629 1076.5 93.0659 1063.04 106.842C1044.77 127.757 1037.33 143.096 1034.77 156.744C1032.21 170.391 1030.71 181.848 1033.03 193.803C1025.82 183.539 1021.88 172.147 1021.68 155.809C1022.62 142.726 1024.05 125.823 1035.81 107.165C1029.74 100.156 1003.25 71.0565 940.346 94.6782C946.984 103.315 951.432 110.887 953.687 117.397C957.071 127.161 959.891 135.298 959.456 144.563C953.381 137.554 947.307 130.545 941.232 123.536C935.722 118.155 927.456 110.082 919.19 102.01L912.052 97.1921C907.105 93.4379 789.014 10.4096 687.634 96.5811C675.243 108.166 667.3 127.325 667.058 152.928C665.947 197.06 686.378 266.538 745.931 327.927C751.249 316.971 757.13 307.641 761.383 298.876C769.955 286.791 778.028 278.526 787.728 269.696C800.118 258.111 812.009 250.344 822.837 244.769C815.699 239.951 809.624 232.942 806.305 228.624C800.23 221.615 793.592 212.979 788.581 203.779C781.314 188.069 781.685 173.358 786.438 160.774C786.067 175.485 791.642 186.312 799.409 198.203C807.175 210.095 820.387 221.921 841.801 236.374C873.785 223.468 899.888 219.89 928.182 217.377C899.952 225.337 874.978 232.169 846.313 249.393C831.167 258.288 816.021 267.182 799.877 283.714C791.804 291.98 783.732 300.245 776.787 311.766C769.279 321.659 762.898 334.807 758.145 347.391L757.645 351.21C736.264 431.532 800.716 538.617 821.26 571.599C829.268 557.887 840.595 548.494 849.796 543.482C863.878 536.779 874.77 536.65 885.163 540.34C873.207 542.661 865.634 547.108 855.371 554.31C853.743 554.874 852.68 557.065 849.989 559.821C839.226 570.842 831.282 590 831.282 590L828.092 596.574C828.092 596.574 809.514 637.645 842.594 717.323C870.663 787.799 915.553 806.877 925.946 810.567C936.709 799.545 945.845 789.088 955.545 780.258C968.5 770.3 981.454 760.343 993.909 754.204C998.791 752.512 1002.05 751.384 1006.93 749.692C1011.25 746.373 1006.8 738.8 1006.8 738.8C992.201 701.934 989.123 672.013 990.493 649.664C991.862 627.316 999.805 608.158 1011.63 594.945C1007.25 592.818 1001.24 591.256 996.293 587.502C980.389 578.43 970.432 565.476 963.729 551.393C957.026 537.311 954.705 525.355 952.385 513.4C949.372 488.924 952.932 467.639 956.558 451.8C961.246 433.77 967.063 418.995 975.635 406.91C984.207 394.825 992.779 382.741 1007.43 377.665C993.343 384.368 986.962 397.517 982.209 410.101C975.829 423.249 971.639 437.46 970.205 454.362C967.144 471.828 966.274 490.358 969.787 511.014C973.299 531.671 982.323 557.709 1007.56 572.662C1014.13 575.852 1020.7 579.042 1026.71 580.605C1030.53 581.104 1032.72 582.168 1036.54 582.667C1040.36 583.167 1042.55 584.23 1046.37 584.73C1051.82 584.665 1057.83 586.228 1064.34 583.972C1069.78 583.908 1074.66 582.216 1079.55 580.524C1099.08 573.756 1111.97 558.353 1119.97 544.641C1129.61 530.365 1135.99 517.217 1140.18 503.006C1144.93 490.421 1149.12 476.21 1153.31 461.999C1152.94 476.709 1150.38 490.357 1148.38 505.632C1145.82 519.279 1140.57 535.682 1131.49 551.585C1122.42 567.489 1108.47 585.084 1084.62 595.171C1078.68 599.054 1071.6 599.682 1064.53 600.311C1058.02 602.567 1050.38 601.568 1042.75 600.569C1038.93 600.069 1035.11 599.57 1031.29 599.07C1027.47 598.571 1023.65 598.071 1019.27 595.944C1017.08 594.881 1015.45 595.445 1013.26 594.381C1005.82 609.721 1002.75 627.187 1003.01 648.972C1003.83 672.383 1010.73 702.804 1028.08 742.361C1041.67 739.477 1054.19 738.784 1066.71 738.091C1088.49 737.833 1106.52 742.521 1123.49 749.401C1139.89 754.654 1153.6 762.662 1169.51 771.733C1152.54 764.853 1137.76 759.037 1121.92 755.411C1106.09 751.786 1088.62 748.725 1067.4 750.61C1047.81 751.931 1025.52 756.008 1002.24 767.722C989.784 773.861 977.893 781.627 967.13 792.649C960.121 798.723 953.676 806.426 946.168 816.319L937.096 832.222C923.207 855.263 914.265 882.059 916.15 903.279C917.037 932.137 926.318 979.959 961.943 998.602C964.135 999.665 967.953 1000.16 970.709 1002.86L978.91 1005.48C987.112 1008.11 994.749 1009.11 1000.19 1009.04C1005.64 1008.98 1012.71 1008.35 1018.16 1008.29C1033.94 1006.46 1046.95 1001.95 1059.97 997.441C1085.45 986.79 1109.36 982.149 1131.14 981.891C1165.45 980.941 1195 992.574 1213.22 1013.6C1213.72 1009.78 1212.59 1006.53 1212.53 1001.08C1212.46 995.635 1212.4 990.189 1212.33 984.743C1213.4 982.552 1212.27 979.297 1213.33 977.106C1214.4 974.914 1214.9 971.096 1215.96 968.904C1221.15 947.055 1233.97 926.205 1251.18 907.482C1267.33 890.95 1286.23 877.11 1307.32 864.332C1294.67 854.133 1283.65 843.369 1275.88 831.478C1271.44 823.905 1266.99 816.332 1264.17 808.195C1260.54 824.034 1254.16 837.182 1243.4 848.204C1230.51 863.607 1213.17 871.438 1197.96 874.887C1181.12 878.899 1168.04 877.964 1155.52 878.657C1143 879.35 1129.92 878.416 1119.03 878.545C1097.24 878.803 1077.08 878.497 1058.62 883.073C1049.92 884.265 1042.35 888.712 1033.14 893.724C1025.57 898.171 1019.13 905.872 1014.31 913.01C1018.56 904.245 1025.01 896.543 1032.02 890.469C1039.03 884.394 1048.23 879.383 1056.36 876.563C1074.26 870.36 1095.48 868.475 1116.71 866.589C1127.6 866.46 1140.12 865.767 1152.64 865.074C1165.16 864.381 1179.3 863.124 1192.89 860.24C1206.47 857.356 1220.55 850.653 1230.75 838.004C1241.51 826.983 1247.83 808.389 1249.26 791.487C1249.26 791.487 1251.33 781.658 1250.7 774.585C1250.13 772.957 1250.13 772.957 1249.57 771.33C1244.43 751.237 1242.54 730.017 1245.04 710.923C1247.54 691.83 1253.86 673.235 1264.55 656.768C1275.25 640.301 1289.27 628.152 1308.8 621.384C1291.46 629.215 1278.01 642.992 1268.94 658.895C1259.87 674.798 1255.18 692.828 1254.31 711.358C1253.44 729.888 1254.76 749.481 1261.53 769.009C1266.67 789.102 1275.06 808.067 1286.71 825.903C1299.99 843.176 1316.52 859.321 1340.06 869.391C1346.07 870.954 1352.64 874.144 1358.65 875.707C1362.47 876.206 1364.66 877.27 1368.48 877.77C1372.3 878.269 1376.12 878.768 1377.75 878.204C1385.38 879.203 1390.83 879.139 1397.9 878.511C1404.98 877.882 1412.05 877.253 1418.56 874.998C1432.14 872.113 1446.23 865.41 1455.36 854.953C1466.13 843.932 1471.94 829.157 1477.19 812.754C1478.26 810.563 1479.32 808.371 1479.82 804.553C1480.88 802.361 1481.38 798.542 1484.64 797.414C1485.7 795.223 1488.39 792.468 1490.02 791.904C1469.91 749.657 1466.77 714.289 1468.64 688.122C1471.57 659.764 1478.95 638.978 1492.34 619.755C1483.9 642.732 1481.4 661.826 1481.72 689.056C1483.11 714.096 1486.75 745.644 1505.73 784.637C1514.43 783.445 1523.7 783.88 1531.33 784.879C1544.98 787.44 1557.56 792.194 1570.71 798.574C1575.1 800.701 1577.22 796.318 1578.85 795.754C1620.63 690.135 1565.94 579.667 1539.82 535.856ZM1146.01 167.409C1138.31 160.964 1131.73 157.774 1122.97 153.521C1131.67 152.328 1140.93 152.763 1152.95 155.889C1163.35 159.579 1177.62 169.214 1185.52 191.997C1192.85 213.153 1187.6 229.556 1182.28 240.513C1176.4 249.842 1169.39 255.917 1159.63 259.3C1164.44 252.163 1167.07 243.961 1169.7 235.76C1171.76 225.931 1173.26 214.475 1167.62 198.201C1163.04 179.736 1153.71 173.854 1146.01 167.409Z" fill="#FFEECC"/>
<path d="M1454.56 1247.14C1455.62 1244.95 1453.93 1240.06 1454.99 1237.87C1452.67 1225.92 1446.03 1217.28 1440.52 1211.9C1440.52 1211.9 1440.52 1211.9 1439.96 1210.27C1437.2 1207.58 1435.58 1208.14 1435.58 1208.14C1434.51 1210.34 1432.89 1210.9 1430.2 1213.65C1411.36 1232.94 1391.9 1245.16 1372.37 1251.92C1351.21 1259.25 1328.86 1257.88 1310.2 1246.12C1329.93 1255.69 1351.15 1253.81 1370.11 1245.41C1389.08 1237.02 1406.35 1223.74 1421.93 1205.58C1425.68 1200.64 1429.44 1195.69 1433.19 1190.74C1436.95 1185.8 1440.14 1179.22 1443.33 1172.65C1448.08 1160.06 1452.27 1145.85 1452.08 1129.51C1453.38 1101.72 1445.36 1068.04 1428.07 1033.93C1428.07 1033.93 1424.75 1029.62 1421.49 1030.74C1418.8 1033.5 1416.11 1036.25 1411.23 1037.95C1390.14 1050.72 1368.35 1050.98 1350.89 1047.92C1332.86 1043.23 1315.89 1036.35 1301.05 1025.09C1316.95 1034.16 1334.98 1038.85 1351.89 1040.28C1368.79 1041.72 1388.38 1040.39 1405.65 1027.12C1409.97 1023.8 1414.29 1020.48 1416.98 1017.72C1420.74 1012.78 1425.05 1009.46 1428.81 1004.51C1436.32 994.618 1441.63 983.662 1445.82 969.45C1452.64 947.037 1451.75 918.179 1439.97 889.451C1439.41 887.823 1435.53 881.878 1430.64 883.569C1429.02 884.133 1425.76 885.261 1424.14 885.825C1415.43 887.018 1408.36 887.646 1399.66 888.838C1392.59 889.467 1383.32 889.032 1377.31 887.469C1373.49 886.969 1369.67 886.47 1365.86 885.971C1362.04 885.471 1358.22 884.972 1354.4 884.472C1346.76 883.474 1340.19 880.283 1333.61 877.093C1331.42 876.029 1328.67 873.339 1326.48 872.275C1326.48 872.275 1323.72 869.584 1319.4 872.903C1272.84 896.332 1240.05 933.214 1230.67 969.274C1229.61 971.466 1228.54 973.657 1229.11 975.284L1228.11 982.922C1227.61 986.741 1226.05 992.751 1227.17 996.005C1227.24 1001.45 1226.74 1005.27 1227.87 1008.53C1229.56 1013.41 1229.06 1017.23 1230.19 1020.48C1234.2 1037.32 1239.84 1053.59 1244.91 1068.24C1247.73 1076.38 1249.99 1082.89 1254.44 1090.46L1256.06 1089.89C1256.63 1091.52 1255.57 1093.71 1256.13 1095.34C1265.59 1112.11 1277.17 1124.5 1291.95 1130.32C1314.92 1138.76 1342.65 1134.62 1366.57 1129.98C1341.59 1136.81 1316.62 1143.65 1288.76 1136.89C1274.55 1132.71 1264.09 1123.57 1255.26 1113.87C1253.89 1136.22 1248.14 1156.44 1237.44 1172.91C1224.61 1193.76 1209.53 1208.1 1194.39 1216.99C1179.8 1227.51 1165.16 1232.59 1151.57 1235.47C1138.56 1239.98 1124.41 1241.24 1110.26 1242.5C1123.84 1239.61 1136.86 1235.1 1149.32 1228.96C1161.77 1222.82 1174.23 1216.69 1187.18 1206.73C1200.14 1196.77 1213.59 1182.99 1223.73 1164.9C1233.86 1146.8 1239.55 1121.14 1237.04 1092.84L1238.66 1092.28C1234.78 1086.33 1232.52 1079.82 1230.27 1073.31C1223.57 1059.23 1217.93 1042.96 1213.35 1024.49C1211.66 1019.61 1211.59 1014.16 1210.47 1010.91C1202.2 1002.84 1191.24 997.52 1180.85 993.83C1166.07 988.014 1147.54 987.144 1127.95 988.465C1108.36 989.787 1087.2 997.118 1063.36 1007.2C1050.34 1011.72 1035.69 1016.79 1018.29 1019.18C1006.33 1021.5 991.622 1021.13 976.347 1019.13C971.594 1031.71 961.589 1060.7 976.251 1103.01C1002.19 1177.87 1038.75 1183.43 1038.75 1183.43L1055.66 1184.86C1059.47 1185.36 1062.73 1184.24 1066.55 1184.74C1086.64 1179.59 1102.91 1173.96 1117 1167.25C1125.63 1160.61 1132.64 1154.54 1136.9 1145.77C1137.39 1141.95 1139.52 1137.57 1140.02 1133.75C1139.46 1132.13 1140.52 1129.93 1139.96 1128.31C1139.39 1126.68 1138.83 1125.05 1139.33 1121.23C1135.32 1104.4 1128.61 1090.31 1117.09 1083.37C1110.52 1080.18 1103.45 1080.81 1096.94 1083.06C1093.68 1084.19 1090.43 1085.32 1087.74 1088.07C1085.04 1090.83 1081.79 1091.96 1079.66 1096.34C1080.16 1092.52 1082.85 1089.77 1085.54 1087.01C1088.23 1084.26 1090.93 1081.5 1095.81 1079.81C1103.38 1075.36 1112.08 1074.17 1120.85 1078.42C1129.05 1081.05 1136.75 1087.49 1141.2 1095.07C1145.64 1102.64 1150.09 1110.21 1153.48 1119.98C1154.04 1121.6 1155.17 1124.86 1155.73 1126.49C1156.86 1129.74 1155.8 1131.93 1156.92 1135.19C1156.99 1140.63 1155.43 1146.64 1153.86 1152.65C1149.11 1165.24 1141.6 1175.13 1129.71 1182.9C1110.25 1195.11 1084.21 1204.13 1054.29 1207.21C1044.22 1230.75 1039.85 1276.01 1069.74 1362.26C1089.48 1419.22 1117.42 1478.81 1193.53 1467.01C1259.32 1456.97 1283.28 1410.39 1290.66 1389.61C1273.76 1388.17 1260.61 1381.79 1248.03 1377.04C1243.64 1374.91 1239.26 1372.79 1234.88 1370.66C1226.87 1384.37 1215.54 1393.76 1204.15 1397.71C1191.13 1402.22 1178.05 1401.29 1170.41 1400.29C1160.58 1398.23 1152.38 1395.6 1146.31 1388.59C1140.23 1381.58 1139.6 1374.51 1138.41 1365.81C1141.23 1373.95 1145.11 1379.89 1151.69 1383.08C1156.64 1386.84 1164.27 1387.83 1173.54 1388.27C1182.8 1388.7 1191.5 1387.51 1201.27 1384.13C1206.15 1382.44 1210.47 1379.12 1214.79 1375.8C1217.48 1373.04 1220.17 1370.29 1220.67 1366.47C1221.73 1364.28 1218.41 1359.96 1218.41 1359.96C1216.22 1358.9 1213.46 1356.21 1212.9 1354.58C1193.61 1335.74 1186.85 1316.21 1183.9 1297.18C1192.29 1316.15 1203.38 1332.36 1220.97 1346.31C1230.87 1353.82 1239.63 1358.07 1254.41 1363.89C1269.18 1369.71 1282.27 1370.64 1302.42 1370.95L1310.06 1371.95C1432.13 1377.04 1456.94 1264.54 1458.51 1258.53L1454.56 1247.14Z" fill="#FFEECC"/>
<path d="M1577.11 832.813C1572.6 819.794 1565.46 814.977 1561.08 812.85C1550.12 807.533 1537.54 802.779 1527.71 800.717C1519.51 798.09 1510.8 799.283 1504.3 801.539C1497.79 803.795 1496.22 809.805 1493.03 816.379C1488.34 834.409 1479.84 851.939 1466.38 865.716C1461 871.226 1455.06 875.11 1449.11 878.993C1465.34 915.295 1466.85 951.226 1456.84 980.213C1452.66 994.424 1445.71 1005.95 1438.2 1015.84C1438.2 1015.84 1435.51 1018.59 1439.96 1026.17C1460.57 1064.6 1467.53 1100.46 1466.29 1133.7C1465.42 1152.23 1460.16 1168.64 1453.78 1181.78C1450.59 1188.36 1447.4 1194.93 1442.02 1200.44L1440.96 1202.63C1441.52 1204.26 1443.71 1205.32 1445.91 1206.39C1452.48 1209.58 1457.43 1213.33 1460.18 1216.02C1460.75 1217.65 1460.75 1217.65 1460.75 1217.65C1466.82 1224.66 1471.27 1232.23 1473.59 1244.19C1486.11 1243.49 1495.87 1240.11 1505.57 1231.28C1538.99 1201.47 1550.73 1135.43 1553.6 1101.62C1543.45 1072.33 1539.87 1046.23 1536.36 1025.57C1532.85 1004.91 1531.53 985.32 1531.33 968.982C1529.32 936.87 1531.75 912.33 1533.06 884.535C1536.63 910.638 1539.65 935.113 1543.29 966.661C1545.11 982.436 1547.49 999.838 1551.57 1022.12C1553.89 1034.08 1557.34 1049.29 1560.22 1062.87C1561.92 1067.75 1564.61 1065 1564.04 1063.37C1629.56 984.159 1591.14 868.052 1577.11 832.813Z" fill="#FFEECC"/>
<path d="M229.654 958.693C231.332 947.262 233.548 937.467 237.4 927.133C246.74 905.927 263.68 891.286 281.138 883.728C298.596 876.17 318.207 875.156 334.526 880.665C350.306 884.537 364.429 894.395 376.378 903.155C400.814 922.311 417.07 944.16 431.69 966.546C446.31 988.933 458.756 1010.22 470.642 1035.32C462.028 1009.15 451.218 987.318 437.696 962.757C424.712 939.832 407.917 916.347 384.04 893.38C371.553 882.984 356.892 871.491 337.301 867.059C318.808 860.452 295.386 860.907 274.657 869.542C251.752 877.08 232.617 896.069 220.543 919.988C220.543 919.988 221.082 921.624 219.446 922.162C167.385 863.141 210.129 794.678 212.863 791.966L218.889 782.73C218.889 782.73 232.578 763.719 255.462 761.628C262.544 761.11 269.067 764.403 276.688 765.521C301.166 773.785 320.715 789.11 341.361 802.261C352.233 807.749 363.105 813.236 376.173 814.376C389.24 815.515 400.692 811.746 409.97 806.88C419.247 802.014 427.987 795.511 435.09 789.547C441.655 781.947 448.758 775.983 454.226 770.557C466.796 759.168 481.52 754.322 495.685 753.287C510.389 753.888 523.994 756.663 537.041 763.249C563.133 776.42 584.857 792.843 604.923 815.25C586.493 792.305 565.329 772.072 538.697 757.264C525.651 750.679 510.968 744.631 494.091 742.933C479.387 742.332 464.663 747.177 451.016 755.295C420.637 723.589 397.878 693.002 388.187 663.553C383.342 648.829 382.306 634.664 385.081 621.058C388.395 609.089 395.519 597.678 403.72 589.54C411.921 581.401 423.373 577.633 433.728 576.039C444.082 574.444 454.975 574.485 464.77 576.701C484.361 581.134 504.49 587.202 521.326 599.793C505.588 585.028 486.018 575.149 465.889 569.081C459.904 567.424 454.457 567.403 448.473 565.746C443.669 540.129 443.214 516.708 449.323 485.686C453.196 469.906 458.705 453.587 471.835 438.387C484.965 423.187 505.715 409.105 532.968 403.763C561.319 396.246 583.063 407.222 599.361 418.178C616.197 430.769 629.761 444.437 642.248 454.833C654.736 465.229 668.32 473.451 682.464 477.862C696.608 482.274 711.333 477.428 724.421 473.121C710.794 475.792 698.265 476.289 685.219 469.703C672.711 464.754 662.398 455.455 651.547 444.521C640.696 433.586 628.767 419.379 609.219 404.054C604.331 400.223 599.444 396.392 593.459 394.735C591.285 393.638 586.936 391.443 584.762 390.345C582.587 389.247 578.777 388.688 574.428 386.492C567.905 383.2 560.822 383.718 551.565 383.138C544.483 383.655 535.764 384.711 527.046 385.767C494.885 392.724 471.401 409.519 456.076 429.068C440.751 448.617 436.319 468.207 434.62 485.085C430.685 517.204 437.125 542.283 445.201 566.823C439.754 566.802 434.308 566.782 428.861 566.761C416.333 567.257 403.245 571.565 393.408 580.242C381.935 589.457 373.174 601.405 369.302 617.185C365.429 632.965 365.905 650.941 369.653 667.84C375.575 685.836 383.133 703.293 395.6 719.136C405.892 733.881 418.358 749.724 434.097 764.489C429.727 767.741 424.26 773.166 419.89 776.417C417.156 779.13 412.787 782.381 410.053 785.094C405.684 788.345 402.412 789.422 398.042 792.673C389.862 795.365 380.046 798.596 372.425 797.477C363.168 796.897 354.47 792.507 345.234 786.481C326.762 774.428 306.675 757.466 277.848 747.008C263.704 742.596 247.924 738.723 229.928 744.646C221.748 747.338 214.106 751.666 207.003 757.63C204.269 760.343 203.172 762.517 199.9 763.594C192.32 751.582 185.301 735.761 177.763 712.857C159.996 658.868 201.58 608.919 201.58 608.919L204.314 606.207C207.048 603.494 210.879 598.606 215.787 596.991C217.423 596.453 219.059 595.914 220.695 595.376C226.701 591.586 233.783 591.069 240.327 588.915C252.318 586.782 261.036 585.726 271.929 585.768C262.693 579.741 252.898 577.526 238.194 576.925C227.302 576.883 215.311 579.016 200.028 587.672C188.68 564.209 187.127 542.961 193.733 524.468C205.29 493.467 236.395 477.791 238.031 477.253L247.308 472.387L245.714 462.032C238.819 413.531 245.592 351.467 314.305 328.854C314.305 328.854 329.567 325.645 348.619 328.441C375.831 333.991 391.052 341.675 401.364 350.974C411.677 360.272 419.816 368.473 425.221 379.387C424.724 366.858 420.955 355.405 411.201 342.296C402.524 332.46 391.135 319.889 370.468 312.185C371.048 302.928 374.465 263.726 438.808 244.365C438.767 255.258 439.823 263.976 441.976 270.52C445.207 280.336 447.899 288.516 453.863 295.62C454.443 286.363 455.023 277.106 455.603 267.849C456.721 260.228 458.399 248.797 460.077 237.365L462.831 229.206C464.488 223.221 508.042 85.5907 640.91 92.6345C657.787 94.333 675.721 104.75 691.439 124.962C719.084 159.381 744.969 227.017 734.841 311.944C723.969 306.456 713.635 302.604 704.937 298.213C690.793 293.802 679.362 292.125 666.295 290.985C649.417 289.287 635.252 290.322 623.262 292.455C626.016 284.295 626.596 275.038 626.617 269.592C627.197 260.335 627.239 249.442 625.644 239.088C621.896 222.189 612.681 210.717 601.27 203.592C610.486 215.065 612.618 227.056 613.654 241.221C614.689 255.385 611.354 272.801 603.091 297.279C569.832 306.411 546.907 319.395 522.885 334.554C550.158 323.765 574.16 314.053 607.398 310.368C624.835 308.256 642.272 306.144 665.135 309.499C676.566 311.177 687.997 312.854 700.505 317.804C712.475 321.117 725.521 327.703 736.932 334.827L739.645 337.561C805.353 388.465 819.039 512.698 822.704 551.382C808.021 545.335 793.318 544.734 782.963 546.328C767.701 549.538 758.961 556.04 752.935 565.276C763.849 559.871 772.567 558.816 785.096 558.319C786.732 557.78 788.906 558.878 792.717 559.437C807.959 561.674 825.892 572.091 825.892 572.091L832.415 575.384C832.415 575.384 872.093 596.777 894.105 680.193C914.523 753.254 890.396 795.645 884.37 804.881C869.128 802.644 855.522 799.869 842.455 798.73C826.115 798.667 809.776 798.605 796.15 801.276C791.242 802.891 787.97 803.968 783.062 805.583C777.615 805.562 776.559 796.844 776.559 796.844C765.812 758.677 750.115 733.018 735.474 716.078C720.833 699.138 702.9 688.721 685.484 685.386C687.679 681.038 691.51 676.151 693.167 670.166C700.312 653.309 700.374 636.969 697.165 621.707C693.955 606.444 688.55 595.531 683.146 584.617C670.7 563.328 654.962 548.562 642.474 538.166C627.813 526.672 614.228 518.45 600.084 514.039C585.939 509.628 571.795 505.217 557.071 510.062C572.334 506.853 585.38 513.439 596.791 520.563C609.837 527.148 621.786 535.908 633.176 548.479C646.201 560.511 658.129 574.718 667.862 593.273C677.595 611.828 686.21 638.005 675.213 665.195C671.92 671.718 668.627 678.241 664.795 683.129C662.062 685.842 660.964 688.016 658.231 690.729C655.497 693.442 654.399 695.616 651.666 698.329C647.296 701.58 643.465 706.468 636.921 708.621C632.551 711.872 627.643 713.487 622.735 715.102C603.103 721.563 583.512 717.131 568.83 711.084C552.511 705.575 539.465 698.99 527.516 690.229C516.106 683.105 504.157 674.345 492.208 665.585C501.423 677.058 511.736 686.356 522.587 697.291C532.9 706.589 547.023 716.447 563.88 723.592C580.737 730.737 602.502 736.267 627.581 729.827C634.663 729.309 640.669 725.52 646.674 721.73C653.219 719.576 658.686 714.151 664.153 708.725C666.887 706.012 669.62 703.299 672.354 700.587C675.088 697.874 677.821 695.161 680.016 690.812C681.114 688.638 682.75 688.099 683.848 685.925C699.068 693.608 712.094 705.641 725.099 723.119C738.642 742.234 751.605 770.605 761.793 812.582C749.244 818.526 738.868 825.566 728.493 832.607C711.014 845.612 699.521 860.273 690.201 876.033C680.344 890.156 674.296 904.839 667.151 921.696C676.471 905.936 684.693 892.352 695.089 879.864C705.485 867.377 717.517 854.351 735.534 842.982C751.915 832.152 772.106 821.881 797.723 817.077C811.35 814.406 825.515 813.37 840.756 815.607C850.013 816.187 859.809 818.404 871.778 821.717L888.635 828.862C913.651 838.761 937.01 854.646 948.379 872.663C965.174 896.147 986.793 939.802 969.769 976.228C968.672 978.403 965.938 981.115 965.379 984.926L960.45 991.988C955.521 999.049 950.054 1004.47 945.684 1007.73C941.315 1010.98 935.309 1014.77 930.939 1018.02C917.292 1026.14 904.204 1030.44 891.116 1034.75C864.401 1041.73 842.574 1052.54 825.095 1065.54C797.241 1085.59 780.798 1112.76 779.058 1140.53C776.345 1137.8 775.268 1134.52 772.017 1130.15C768.766 1125.78 765.514 1121.41 762.263 1117.04C760.089 1115.95 759.012 1112.68 756.838 1111.58C754.663 1110.48 751.95 1107.75 749.776 1106.65C732.402 1092.42 709.56 1083.62 684.523 1079.17C661.66 1075.81 638.239 1076.27 613.719 1078.9C617.592 1063.12 619.829 1047.87 618.794 1033.71C617.738 1024.99 616.682 1016.27 613.99 1008.09C626.477 1018.49 639.523 1025.07 654.765 1027.31C674.356 1031.74 692.89 1027.46 707.076 1020.98C722.898 1013.96 732.735 1005.28 743.11 998.237C753.485 991.196 763.322 982.519 772.062 976.017C789.54 963.012 805.383 950.546 822.84 942.988C830.482 938.66 839.201 937.604 849.555 936.009C858.274 934.953 868.069 937.169 876.228 939.924C867.53 935.533 857.735 933.317 848.478 932.737C839.221 932.157 828.867 933.752 820.687 936.444C802.691 942.366 784.674 953.735 766.657 965.104C757.917 971.606 747.542 978.646 737.167 985.687C726.791 992.728 714.78 1000.31 702.23 1006.25C689.681 1012.19 674.418 1015.4 658.638 1011.53C643.396 1009.29 627.099 998.338 615.709 985.768C615.709 985.768 608.109 979.203 604.32 973.197C603.781 971.561 603.781 971.561 603.243 969.925C595.146 950.831 583.777 932.815 570.213 919.146C556.649 905.478 540.351 894.523 521.859 887.916C503.366 881.31 484.852 880.15 465.22 886.61C483.754 882.324 502.806 885.12 519.663 892.265C536.52 899.41 551.182 910.904 563.11 925.11C575.038 939.317 585.868 955.698 592.329 975.33C600.426 994.424 605.251 1014.59 606.803 1035.84C606.72 1057.63 603.365 1080.49 590.753 1102.77C586.921 1107.66 583.628 1114.18 579.797 1119.07C577.064 1121.78 575.966 1123.96 573.232 1126.67C570.499 1129.38 567.765 1132.1 566.129 1132.63C560.662 1138.06 556.292 1141.31 550.286 1145.1C544.281 1148.89 538.275 1152.68 531.731 1154.83C519.181 1160.78 503.919 1163.99 490.313 1161.21C475.071 1158.97 461.486 1150.75 447.363 1140.89C445.189 1139.8 443.015 1138.7 440.302 1135.97C438.127 1134.87 435.414 1132.13 432.142 1133.21C429.968 1132.11 426.158 1131.55 424.522 1132.09C414.893 1086.31 395.945 1056.28 378.591 1036.6C359.063 1015.83 340.591 1003.78 318.287 996.613C338.934 1009.76 352.498 1023.43 368.754 1045.28C382.836 1066.03 399.071 1093.33 407.623 1135.84C399.981 1140.17 392.878 1146.13 387.411 1151.56C378.112 1161.87 370.988 1173.28 364.402 1186.33C362.207 1190.68 357.858 1188.48 356.222 1189.02C258.954 1130.37 235.452 1009.37 229.654 958.693ZM319.376 426.911C321.592 417.116 324.885 410.593 329.276 401.895C321.634 406.223 314.531 412.187 306.868 421.961C300.842 431.197 295.333 447.516 302.871 470.42C309.87 491.688 323.993 501.546 334.865 507.034C345.199 510.886 354.456 511.467 364.272 508.236C356.112 505.482 349.051 500.553 341.989 495.624C334.389 489.059 326.251 480.858 320.867 464.498C313.308 447.04 317.16 436.706 319.376 426.911Z" fill="#FFEECC"/>
<path d="M728.77 1472.57C726.596 1471.48 724.981 1466.57 722.806 1465.47C717.401 1454.56 717.443 1443.66 718.561 1436.04C718.561 1436.04 718.562 1436.04 718.023 1434.41C718.582 1430.6 720.218 1430.06 720.218 1430.06C722.393 1431.16 724.029 1430.62 727.839 1431.18C754.512 1435.09 777.396 1433 797.028 1426.54C818.296 1419.54 835.236 1404.9 842.94 1384.23C833.062 1403.8 815.045 1415.17 794.874 1419.99C774.703 1424.82 752.918 1424.74 729.517 1419.75C723.532 1418.09 717.547 1416.43 711.562 1414.77C705.577 1413.12 699.054 1409.83 692.531 1406.53C681.121 1399.41 669.172 1390.65 659.418 1377.54C641.526 1356.23 627.486 1324.59 620.549 1286.98C620.549 1286.98 620.57 1281.53 623.842 1280.45C627.653 1281.01 631.463 1281.57 636.371 1279.96C660.891 1277.33 678.369 1264.32 690.401 1251.3C701.895 1236.64 711.214 1220.88 716.185 1202.92C709.04 1219.78 697.546 1234.44 684.976 1245.83C672.405 1257.22 656.024 1268.05 634.238 1267.97C628.792 1267.95 623.346 1267.93 619.535 1267.37C613.55 1265.71 608.104 1265.69 602.119 1264.03C590.149 1260.72 579.277 1255.23 567.328 1246.47C548.318 1232.78 531.523 1209.3 523.468 1179.31C522.93 1177.67 522.412 1170.59 527.32 1168.98C528.956 1168.44 532.228 1167.36 533.864 1166.82C541.506 1162.5 547.512 1158.71 555.153 1154.38C561.159 1150.59 568.262 1144.62 572.094 1139.74C574.827 1137.02 577.561 1134.31 580.294 1131.6C583.028 1128.89 585.762 1126.17 588.495 1123.46C593.963 1118.03 597.255 1111.51 600.548 1104.99C601.646 1102.81 602.205 1099 603.303 1096.83C603.303 1096.83 603.862 1093.02 609.308 1093.04C660.542 1083.43 708.98 1092.88 738.304 1115.86C740.478 1116.96 742.653 1118.06 743.191 1119.69L748.617 1125.16C751.329 1127.9 756.217 1131.73 757.293 1135C760.545 1139.37 763.257 1142.1 764.334 1145.37C765.949 1150.28 768.662 1153.02 769.739 1156.29C776.759 1172.11 782.143 1188.47 786.989 1203.19C789.681 1211.37 791.834 1217.92 792.89 1226.64L791.254 1227.17C791.793 1228.81 793.967 1229.91 794.505 1231.54C797.155 1250.62 795.457 1267.49 787.236 1281.08C774.085 1301.73 749.524 1315.25 727.696 1326.06C751.698 1316.35 775.7 1306.63 793.758 1284.37C802.519 1272.42 805.294 1258.82 806.433 1245.75C821.074 1262.69 837.91 1275.28 856.403 1281.89C879.245 1290.69 899.933 1292.95 917.37 1290.84C935.345 1290.36 950.07 1285.51 962.619 1279.57C975.707 1275.26 987.719 1267.69 999.73 1260.11C987.18 1266.05 974.092 1270.36 960.466 1273.03C946.839 1275.7 933.213 1278.37 916.873 1278.31C900.534 1278.25 881.482 1275.45 862.45 1267.21C843.419 1258.96 823.332 1242 808.173 1217.98L806.537 1218.52C806.02 1211.44 803.866 1204.89 801.713 1198.35C798.503 1183.09 793.119 1166.73 785.561 1149.27C783.945 1144.36 780.694 1139.99 779.618 1136.72C781.295 1125.29 786.783 1114.41 792.81 1105.18C801.032 1091.59 815.238 1079.67 831.619 1068.84C848 1058 869.268 1051.01 894.347 1044.57C907.435 1040.26 922.159 1035.41 937.442 1026.76C948.356 1021.35 959.829 1012.14 970.764 1001.29C982.174 1008.41 1007.71 1025.39 1021.71 1067.93C1046.47 1143.18 1020.77 1169.77 1020.77 1169.77L1008.2 1181.16C1005.47 1183.88 1002.2 1184.95 999.462 1187.67C980.368 1195.76 964.008 1201.15 948.746 1204.36C937.853 1204.32 928.596 1203.73 919.898 1199.34C917.185 1196.61 912.837 1194.42 910.124 1191.68C909.585 1190.05 907.411 1188.95 906.873 1187.31C906.334 1185.68 905.796 1184.04 903.083 1181.31C896.063 1165.48 892.854 1150.22 897.803 1137.71C901.096 1131.19 907.102 1127.4 913.646 1125.25C916.918 1124.17 920.19 1123.09 924 1123.65C927.811 1124.21 931.083 1123.14 935.432 1125.33C932.719 1122.6 928.908 1122.04 925.098 1121.48C921.288 1120.92 917.477 1120.36 912.569 1121.98C903.85 1123.03 896.209 1127.36 891.818 1136.06C886.889 1143.12 884.673 1152.91 885.729 1161.63C886.785 1170.35 887.841 1179.07 891.072 1188.89C891.61 1190.52 892.687 1193.79 893.225 1195.43C894.302 1198.7 896.477 1199.8 897.554 1203.07C900.805 1207.44 905.692 1211.27 910.579 1215.1C921.99 1222.23 933.959 1225.54 948.124 1224.51C971.007 1222.41 997.184 1213.8 1022.84 1198.1C1045.12 1210.72 1076.04 1244.06 1104.58 1330.77C1123.42 1388.03 1137.34 1452.35 1069.66 1489.13C1011.26 1521.04 963.961 1498.53 945.489 1486.47C958.059 1475.08 964.645 1462.04 971.769 1450.63C973.964 1446.28 976.159 1441.93 978.355 1437.58C993.037 1443.63 1007.74 1444.23 1019.19 1440.46C1032.28 1436.15 1042.12 1427.48 1047.58 1422.05C1054.15 1414.45 1059.08 1407.39 1059.66 1398.13C1060.24 1388.88 1056.45 1382.87 1052.12 1375.23C1054.81 1383.41 1055.33 1390.49 1052.04 1397.01C1050.38 1403 1044.91 1408.42 1037.81 1414.39C1030.71 1420.35 1023.07 1424.68 1013.25 1427.91C1008.34 1429.53 1002.89 1429.5 997.448 1429.48C993.638 1428.92 989.828 1428.37 987.115 1425.63C984.94 1424.53 984.961 1419.09 984.961 1419.09C986.059 1416.91 986.618 1413.1 986.079 1411.47C989.994 1384.79 983.533 1365.16 974.339 1348.24C979.164 1368.41 980.178 1388.02 974.648 1409.79C971.335 1421.76 966.944 1430.46 958.723 1444.04C950.501 1457.63 940.664 1466.3 924.821 1478.77L919.354 1484.2C825.375 1562.27 737.426 1487.86 732.539 1484.03L728.77 1472.57Z" fill="#FFEECC"/>
<path d="M380.079 1217.43C375.772 1204.34 378.527 1196.19 380.722 1191.84C386.21 1180.96 393.334 1169.55 399.899 1161.95C404.827 1154.89 412.469 1150.56 419.013 1148.41C425.557 1146.26 430.445 1150.09 436.968 1153.38C451.63 1164.87 469.025 1173.66 488.077 1176.45C495.698 1177.57 502.78 1177.05 509.863 1176.54C518.974 1215.24 539.558 1244.73 565.091 1261.71C577.04 1270.47 589.548 1275.42 601.518 1278.74C601.518 1278.74 605.329 1279.29 606.385 1288.01C613.3 1331.07 629.515 1363.81 650.658 1389.49C662.586 1403.69 676.709 1413.55 689.756 1420.14C696.279 1423.43 702.802 1426.72 710.423 1427.84L712.598 1428.94C713.136 1430.58 712.039 1432.75 710.941 1434.92C707.648 1441.45 705.991 1447.43 705.432 1451.24C705.97 1452.88 705.97 1452.88 705.97 1452.88C705.39 1462.14 706.446 1470.85 711.851 1481.77C701.476 1488.81 691.66 1492.04 678.592 1490.9C633.944 1487.46 584.554 1442.07 561.775 1416.93C552.084 1387.48 539.1 1364.55 529.367 1346C519.634 1327.44 508.804 1311.06 499.05 1297.95C481.179 1271.2 464.364 1253.16 446.472 1231.85C459.456 1254.77 471.901 1276.06 488.136 1303.36C496.254 1317 504.91 1332.29 515.181 1352.48C520.586 1363.39 527.068 1377.58 533.011 1390.13C534.626 1395.04 530.815 1394.48 530.277 1392.84C430.15 1369.58 390.288 1253.96 380.079 1217.43Z" fill="#FFEECC"/>
<path fill-rule="evenodd" clip-rule="evenodd" d="M214.529 958.453L214.813 956.515C215.74 950.202 216.84 944.235 218.288 938.335L214.739 939.503L208.196 932.085C178.388 898.291 175.73 861.384 180.849 833.262C183.384 819.332 187.82 807.452 191.807 798.847C193.807 794.531 195.731 790.961 197.314 788.283C198.103 786.95 198.841 785.779 199.497 784.812L199.52 784.777C199.742 784.45 200.181 783.801 200.762 783.062L204.053 778.018L193.464 781.503L187.214 771.599C178.717 758.133 171.243 741.029 163.515 717.546C153.061 685.782 160.26 655.819 169.204 634.775C173.717 624.155 178.826 615.433 182.814 609.346C184.815 606.292 186.553 603.872 187.824 602.176C188.46 601.328 188.98 600.658 189.359 600.179C189.371 600.165 189.382 600.15 189.394 600.136L186.524 594.203C173.81 567.916 171.378 542.46 179.608 519.422L179.642 519.325L179.678 519.229C186.681 500.443 199.39 486.762 209.994 477.918C215.358 473.444 220.378 470.044 224.232 467.693C226.161 466.516 227.835 465.579 229.158 464.885C229.55 464.678 230.153 464.363 230.848 464.033C227.237 438.556 226.959 408.063 237.663 380.334C248.674 351.806 270.916 327.342 309.616 314.606L310.405 314.346L311.218 314.175L314.305 328.854C245.592 351.467 238.819 413.531 245.714 462.032L247.308 472.387L238.031 477.253C236.395 477.791 205.29 493.467 193.733 524.468C188.466 539.213 188.385 555.708 194.321 573.682C195.83 578.251 197.727 582.916 200.028 587.672C204.199 585.309 208.126 583.432 211.852 581.953C214.178 581.03 216.426 580.261 218.607 579.626C225.024 577.757 230.858 577.044 236.386 576.939C236.992 576.927 237.595 576.923 238.194 576.925C252.898 577.526 262.693 579.741 271.929 585.768C261.036 585.726 252.317 586.782 240.327 588.915C239.606 589.153 238.878 589.37 238.146 589.574C237.988 589.618 237.83 589.662 237.672 589.704C236.344 590.064 235.004 590.385 233.663 590.705C230.259 591.52 226.855 592.334 223.66 593.785C222.648 594.245 221.658 594.768 220.695 595.376L215.787 596.991C211.792 598.306 208.511 601.787 205.955 604.5C205.37 605.121 204.823 605.702 204.314 606.207L201.58 608.919C201.58 608.919 159.996 658.868 177.763 712.857C185.3 735.761 192.32 751.582 199.9 763.594C201.536 763.055 202.628 762.242 203.654 761.225C204.129 760.753 204.591 760.237 205.085 759.684L205.087 759.681C205.658 759.043 206.272 758.356 207.003 757.63C208.519 756.358 210.059 755.159 211.623 754.036C217.392 749.893 223.493 746.763 229.928 744.646C247.924 738.723 263.704 742.596 277.848 747.008C300.032 755.056 317.04 766.956 332.119 777.505C336.635 780.665 340.977 783.703 345.234 786.481C354.47 792.507 363.168 796.897 372.425 797.477C380.046 798.596 389.862 795.365 398.042 792.673C400.227 791.048 402.137 789.966 404.047 788.884C405.958 787.802 407.868 786.72 410.053 785.094C411.42 783.738 413.196 782.247 414.972 780.756C416.747 779.265 418.523 777.774 419.89 776.417C420.756 775.773 421.664 775.044 422.599 774.263C424.024 773.073 425.508 771.763 426.993 770.453C429.452 768.284 431.912 766.115 434.097 764.489C430.352 760.977 426.793 757.403 423.405 753.797C412.55 742.248 403.443 730.373 395.6 719.136C383.133 703.293 375.575 685.836 369.652 667.84C365.905 650.941 365.429 632.965 369.302 617.185C372.279 605.052 378.147 595.184 385.915 587.081C388.25 584.647 390.756 582.371 393.408 580.242C393.601 580.071 393.795 579.903 393.991 579.736C403.758 571.397 416.578 567.248 428.861 566.761L445.201 566.823C445.153 566.678 445.105 566.532 445.057 566.387C444.365 564.279 443.686 562.167 443.025 560.047C442.173 557.317 441.351 554.572 440.571 551.805C434.943 531.845 431.481 510.705 434.62 485.085C434.695 484.341 434.775 483.592 434.862 482.837C434.887 482.611 434.914 482.384 434.941 482.156C435.003 481.632 435.068 481.106 435.137 480.577C437.181 464.766 442.097 446.9 456.076 429.068C471.401 409.519 494.885 392.724 527.046 385.767C535.764 384.711 544.483 383.655 551.565 383.138C553.498 383.259 555.336 383.332 557.094 383.402C563.755 383.667 569.267 383.887 574.428 386.492C576.975 387.778 579.338 388.503 581.296 389.103C582.68 389.528 583.861 389.89 584.762 390.345L593.459 394.735C599.444 396.392 604.331 400.223 609.218 404.054C623.809 415.492 634.154 426.307 642.975 435.604C643.183 435.823 643.39 436.041 643.596 436.258L643.597 436.259L643.603 436.266C646.229 439.034 648.723 441.663 651.16 444.129C651.289 444.26 651.418 444.391 651.547 444.521C662.344 455.401 672.608 464.661 685.032 469.629C685.094 469.654 685.156 469.679 685.219 469.703C698.265 476.289 710.794 475.792 724.421 473.121C711.333 477.428 696.608 482.274 682.464 477.862C682.324 477.819 682.183 477.774 682.043 477.73C681.791 477.65 681.54 477.569 681.29 477.487C667.568 472.994 654.389 464.941 642.248 454.833C642.051 454.669 641.853 454.503 641.655 454.337C638.656 451.823 635.594 449.126 632.438 446.304C631.003 445.021 629.548 443.712 628.07 442.383C619.447 434.624 610.065 426.184 599.361 418.178C583.063 407.223 561.319 396.246 532.968 403.763C505.715 409.105 484.965 423.187 471.835 438.387C459.346 452.845 453.752 468.315 449.903 483.371C449.705 484.143 449.512 484.915 449.323 485.686C449.267 485.974 449.21 486.261 449.155 486.548C449.135 486.651 449.115 486.755 449.095 486.858C443.678 514.953 443.69 536.84 447.452 559.93C447.766 561.859 448.107 563.796 448.473 565.746C451.465 566.575 454.323 566.994 457.181 567.413C458.584 567.619 459.987 567.825 461.405 568.08C462.877 568.343 464.365 568.659 465.889 569.081C466.078 569.138 466.267 569.195 466.456 569.253C486.385 575.335 505.735 585.166 521.326 599.793C504.49 587.202 484.361 581.134 464.77 576.701C464.581 576.659 464.391 576.617 464.201 576.575C464.08 576.549 463.958 576.523 463.836 576.497C463.778 576.485 463.721 576.473 463.664 576.461C457.989 575.281 451.972 574.813 445.924 574.953C445.672 574.959 445.421 574.966 445.169 574.974C441.802 575.08 438.429 575.374 435.103 575.837C434.644 575.901 434.185 575.968 433.728 576.039C432.257 576.265 430.764 576.535 429.262 576.856C429.115 576.887 428.969 576.919 428.822 576.951C419.882 578.914 410.643 582.67 403.72 589.54C403.347 589.91 402.976 590.288 402.607 590.671C402.458 590.826 402.31 590.983 402.161 591.14C400.471 592.934 398.835 594.866 397.28 596.908C391.902 603.971 387.487 612.367 385.081 621.058C382.306 634.664 383.342 648.829 388.187 663.553C397.793 692.741 420.235 723.048 450.212 754.454C450.479 754.734 450.747 755.014 451.016 755.295C464.663 747.177 479.387 742.332 494.091 742.933C494.373 742.961 494.654 742.991 494.935 743.021C495.324 743.064 495.712 743.109 496.099 743.156C512.137 745.114 526.171 750.941 538.697 757.264C539.053 757.462 539.407 757.66 539.761 757.86C565.893 772.612 586.739 792.611 604.923 815.25C584.857 792.843 563.133 776.42 537.04 763.249C536.677 763.066 536.314 762.885 535.95 762.708C535.876 762.672 535.803 762.636 535.73 762.601C523.083 756.48 509.897 753.868 495.685 753.287C495.011 753.336 494.336 753.394 493.66 753.461C493.449 753.482 493.237 753.504 493.025 753.526C481.141 754.798 468.985 758.848 458.14 767.271C456.814 768.3 455.509 769.395 454.225 770.557C453.988 770.793 453.747 771.03 453.503 771.269C451.974 772.762 450.33 774.299 448.616 775.902L448.61 775.907C444.315 779.923 439.577 784.353 435.09 789.547C427.987 795.511 419.247 802.014 409.97 806.88C400.692 811.746 389.24 815.515 376.173 814.376C363.105 813.236 352.233 807.749 341.361 802.26C336.843 799.383 332.377 796.401 327.901 793.411L327.881 793.398L327.878 793.396L327.875 793.394C311.905 782.729 295.799 771.973 276.688 765.521C273.761 765.092 270.996 764.341 268.298 763.609L268.297 763.609C263.973 762.436 259.823 761.309 255.462 761.628C232.578 763.719 218.889 782.73 218.889 782.73C213.898 779.135 210.953 777.014 209.217 775.762C209.216 775.762 209.216 775.763 209.215 775.763L218.889 782.73L212.863 791.966C210.331 794.478 173.483 853.382 209.403 908.954C209.716 909.438 210.034 909.921 210.357 910.404C211.934 912.757 213.644 915.104 215.494 917.439C216.371 918.546 217.28 919.651 218.221 920.752C218.623 921.223 219.031 921.693 219.446 922.162C220.072 921.956 220.38 921.589 220.521 921.214C220.748 920.61 220.543 919.988 220.543 919.988C222.602 915.908 224.867 911.972 227.321 908.211C239.254 889.925 255.659 875.794 274.657 869.542C282.433 866.303 290.588 864.215 298.72 863.219C312.265 861.559 325.745 862.93 337.301 867.059C337.479 867.099 337.657 867.14 337.835 867.181C338.22 867.271 338.603 867.364 338.984 867.459C357.577 872.113 371.673 883.096 383.732 893.124C383.835 893.21 383.938 893.295 384.04 893.38C407.884 916.315 424.665 939.766 437.641 962.66C437.659 962.692 437.678 962.724 437.696 962.757C451.218 987.318 462.028 1009.15 470.642 1035.32C458.756 1010.22 446.31 988.933 431.69 966.546C431.628 966.452 431.567 966.357 431.505 966.263C431.489 966.239 431.474 966.215 431.458 966.191C416.898 943.928 400.685 922.21 376.378 903.155C376.28 903.083 376.181 903.011 376.083 902.939C375.842 902.762 375.6 902.585 375.357 902.408C363.627 893.841 349.859 884.428 334.526 880.664C334.432 880.633 334.338 880.601 334.244 880.57C333.718 880.395 333.188 880.227 332.654 880.066C322.733 877.062 311.705 876.399 300.739 878.083C294.095 879.103 287.475 880.984 281.138 883.728C263.68 891.286 246.74 905.927 237.4 927.133C233.548 937.467 231.332 947.262 229.654 958.693C235.452 1009.37 258.954 1130.37 356.222 1189.02C356.682 1188.87 357.355 1188.93 358.134 1189.01C360.131 1189.2 362.824 1189.46 364.402 1186.33C370.988 1173.28 378.112 1161.87 387.411 1151.56C392.878 1146.13 399.981 1140.17 407.623 1135.84C401.171 1103.77 390.346 1080.35 379.371 1061.88C375.881 1056 372.375 1050.63 368.991 1045.63C368.912 1045.51 368.833 1045.4 368.754 1045.28C352.498 1023.43 338.934 1009.76 318.287 996.613C340.591 1003.78 359.063 1015.83 378.591 1036.6C378.831 1036.88 379.071 1037.15 379.311 1037.42C379.437 1037.57 379.563 1037.71 379.689 1037.86C383.765 1042.57 387.916 1047.85 392.001 1053.77C403.079 1069.83 413.677 1090.61 421.008 1117.5C422.283 1122.18 423.459 1127.04 424.522 1132.09C424.734 1132.02 424.984 1131.97 425.261 1131.94C427.12 1131.71 430.25 1132.26 432.142 1133.21C434.642 1132.39 436.815 1133.79 438.671 1134.99C439.245 1135.36 439.788 1135.71 440.302 1135.97C443.014 1138.7 445.189 1139.8 447.363 1140.89C461.486 1150.75 475.071 1158.97 490.313 1161.21C492.589 1161.68 494.911 1161.97 497.26 1162.12C501.06 1162.35 504.928 1162.19 508.777 1161.69C509.32 1161.62 509.861 1161.54 510.402 1161.46C511.415 1161.3 512.425 1161.12 513.432 1160.92C516.936 1160.22 520.395 1159.27 523.742 1158.1C525.186 1157.6 526.61 1157.06 528.007 1156.48C528.731 1156.18 529.448 1155.88 530.157 1155.56C530.686 1155.32 531.211 1155.08 531.731 1154.83C538.019 1152.76 543.809 1149.18 549.581 1145.55C549.721 1145.46 549.861 1145.37 550.001 1145.28C550.096 1145.22 550.191 1145.16 550.286 1145.1C555.779 1141.64 559.903 1138.62 564.749 1133.98C565.024 1133.72 565.301 1133.45 565.581 1133.17C565.762 1133 565.945 1132.82 566.129 1132.63C567.765 1132.1 570.499 1129.38 573.232 1126.67C573.617 1126.29 573.968 1125.92 574.297 1125.56C575.138 1124.63 575.826 1123.75 576.515 1122.87C577.473 1121.65 578.43 1120.43 579.797 1119.07C580.424 1118.27 581.037 1117.43 581.64 1116.55C582.879 1114.76 584.077 1112.84 585.275 1110.92C587.056 1108.07 588.837 1105.22 590.752 1102.77C591.155 1102.06 591.548 1101.35 591.931 1100.64C592.751 1099.12 593.529 1097.59 594.266 1096.07C594.352 1095.89 594.437 1095.71 594.521 1095.54C594.926 1094.69 595.318 1093.84 595.699 1092.99C597.694 1088.54 599.358 1084.07 600.738 1079.6C601.111 1078.39 601.464 1077.18 601.797 1075.97C605.519 1062.44 606.753 1048.95 606.803 1035.84C606.787 1035.62 606.77 1035.39 606.753 1035.17C606.738 1034.98 606.723 1034.78 606.708 1034.59C606.322 1029.72 605.763 1024.91 605.031 1020.15C604.975 1019.78 604.918 1019.42 604.861 1019.06C604.458 1016.54 604.007 1014.03 603.507 1011.54C601.949 1003.78 599.917 996.172 597.411 988.72C596.386 985.67 595.281 982.646 594.097 979.648C593.737 978.738 593.37 977.829 592.996 976.924C592.776 976.392 592.554 975.861 592.329 975.33C592.254 975.103 592.179 974.876 592.103 974.649C591.996 974.331 591.888 974.014 591.779 973.698C591.17 971.931 590.526 970.191 589.849 968.476C583.385 952.103 573.926 938.079 563.606 925.703C563.441 925.505 563.275 925.307 563.11 925.11C551.313 911.06 536.843 899.664 520.22 892.503C520.034 892.423 519.849 892.344 519.663 892.265C502.806 885.12 483.754 882.324 465.22 886.61C484.743 880.185 503.161 881.297 521.553 887.807C521.655 887.844 521.757 887.88 521.858 887.916C540.351 894.523 556.649 905.478 570.213 919.146C583.777 932.815 595.146 950.831 603.243 969.925L604.32 973.197C605.986 975.838 608.388 978.586 610.558 980.838C613.323 983.707 615.709 985.768 615.709 985.768C627.099 998.338 643.396 1009.29 658.638 1011.53C674.418 1015.4 689.68 1012.19 702.23 1006.25C706.945 1004.02 711.584 1001.55 716.089 998.974C722.901 995.074 729.406 990.909 735.402 986.879C735.995 986.48 736.584 986.083 737.167 985.687L737.198 985.666L737.2 985.665L737.201 985.664C746.88 979.096 756.557 972.528 764.905 966.398C765.496 965.965 766.08 965.533 766.657 965.104C784.239 954.009 801.82 942.915 819.383 936.882C819.619 936.801 819.856 936.721 820.093 936.641C820.291 936.575 820.489 936.509 820.687 936.444C828.867 933.752 839.221 932.157 848.478 932.737C848.671 932.749 848.864 932.762 849.057 932.775C849.093 932.778 849.129 932.78 849.164 932.783C858.218 933.428 867.745 935.641 876.228 939.923C868.069 937.169 858.274 934.953 849.555 936.009C849.121 936.076 848.689 936.142 848.261 936.207C847.894 936.263 847.529 936.319 847.166 936.374C837.849 937.788 829.887 938.997 822.84 942.987C807.141 949.784 792.749 960.55 777.298 972.107C776.36 972.808 775.419 973.513 774.473 974.219C774.251 974.385 774.03 974.55 773.808 974.715C773.562 974.899 773.316 975.083 773.069 975.266C772.734 975.516 772.398 975.767 772.061 976.017C768.698 978.52 765.172 981.345 761.514 984.274L761.512 984.276L761.508 984.28L761.506 984.281C756.201 988.531 750.621 993.001 744.863 997.029C744.281 997.437 743.696 997.839 743.11 998.237C740.493 1000.01 737.911 1001.89 735.258 1003.82C731.647 1006.45 727.905 1009.18 723.768 1011.86C718.895 1015.03 713.475 1018.14 707.076 1020.98C692.89 1027.46 674.356 1031.74 654.765 1027.31C646.68 1026.12 639.212 1023.71 632.118 1020.16C627.565 1017.88 623.165 1015.13 618.855 1011.92C617.221 1010.71 615.601 1009.43 613.99 1008.09C616.262 1015 617.368 1022.28 618.293 1029.63C618.464 1030.99 618.629 1032.35 618.794 1033.71C618.824 1034.12 618.852 1034.54 618.876 1034.96C618.895 1035.27 618.912 1035.58 618.927 1035.89C619.364 1044.73 618.577 1053.97 616.957 1063.49C616.199 1067.93 615.26 1072.44 614.179 1076.99C614.028 1077.63 613.875 1078.26 613.719 1078.9C614.69 1078.79 615.658 1078.69 616.625 1078.59C620.934 1078.16 625.21 1077.8 629.455 1077.51C648.328 1076.25 666.597 1076.54 684.523 1079.17C707.264 1083.21 728.194 1090.84 744.862 1102.87C745.635 1103.43 746.399 1104 747.154 1104.57C748.041 1105.25 748.915 1105.94 749.776 1106.65C750.863 1107.2 752.085 1108.16 753.307 1109.11C753.409 1109.19 753.511 1109.27 753.612 1109.35C754.178 1109.79 754.741 1110.23 755.288 1110.62C755.318 1110.64 755.347 1110.66 755.377 1110.68C755.881 1111.03 756.372 1111.34 756.838 1111.58C757.925 1112.13 758.738 1113.22 759.55 1114.31C760.363 1115.4 761.176 1116.5 762.263 1117.04L772.017 1130.15C773.442 1132.07 774.45 1133.77 775.361 1135.32C775.532 1135.6 775.699 1135.89 775.866 1136.17C776.172 1136.68 776.474 1137.17 776.785 1137.65C777.222 1138.32 777.677 1138.96 778.186 1139.57C778.459 1139.9 778.748 1140.22 779.058 1140.53C779.136 1139.28 779.243 1138.04 779.38 1136.8C779.384 1136.76 779.388 1136.72 779.393 1136.68C779.923 1131.93 780.882 1127.2 782.253 1122.54C782.513 1121.65 782.787 1120.77 783.077 1119.89C784.895 1114.36 787.294 1108.92 790.245 1103.63C790.262 1103.6 790.278 1103.57 790.295 1103.54C798.164 1089.46 809.941 1076.45 825.095 1065.54C826.06 1064.82 827.039 1064.11 828.031 1063.41C844.999 1051.36 865.876 1041.34 891.116 1034.75L891.12 1034.75C891.337 1034.68 891.554 1034.61 891.771 1034.53C904.641 1030.3 917.52 1026 930.939 1018.02C931.295 1017.75 931.662 1017.49 932.037 1017.21C932.203 1017.09 932.37 1016.97 932.538 1016.85C934.34 1015.57 936.326 1014.22 938.312 1012.87C940.906 1011.11 943.499 1009.35 945.684 1007.73C950.054 1004.47 955.521 999.049 960.45 991.988L965.379 984.926C965.769 982.269 967.216 980.146 968.428 978.367C968.955 977.594 969.437 976.887 969.769 976.228C986.793 939.802 965.174 896.147 948.379 872.663C937.01 854.646 913.651 838.761 888.635 828.862L871.778 821.717C859.809 818.404 850.013 816.187 840.756 815.607C825.514 813.37 811.35 814.406 797.723 817.077C796.333 817.338 794.958 817.615 793.599 817.907C791.559 818.346 789.554 818.819 787.583 819.324C786.036 819.721 784.51 820.137 783.004 820.572C782.992 820.576 782.98 820.579 782.967 820.583C779.675 821.535 776.483 822.575 773.387 823.689C771.565 824.345 769.776 825.026 768.02 825.73C755.912 830.586 745.333 836.537 735.989 842.682C735.837 842.782 735.685 842.882 735.534 842.982C717.82 854.16 705.891 866.939 695.614 879.234C695.513 879.355 695.411 879.477 695.31 879.598C695.236 879.687 695.162 879.776 695.089 879.864C684.692 892.352 676.471 905.936 667.151 921.695C667.362 921.199 667.571 920.705 667.78 920.212L668.044 919.588C674.81 903.609 680.757 889.564 690.201 876.033C690.233 875.98 690.264 875.927 690.295 875.874C699.598 860.175 711.073 845.568 728.493 832.607C728.535 832.579 728.576 832.551 728.618 832.522C728.692 832.472 728.765 832.422 728.839 832.373C739.099 825.41 749.383 818.46 761.793 812.582C761.755 812.426 761.717 812.27 761.679 812.114C754.828 784.01 746.73 762.026 738.05 744.849C734.112 737.058 730.055 730.255 725.94 724.319C725.66 723.915 725.379 723.515 725.099 723.119C715.883 710.733 706.657 701.082 696.647 693.776C692.964 691.088 689.176 688.717 685.243 686.645C684.78 686.401 684.315 686.161 683.847 685.925C683.845 685.929 683.843 685.933 683.841 685.938C683.293 687.017 682.613 687.693 681.932 688.368C681.248 689.047 680.565 689.725 680.016 690.812C678.368 694.078 676.416 696.421 674.388 698.534C673.715 699.235 673.035 699.911 672.354 700.586L664.153 708.725C658.686 714.151 653.218 719.576 646.674 721.73C640.668 725.52 634.663 729.309 627.581 729.827C624.721 730.561 621.905 731.14 619.134 731.578C597.908 734.937 579.347 730.064 564.517 723.86C564.304 723.771 564.092 723.682 563.88 723.592C563.823 723.568 563.765 723.544 563.708 723.519C547.108 716.457 533.168 706.769 522.92 697.59C522.809 697.49 522.698 697.391 522.587 697.291C522.54 697.243 522.492 697.195 522.444 697.147C519.736 694.421 517.062 691.795 514.43 689.211C506.567 681.491 499.082 674.143 492.208 665.585C504.157 674.345 516.106 683.105 527.516 690.229C527.805 690.441 528.094 690.652 528.385 690.861C528.516 690.956 528.648 691.051 528.78 691.145C540.386 699.451 553.085 705.769 568.83 711.084C568.929 711.125 569.029 711.166 569.13 711.207C582.191 716.543 599.076 720.562 616.404 716.821C618.51 716.367 620.622 715.798 622.735 715.102L622.738 715.101C627.645 713.486 632.552 711.872 636.921 708.621C641.557 707.095 644.832 704.197 647.901 701.481C649.164 700.364 650.392 699.277 651.666 698.329C653.032 696.973 653.989 695.752 654.947 694.53L654.948 694.529L654.949 694.528L654.949 694.527C655.907 693.306 656.864 692.085 658.231 690.729C659.597 689.373 660.555 688.151 661.512 686.93L661.514 686.928C662.471 685.706 663.429 684.485 664.795 683.129C668.627 678.241 671.92 671.718 675.212 665.195C686.209 638.005 677.595 611.828 667.862 593.273C661.329 580.817 653.806 570.321 645.627 561.127C641.84 556.871 637.913 552.894 633.878 549.131C633.778 549.038 633.678 548.945 633.578 548.852C633.444 548.727 633.31 548.603 633.176 548.479C622.103 536.258 610.501 527.638 597.876 521.117C597.515 520.93 597.153 520.746 596.791 520.563C585.38 513.439 572.334 506.853 557.071 510.062C571.795 505.217 585.939 509.628 600.084 514.039C600.301 514.107 600.518 514.176 600.735 514.245C614.645 518.704 628.038 526.849 642.474 538.166C642.517 538.202 642.56 538.237 642.603 538.273C642.919 538.537 643.237 538.803 643.558 539.072C647.621 542.488 651.999 546.359 656.477 550.758C665.559 559.679 675.049 570.768 683.146 584.617L683.146 584.618C688.551 595.531 693.955 606.445 697.165 621.707C700.374 636.969 700.312 653.309 693.167 670.166C693.031 670.658 692.88 671.143 692.716 671.621C692.522 672.188 692.31 672.746 692.083 673.294C690.917 676.117 689.374 678.687 687.94 681.076L687.939 681.077C687.037 682.579 686.179 684.01 685.484 685.386C690.366 686.321 695.289 687.813 700.169 689.848C712.554 695.015 724.661 703.688 735.116 715.666C735.18 715.739 735.244 715.812 735.308 715.886C735.363 715.95 735.419 716.014 735.474 716.078C740.649 722.065 745.955 729.142 751.129 737.474C760.592 752.718 769.61 772.167 776.559 796.844C776.559 796.844 777.43 804.034 781.669 805.371C782.098 805.506 782.561 805.581 783.061 805.583L796.15 801.276C809.776 798.605 826.115 798.667 842.455 798.73C851.037 799.478 859.852 800.932 869.209 802.475L869.211 802.476L869.213 802.476L869.23 802.479L869.24 802.481C874.121 803.286 879.149 804.115 884.37 804.881C890.396 795.645 914.522 753.254 894.105 680.193C872.093 596.777 832.415 575.384 832.415 575.384L825.892 572.091C825.892 572.091 812.854 564.518 799.564 560.899C797.267 560.274 794.963 559.767 792.717 559.437C791.262 559.223 790.045 558.931 789.006 558.682C787.524 558.326 786.403 558.057 785.465 558.226C785.339 558.249 785.216 558.279 785.096 558.319C785.001 558.323 784.906 558.326 784.811 558.33C772.435 558.832 763.766 559.913 752.935 565.276C758.735 556.387 767.049 550.029 781.273 546.703C781.828 546.574 782.391 546.449 782.963 546.328C783.501 546.245 784.051 546.169 784.612 546.098C787.69 545.711 791.102 545.516 794.749 545.589C797.177 545.637 799.708 545.804 802.313 546.112C803.912 546.301 805.54 546.543 807.188 546.843C812.23 547.762 817.468 549.226 822.704 551.382C822.281 546.919 821.725 541.317 820.97 534.82C815.188 485.007 797.772 382.592 739.645 337.561L736.932 334.827C725.521 327.703 712.475 321.117 700.505 317.804C687.999 312.855 676.569 311.177 665.139 309.5L665.135 309.499C645.501 306.618 629.868 307.768 614.801 309.488C613.17 309.674 611.546 309.867 609.923 310.062C609.081 310.164 608.24 310.266 607.398 310.368C607.167 310.393 606.936 310.419 606.706 310.445C604.815 310.661 602.953 310.896 601.119 311.149C571.777 315.205 549.48 324.029 524.681 333.843L522.885 334.554C546.907 319.395 569.832 306.411 603.091 297.279C603.269 296.751 603.445 296.226 603.619 295.704C607.433 284.252 610.143 274.366 611.81 265.641C613.543 256.571 614.147 248.755 613.689 241.739C613.678 241.566 613.666 241.393 613.654 241.221C613.647 241.126 613.64 241.032 613.633 240.937C612.59 226.896 610.424 214.989 601.27 203.592C612.681 210.717 621.896 222.189 625.644 239.088C625.708 239.501 625.769 239.916 625.827 240.331C627.12 249.498 627.174 259.017 626.742 267.395C626.704 268.137 626.662 268.869 626.617 269.592C626.609 271.565 626.528 274.039 626.297 276.78C625.89 281.603 625.018 287.252 623.261 292.455C628.241 291.569 633.595 290.873 639.363 290.483C647.484 289.934 656.426 289.992 666.295 290.985C679.362 292.125 690.793 293.802 704.937 298.213C709.044 300.286 713.515 302.239 718.235 304.301C718.98 304.626 719.732 304.955 720.489 305.286C725.094 307.304 729.912 309.456 734.841 311.944C735.483 306.555 735.981 301.236 736.343 295.99C741.677 218.567 717.33 157.197 691.439 124.962C675.721 104.75 657.787 94.333 640.91 92.6345C508.041 85.5907 464.488 223.221 462.831 229.206L460.076 237.365L455.603 267.849L453.863 295.62C447.899 288.516 445.206 280.336 441.976 270.52C441.604 269.389 441.264 268.193 440.958 266.931C440.877 266.602 440.799 266.267 440.724 265.929C440.299 264.03 439.945 261.992 439.662 259.813C439.071 255.271 438.786 250.122 438.808 244.365C433.412 245.988 428.445 247.752 423.872 249.625C373.912 270.091 370.999 303.704 370.467 312.185C384.83 317.539 394.713 325.243 402.317 332.747C405.241 335.632 407.829 338.488 410.205 341.169C410.541 341.548 410.873 341.924 411.201 342.296C420.955 355.405 424.724 366.858 425.22 379.387C419.816 368.473 411.677 360.272 401.364 350.974C401.09 350.726 400.813 350.48 400.531 350.235C398.215 348.219 395.656 346.28 392.777 344.425C382.856 338.031 369.15 332.629 348.619 328.441C329.567 325.645 314.305 328.854 314.305 328.854C311.218 314.175 311.221 314.175 311.224 314.174L311.245 314.17L311.278 314.163L311.362 314.146C311.425 314.133 311.503 314.117 311.595 314.099C311.781 314.063 312.025 314.016 312.325 313.962C312.926 313.853 313.751 313.713 314.779 313.56C316.833 313.254 319.71 312.896 323.224 312.639C330.216 312.128 339.929 312.005 350.797 313.6L351.209 313.66L351.617 313.744C352.862 313.997 354.087 314.256 355.292 314.52L355.497 311.247C355.857 305.501 357.15 290.292 368.268 273.71C379.48 256.988 399.559 240.511 434.486 230.001L448.116 225.9L448.512 224.725C450.29 218.685 462.478 181.893 491 146.605C520.74 109.811 569.088 73.8059 641.704 77.6555L642.058 77.6743L642.412 77.7099C664.42 79.9246 685.737 93.2334 703.208 115.662C733.525 153.469 760.297 225.155 749.735 313.72L748.382 325.07L749.624 326.323C785.872 354.853 806.617 402.14 818.862 444.927C831.347 488.554 835.783 530.402 837.637 549.967L838.756 561.782L839.356 562.085L839.534 562.181L838.904 563.349L838.906 563.363C839.544 562.186 839.548 562.188 839.553 562.191L839.572 562.201L839.613 562.224C839.642 562.24 839.674 562.257 839.707 562.275C839.775 562.313 839.852 562.356 839.938 562.405C840.111 562.503 840.321 562.625 840.567 562.772C841.058 563.066 841.691 563.46 842.453 563.965C843.975 564.974 846.007 566.425 848.43 568.398C853.282 572.349 859.681 578.375 866.7 587.114C880.761 604.62 897.077 632.718 908.581 676.263C930.372 754.364 904.72 801.142 896.932 813.078L895.407 815.415C921.31 825.879 947.211 842.987 960.824 864.279C969.828 876.934 980.226 895.094 986.154 915.386C992.126 935.828 993.955 959.904 983.359 982.579L983.262 982.785L983.16 982.988C982.413 984.468 981.547 985.747 981.132 986.361L981.121 986.376C980.961 986.613 980.83 986.806 980.718 986.97C980.436 987.384 980.282 987.611 980.104 987.895L979.896 989.309C993.291 997.783 1020.87 1017.41 1035.95 1063.24C1048.99 1102.84 1049.18 1131.01 1045.21 1150.12C1043.24 1159.65 1040.27 1166.73 1037.54 1171.69C1036.18 1174.15 1034.89 1176.07 1033.84 1177.47C1033.31 1178.18 1032.84 1178.75 1032.46 1179.2C1032.26 1179.43 1032.09 1179.63 1031.94 1179.79C1031.86 1179.87 1031.79 1179.95 1031.73 1180.02C1031.7 1180.05 1031.67 1180.08 1031.64 1180.11L1031.6 1180.16L1031.58 1180.18C1031.57 1180.19 1031.56 1180.2 1020.77 1169.77C1020.77 1169.77 1046.47 1143.18 1021.71 1067.93C1008.11 1026.62 983.639 1009.41 971.787 1001.93C971.434 1001.71 971.093 1001.49 970.763 1001.29C964.838 1007.17 958.755 1012.57 952.688 1017.14C947.559 1021.01 942.442 1024.28 937.442 1026.76C937.116 1026.94 936.79 1027.12 936.464 1027.31C921.532 1035.62 907.158 1040.35 894.351 1044.56L894.347 1044.57C894.138 1044.62 893.93 1044.67 893.722 1044.73C868.915 1051.12 847.863 1058.09 831.619 1068.84C830.706 1069.44 829.799 1070.05 828.9 1070.66C828.872 1070.68 828.844 1070.69 828.817 1070.71C813.624 1081.04 800.559 1092.37 792.81 1105.18C789.583 1110.12 786.51 1115.54 784.094 1121.26C781.998 1126.22 780.397 1131.41 779.617 1136.72C779.852 1137.43 780.19 1138.2 780.591 1139.01C780.858 1139.54 781.152 1140.1 781.463 1140.68C781.65 1141.03 781.844 1141.38 782.041 1141.74C783.286 1144.03 784.671 1146.57 785.56 1149.27C788.106 1155.15 790.405 1160.9 792.458 1166.53C796.499 1177.62 799.584 1188.23 801.712 1198.35C802.303 1200.14 802.894 1201.94 803.45 1203.74C804.669 1207.69 805.726 1211.7 806.268 1215.87C806.381 1216.75 806.472 1217.63 806.537 1218.52L808.173 1217.98C808.257 1218.11 808.342 1218.25 808.426 1218.38C823.555 1242.19 843.525 1259.01 862.45 1267.21C869.925 1270.44 877.403 1272.84 884.719 1274.56C895.642 1277.13 906.204 1278.2 915.851 1278.3C916.193 1278.3 916.534 1278.31 916.873 1278.31C916.928 1278.31 916.983 1278.31 917.038 1278.31C932.959 1278.35 946.307 1275.8 959.6 1273.2C959.888 1273.14 960.176 1273.08 960.464 1273.03C974.092 1270.36 987.18 1266.05 999.73 1260.11C987.718 1267.69 975.707 1275.26 962.619 1279.57C962.354 1279.7 962.088 1279.82 961.822 1279.95C949.446 1285.72 934.966 1290.37 917.37 1290.84C917.188 1290.86 917.007 1290.88 916.825 1290.9C906.186 1292.13 894.351 1291.73 881.565 1289.23C873.532 1287.66 865.124 1285.25 856.403 1281.89C843.296 1277.21 831.021 1269.52 819.77 1259.4C816.637 1256.59 813.584 1253.58 810.614 1250.4C809.201 1248.89 807.807 1247.34 806.433 1245.75C805.895 1251.92 804.992 1258.21 803.266 1264.39C801.337 1271.3 798.381 1278.07 793.758 1284.37C793.639 1284.52 793.52 1284.67 793.4 1284.81C793.365 1284.85 793.33 1284.9 793.295 1284.94C775.29 1306.8 751.493 1316.43 727.696 1326.06C749.523 1315.25 774.085 1301.73 787.235 1281.08C787.444 1280.74 787.648 1280.39 787.848 1280.04C787.909 1279.93 787.969 1279.83 788.028 1279.72C792.073 1272.56 794.38 1264.52 795.253 1255.75C795.266 1255.63 795.278 1255.51 795.29 1255.38C795.613 1251.96 795.721 1248.44 795.63 1244.81C795.588 1243.13 795.503 1241.43 795.377 1239.7C795.337 1239.15 795.292 1238.59 795.243 1238.03C795.056 1235.9 794.809 1233.73 794.505 1231.54C794.503 1231.54 794.502 1231.54 794.501 1231.53C794.229 1230.72 793.554 1230.04 792.879 1229.36C792.857 1229.34 792.834 1229.31 792.811 1229.29C792.617 1229.09 792.424 1228.9 792.241 1228.7C791.809 1228.22 791.437 1227.73 791.254 1227.17L792.89 1226.64C792.588 1224.14 792.196 1221.83 791.728 1219.6C791.643 1219.2 791.555 1218.8 791.465 1218.4C790.317 1213.31 788.771 1208.61 786.988 1203.19C782.143 1188.47 776.759 1172.11 769.739 1156.29C769.255 1154.82 768.44 1153.45 767.543 1151.96C766.643 1150.45 765.66 1148.81 764.846 1146.78C764.666 1146.33 764.495 1145.86 764.334 1145.37C763.613 1143.18 762.158 1141.23 760.299 1138.87C760.126 1138.65 759.949 1138.43 759.769 1138.2L759.768 1138.2C758.996 1137.22 758.164 1136.17 757.293 1135C756.587 1132.85 754.242 1130.47 751.946 1128.31C751.568 1127.95 751.191 1127.6 750.823 1127.26C750.018 1126.51 749.257 1125.81 748.616 1125.16L743.191 1119.69C742.888 1118.77 742.065 1118.02 741.016 1117.35C740.204 1116.82 739.255 1116.34 738.306 1115.86L738.304 1115.86C723.768 1104.47 704.534 1096.4 682.591 1092.33C682.459 1092.31 682.327 1092.28 682.194 1092.26C661.654 1088.5 638.757 1088.24 615.127 1092.03C614.129 1092.19 613.13 1092.35 612.129 1092.53C611.19 1092.69 610.25 1092.86 609.308 1093.04C606.511 1093.03 605.003 1094.03 604.198 1095C603.435 1095.93 603.303 1096.83 603.303 1096.83C602.754 1097.92 602.34 1099.41 601.925 1100.91C601.511 1102.4 601.097 1103.9 600.548 1104.99L600.547 1104.99C600.112 1105.85 599.677 1106.71 599.236 1107.57C599.011 1108.01 598.785 1108.45 598.556 1108.89C595.852 1114.07 592.87 1119.12 588.495 1123.46L572.093 1139.74C571.333 1140.71 570.443 1141.72 569.458 1142.75C565.676 1146.71 560.496 1150.91 555.856 1153.93C555.62 1154.08 555.386 1154.23 555.153 1154.38C551.336 1156.54 547.927 1158.57 544.518 1160.59L544.499 1160.61C541.941 1162.13 539.383 1163.65 536.653 1165.23C536.237 1165.47 535.816 1165.71 535.391 1165.95C534.889 1166.24 534.38 1166.53 533.864 1166.82L527.32 1168.98C525.789 1169.48 524.786 1170.52 524.147 1171.75C523.891 1172.25 523.693 1172.78 523.543 1173.31C523.486 1173.52 523.436 1173.73 523.392 1173.94C522.919 1176.18 523.19 1178.47 523.468 1179.31C531.523 1209.3 548.318 1232.78 567.328 1246.47C569.147 1247.8 570.94 1249.06 572.716 1250.25C572.892 1250.36 573.067 1250.48 573.241 1250.6C582.943 1257.01 592.15 1261.27 602.119 1264.03C602.628 1264.17 603.133 1264.3 603.636 1264.42C604.22 1264.56 604.799 1264.69 605.375 1264.8C606.397 1265.01 607.408 1265.18 608.415 1265.34C609.221 1265.46 610.024 1265.58 610.827 1265.7C613.02 1266.02 615.212 1266.34 617.466 1266.85C618.149 1267 618.839 1267.17 619.535 1267.37C621.293 1267.62 623.399 1267.77 625.692 1267.85C627.817 1267.93 630.103 1267.95 632.422 1267.96C633.025 1267.96 633.63 1267.97 634.234 1267.97H634.238C634.521 1267.97 634.803 1267.97 635.085 1267.97C656.038 1267.77 671.946 1257.48 684.255 1246.48C684.412 1246.34 684.57 1246.2 684.726 1246.06C684.81 1245.98 684.893 1245.91 684.976 1245.83C697.546 1234.44 709.04 1219.78 716.185 1202.92C711.214 1220.88 701.895 1236.64 690.401 1251.3C690.322 1251.38 690.242 1251.47 690.162 1251.56C678.138 1264.49 660.729 1277.35 636.371 1279.96C635.62 1280.21 634.894 1280.4 634.19 1280.56C630.297 1281.4 627.07 1280.93 623.843 1280.46C622.744 1280.82 622.011 1281.67 621.523 1282.65C621.286 1283.12 621.106 1283.62 620.97 1284.11C620.809 1284.69 620.71 1285.25 620.649 1285.72C620.621 1285.93 620.601 1286.13 620.586 1286.29C620.55 1286.71 620.549 1286.98 620.549 1286.98C620.97 1289.26 621.417 1291.52 621.89 1293.76C622.004 1294.3 622.12 1294.84 622.238 1295.38C629.625 1329.3 642.875 1357.84 659.418 1377.54C660.125 1378.49 660.844 1379.42 661.573 1380.32C661.602 1380.36 661.63 1380.39 661.659 1380.43C670.969 1391.96 681.98 1399.95 692.531 1406.53C693.62 1407.08 694.709 1407.63 695.795 1408.17C701.217 1410.88 706.576 1413.39 711.562 1414.77L729.517 1419.75C752.917 1424.74 774.703 1424.82 794.874 1419.99C815.044 1415.17 833.062 1403.8 842.94 1384.23C835.236 1404.9 818.296 1419.54 797.028 1426.54C796.846 1426.6 796.664 1426.66 796.482 1426.72C777.959 1432.72 756.556 1434.84 731.824 1431.72C731.45 1431.67 731.075 1431.62 730.699 1431.58C729.751 1431.45 728.797 1431.32 727.839 1431.18C727.791 1431.17 727.743 1431.16 727.695 1431.16C727.49 1431.13 727.292 1431.1 727.099 1431.08C726.857 1431.05 726.624 1431.02 726.4 1431C725.595 1430.93 724.9 1430.89 724.273 1430.86C722.7 1430.79 721.562 1430.74 720.218 1430.06C720.218 1430.06 719.245 1430.38 718.544 1432.27C718.503 1432.38 718.463 1432.5 718.425 1432.62C718.266 1433.11 718.126 1433.71 718.023 1434.41L718.561 1436.04C718.441 1436.86 718.333 1437.72 718.243 1438.61C718.098 1440.05 718 1441.57 717.97 1443.16C717.959 1443.81 717.958 1444.46 717.97 1445.13C717.975 1445.38 717.981 1445.64 717.99 1445.89C718.002 1446.27 718.019 1446.65 718.04 1447.04C718.041 1447.06 718.042 1447.07 718.043 1447.09C718.153 1449.06 718.381 1451.1 718.761 1453.2C718.79 1453.36 718.821 1453.52 718.852 1453.69C719.338 1456.21 720.048 1458.81 721.045 1461.44C721.555 1462.78 722.139 1464.12 722.806 1465.47C723.893 1466.02 724.841 1467.52 725.788 1469.02C726.735 1470.52 727.683 1472.02 728.77 1472.57L732.539 1484.03C732.656 1484.12 732.822 1484.25 733.034 1484.42C741.66 1491.35 827.635 1560.39 919.354 1484.2L924.821 1478.77C937.527 1468.77 946.369 1461.21 953.614 1451.6C955.403 1449.23 957.094 1446.73 958.722 1444.04C958.953 1443.66 959.181 1443.28 959.406 1442.91C961.955 1438.67 964.124 1434.9 966.001 1431.35C967.581 1428.35 968.955 1425.5 970.175 1422.65C970.686 1421.45 971.171 1420.25 971.633 1419.04C971.633 1419.04 971.633 1419.04 971.634 1419.04C971.683 1418.91 971.731 1418.78 971.78 1418.65C972.128 1417.72 972.463 1416.79 972.786 1415.84C973.066 1415.02 973.336 1414.19 973.599 1413.35C973.962 1412.19 974.311 1411.01 974.648 1409.79C980.178 1388.02 979.163 1368.41 974.339 1348.24C983.533 1365.16 989.994 1384.79 986.079 1411.47C986.192 1411.81 986.256 1412.25 986.278 1412.74C986.282 1412.83 986.284 1412.92 986.286 1413.01C986.31 1414.88 985.789 1417.45 984.961 1419.09C984.961 1419.09 984.95 1422 985.794 1424C985.866 1424.16 985.943 1424.33 986.027 1424.48C986.308 1424.99 986.664 1425.4 987.115 1425.63C989.827 1428.37 993.638 1428.92 997.448 1429.48C1002.9 1429.51 1008.34 1429.53 1013.25 1427.91C1013.8 1427.73 1014.34 1427.55 1014.88 1427.36C1023.92 1424.19 1031.11 1420.02 1037.81 1414.39C1037.96 1414.26 1038.12 1414.13 1038.27 1414C1038.51 1413.8 1038.75 1413.59 1038.99 1413.39C1045.27 1408.02 1050.1 1403.05 1051.85 1397.64C1051.92 1397.43 1051.98 1397.22 1052.04 1397.01C1055.33 1390.49 1054.81 1383.41 1052.12 1375.23L1052.38 1375.68C1052.55 1375.98 1052.72 1376.28 1052.89 1376.57C1056.88 1383.6 1060.2 1389.43 1059.66 1398.13C1059.64 1398.46 1059.61 1398.78 1059.58 1399.1C1059.53 1399.65 1059.46 1400.19 1059.38 1400.72C1058.12 1408.74 1053.52 1415.17 1047.58 1422.05C1047.02 1422.61 1046.4 1423.21 1045.74 1423.84C1040.04 1429.23 1030.92 1436.6 1019.19 1440.46C1018.65 1440.64 1018.1 1440.81 1017.55 1440.97C1011.5 1442.69 1004.64 1443.25 997.398 1442.48C996.792 1442.42 996.184 1442.35 995.572 1442.27C990.698 1441.61 985.673 1440.36 980.631 1438.48C980.234 1438.33 979.837 1438.17 979.44 1438.02C979.078 1437.88 978.716 1437.73 978.354 1437.58L971.769 1450.63C971.571 1450.94 971.374 1451.26 971.178 1451.58C970.106 1453.32 969.042 1455.09 967.963 1456.88L967.959 1456.89C967.377 1457.86 966.791 1458.84 966.197 1459.82C963.114 1464.91 959.823 1470.15 955.829 1475.27C952.844 1479.1 949.466 1482.87 945.489 1486.47C949.036 1488.79 953.647 1491.49 959.195 1494.12C982.537 1505.17 1022.47 1514.91 1069.66 1489.13C1137.34 1452.35 1123.42 1388.03 1104.58 1330.77C1076.04 1244.06 1045.12 1210.72 1022.84 1198.1C997.184 1213.8 971.007 1222.42 948.124 1224.51C933.959 1225.54 921.989 1222.23 910.579 1215.1L910.577 1215.1C905.69 1211.27 900.804 1207.44 897.553 1203.07C897.015 1201.44 896.202 1200.34 895.389 1199.25C894.576 1198.16 893.764 1197.07 893.225 1195.43L891.071 1188.89C890.854 1188.22 890.646 1187.57 890.447 1186.91C887.699 1177.89 886.714 1169.76 885.729 1161.63C884.673 1152.91 886.889 1143.12 891.818 1136.06C891.919 1135.86 892.021 1135.66 892.125 1135.47C892.212 1135.3 892.3 1135.14 892.39 1134.98C896.854 1127 904.217 1122.99 912.569 1121.98C917.149 1120.47 920.774 1120.86 924.335 1121.37C924.589 1121.4 924.843 1121.44 925.097 1121.48C928.908 1122.04 932.719 1122.6 935.431 1125.33C932.532 1123.87 930.111 1123.86 927.691 1123.85C926.726 1123.85 925.76 1123.84 924.765 1123.75C924.512 1123.72 924.257 1123.69 924 1123.65C920.19 1123.09 916.919 1124.17 913.648 1125.25L913.646 1125.25C913.427 1125.32 913.209 1125.39 912.992 1125.47C906.703 1127.66 900.986 1131.41 897.803 1137.71C897.653 1138.09 897.51 1138.48 897.374 1138.86C897.273 1139.15 897.176 1139.44 897.082 1139.73C895.06 1146.05 894.972 1153.01 896.293 1160.35C897.505 1167.09 899.903 1174.14 903.083 1181.31C904 1182.23 904.669 1183.03 905.173 1183.75C906.16 1185.15 906.516 1186.23 906.872 1187.31C907.142 1188.13 907.82 1188.81 908.498 1189.5C909.176 1190.18 909.854 1190.86 910.124 1191.68C911.48 1193.05 913.245 1194.28 915.011 1195.51C916.776 1196.75 918.542 1197.98 919.898 1199.34C928.596 1203.73 937.853 1204.32 948.745 1204.36C964.008 1201.15 980.368 1195.76 999.462 1187.67C1000.83 1186.31 1002.33 1185.36 1003.83 1184.42C1005.33 1183.47 1006.83 1182.52 1008.2 1181.16L1020.77 1169.77L1031.56 1180.2L1031.21 1180.56L1027.78 1183.66L1030.23 1185.05C1057.25 1200.34 1089.8 1237.88 1118.83 1326.08C1128.26 1354.74 1137.44 1387.79 1134.5 1419.04C1131.41 1451.75 1115.13 1481.48 1076.83 1502.3C1011.61 1537.93 958.125 1512.63 937.292 1499.04L930.294 1494.47L929.449 1495.31L928.939 1495.73C877.638 1538.35 826.927 1539.7 788.608 1529.3C769.744 1524.18 754.059 1516.29 742.808 1509.48C737.162 1506.06 732.583 1502.89 729.224 1500.42C727.543 1499.18 726.172 1498.12 725.132 1497.3C724.614 1496.9 724.183 1496.55 723.852 1496.29L723.447 1495.96L723.326 1495.86L723.284 1495.83L720.758 1493.85L720.274 1494.18C707.513 1502.84 694.335 1507.31 677.357 1505.85C650.939 1503.79 624.727 1489.67 603.232 1474.23C581.371 1458.53 562.547 1440.12 550.659 1427L548.521 1424.64L547.526 1421.61C545.713 1416.1 543.78 1410.84 541.771 1405.79C540.423 1406.79 538.878 1407.61 537.141 1408.19C532.098 1409.85 527.465 1408.73 524.4 1407.19C524.038 1407.01 523.669 1406.8 523.295 1406.58C469.991 1392.95 433.269 1355.63 408.9 1318.32C384.101 1280.34 371.083 1240.9 365.72 1221.78C363.545 1215.06 362.751 1209.1 362.811 1203.91C362.035 1204.01 361.323 1204.07 360.697 1204.09C359.912 1204.12 359.134 1204.11 358.464 1204.07L354.372 1205.42L348.477 1201.87C296.297 1170.4 264.381 1122.5 244.842 1076.76C225.307 1031.02 217.742 986.542 214.751 960.398L214.529 958.453ZM399.898 1161.95C393.334 1169.55 386.21 1180.96 380.722 1191.84C378.526 1196.19 375.772 1204.34 380.079 1217.43C389.779 1252.14 426.252 1358.26 515.76 1388.7C516.729 1389.03 517.703 1389.35 518.684 1389.66C521.443 1390.54 524.252 1391.34 527.11 1392.07C527.502 1392.17 527.894 1392.27 528.287 1392.36C528.948 1392.53 529.611 1392.69 530.277 1392.84C530.743 1394.26 533.664 1394.87 533.389 1391.82C533.346 1391.34 533.227 1390.78 533.011 1390.13C532.544 1389.14 532.074 1388.14 531.601 1387.14C530.432 1384.66 529.249 1382.13 528.061 1379.59C527.69 1378.8 527.319 1378.01 526.948 1377.21C526.817 1376.93 526.686 1376.65 526.555 1376.37C522.605 1367.92 518.669 1359.52 515.181 1352.48C512.358 1346.93 509.656 1341.75 507.055 1336.87C500.625 1324.82 494.804 1314.62 489.254 1305.24C489.148 1305.06 489.043 1304.88 488.938 1304.71C488.67 1304.25 488.403 1303.8 488.136 1303.36C471.901 1276.06 459.455 1254.77 446.471 1231.85C450.264 1236.36 454.008 1240.73 457.724 1245.07L457.731 1245.08C471.373 1261 484.638 1276.48 498.529 1297.17C498.703 1297.43 498.876 1297.69 499.05 1297.95C505.797 1307.02 513.06 1317.65 520.118 1329.49C523.263 1334.76 526.367 1340.28 529.367 1346C530.548 1348.25 531.776 1350.56 533.041 1352.95C542.202 1370.21 553.259 1391.05 561.775 1416.93C584.554 1442.07 633.944 1487.46 678.592 1490.9C691.66 1492.04 701.476 1488.81 711.851 1481.77C708.821 1475.65 707.158 1470.22 706.383 1465C705.776 1460.91 705.715 1456.95 705.97 1452.88L705.432 1451.24C705.761 1449 706.469 1446.01 707.667 1442.59C707.71 1442.47 707.753 1442.35 707.796 1442.23C708.054 1441.51 708.334 1440.77 708.636 1440.02C709.02 1439.06 709.442 1438.08 709.901 1437.08C710.228 1436.37 710.574 1435.65 710.941 1434.92C711.186 1434.44 711.431 1433.95 711.658 1433.47C711.704 1433.38 711.75 1433.28 711.795 1433.18C712.199 1432.3 712.529 1431.44 712.668 1430.65C712.774 1430.03 712.769 1429.46 712.597 1428.94L710.423 1427.84C709.624 1427.72 708.837 1427.58 708.061 1427.42C706.908 1427.18 705.779 1426.89 704.669 1426.56C699.403 1425.01 694.58 1422.57 689.758 1420.14L689.756 1420.14C688.683 1419.6 687.603 1419.03 686.517 1418.45C686.164 1418.26 685.81 1418.06 685.455 1417.87C673.656 1411.35 661.286 1402.15 650.658 1389.49C649.914 1388.58 649.177 1387.67 648.446 1386.75C648.271 1386.53 648.097 1386.31 647.924 1386.09C628.366 1361.25 613.376 1329.98 606.635 1289.54C606.55 1289.04 606.467 1288.53 606.384 1288.01C606.339 1287.63 606.288 1287.27 606.232 1286.92C606.232 1286.92 606.231 1286.92 606.231 1286.92C606.083 1285.99 605.901 1285.17 605.697 1284.44C604.968 1281.83 603.948 1280.41 603.099 1279.64C602.217 1278.84 601.518 1278.74 601.518 1278.74C600.451 1278.44 599.38 1278.13 598.305 1277.81C587.323 1274.51 575.975 1269.69 565.091 1261.71C563.137 1260.41 561.212 1259.04 559.318 1257.59C559.287 1257.57 559.256 1257.55 559.225 1257.52C537.869 1241.19 520.585 1215.72 511.576 1183.22C511.514 1183 511.453 1182.78 511.392 1182.55C510.862 1180.62 510.362 1178.65 509.893 1176.66C509.883 1176.62 509.873 1176.58 509.863 1176.54C509.287 1176.58 508.711 1176.62 508.135 1176.66C504.353 1176.93 500.558 1177.16 496.67 1177.11C493.865 1177.07 491.011 1176.88 488.077 1176.45C469.025 1173.66 451.629 1164.87 436.968 1153.38C435.849 1152.82 434.778 1152.24 433.738 1151.67C430.511 1149.92 427.587 1148.34 424.47 1147.9C422.739 1147.66 420.949 1147.77 419.013 1148.41C417.116 1149.03 415.126 1149.84 413.137 1150.85C408.266 1153.3 403.398 1156.94 399.898 1161.95ZM337.074 491.126C331.036 485.18 325.1 477.361 320.866 464.498C314.726 450.316 316.116 440.835 318.042 432.525C318.161 432.014 318.281 431.507 318.402 431.003C318.486 430.653 318.571 430.305 318.655 429.958C318.676 429.87 318.697 429.782 318.719 429.694C318.945 428.758 319.168 427.832 319.376 426.911C321.592 417.117 324.885 410.594 329.274 401.898L329.276 401.895C321.634 406.223 314.531 412.187 306.868 421.961C306.482 422.553 306.099 423.173 305.721 423.822C305.063 424.95 304.422 426.165 303.815 427.467C299.311 437.12 296.654 451.53 302.87 470.42C308.416 487.271 318.433 496.959 327.763 502.986C329.538 504.133 331.289 505.148 332.98 506.054C333.405 506.282 333.828 506.504 334.245 506.719C334.453 506.825 334.659 506.931 334.865 507.034C345.199 510.886 354.456 511.467 364.272 508.236C356.113 505.482 349.051 500.553 341.99 495.624C341.675 495.352 341.358 495.077 341.041 494.799C340.638 494.444 340.234 494.085 339.829 493.719C338.912 492.89 337.992 492.03 337.074 491.126Z" fill="#FFB0A3"/>
</svg>
