<svg width="1429" height="1463" viewBox="0 0 1429 1463" fill="none" xmlns="http://www.w3.org/2000/svg">
<path d="M847.772 1112.77C858.557 1123.2 858.567 1123.19 858.577 1123.18L858.597 1123.16L858.639 1123.11L858.702 1123.05L858.73 1123.02L858.779 1122.96C858.802 1122.94 858.826 1122.91 858.851 1122.89L858.939 1122.79C859.09 1122.63 859.263 1122.43 859.456 1122.2C859.843 1121.75 860.309 1121.18 860.835 1120.47C861.888 1119.07 863.176 1117.15 864.537 1114.69C867.267 1109.73 870.238 1102.65 872.214 1093.12C876.177 1074 875.988 1045.84 862.954 1006.24C856.935 987.948 848.925 973.831 840.621 962.931C842.218 962.721 843.775 962.471 845.289 962.177C862.689 959.792 877.334 954.717 890.352 950.206L890.356 950.205C914.203 940.118 935.359 932.787 954.952 931.465C974.545 930.144 993.074 931.014 1007.85 936.83C1018.24 940.52 1029.2 945.837 1037.46 953.91C1037.97 955.373 1038.26 957.278 1038.59 959.377C1038.98 961.946 1039.42 964.805 1040.35 967.493C1044.93 985.958 1050.57 1002.23 1057.27 1016.31L1057.27 1016.32C1059.52 1022.82 1061.78 1029.33 1065.66 1035.28L1064.04 1035.84C1066.55 1064.14 1060.86 1089.8 1050.73 1107.9C1040.59 1125.99 1027.14 1139.77 1014.18 1149.73C1001.23 1159.69 988.774 1165.82 976.319 1171.96C963.864 1178.1 950.845 1182.61 937.262 1185.5C951.409 1184.24 965.556 1182.98 978.575 1178.47C992.158 1175.59 1006.8 1170.51 1021.39 1159.99C1036.53 1151.1 1051.61 1136.76 1064.44 1115.91C1075.14 1099.44 1080.89 1079.22 1082.26 1056.87C1091.09 1066.57 1101.55 1075.7 1115.76 1079.89C1143.62 1086.65 1168.59 1079.81 1193.57 1072.98C1169.65 1077.62 1141.92 1081.76 1118.95 1073.32C1104.17 1067.5 1092.59 1055.11 1083.13 1038.34C1082.85 1037.53 1082.97 1036.57 1083.1 1035.62C1083.22 1034.66 1083.35 1033.71 1083.06 1032.89L1081.44 1033.46C1076.99 1025.88 1074.73 1019.38 1071.91 1011.24C1066.84 996.592 1061.2 980.318 1057.19 963.48C1056.68 962.017 1056.5 960.44 1056.31 958.704C1056.07 956.578 1055.8 954.213 1054.87 951.525C1054.04 949.142 1054.09 946.457 1054.15 943.053C1054.17 941.807 1054.19 940.464 1054.17 939.005C1053.31 936.519 1054.02 932.425 1054.63 928.928C1054.81 927.847 1054.99 926.824 1055.11 925.922L1056.11 918.284C1055.54 916.657 1056.61 914.466 1057.67 912.275L1057.67 912.274C1067.05 876.214 1099.84 839.332 1146.4 815.903C1150.72 812.584 1153.48 815.275 1153.48 815.275C1154.57 815.807 1155.81 816.745 1157.04 817.684C1158.28 818.622 1159.52 819.561 1160.61 820.093L1160.62 820.093C1167.19 823.283 1173.76 826.473 1181.4 827.472L1204.31 830.469C1210.32 832.032 1219.59 832.467 1226.66 831.838C1231.01 831.242 1234.95 830.787 1238.89 830.333L1238.9 830.332L1238.9 830.332C1242.84 829.876 1246.78 829.421 1251.14 828.825L1257.64 826.569C1262.53 824.877 1266.41 830.823 1266.97 832.45C1278.75 861.179 1279.64 890.037 1272.82 912.45C1268.63 926.662 1263.32 937.618 1255.81 947.511C1253.93 949.985 1251.91 952.051 1249.9 954.118C1247.88 956.184 1245.86 958.251 1243.98 960.724C1241.29 963.479 1236.97 966.798 1232.66 970.117L1232.65 970.118C1215.38 983.395 1195.79 984.716 1178.89 983.282C1161.98 981.848 1143.95 977.159 1128.05 968.088C1142.89 979.351 1159.86 986.231 1177.89 990.92C1195.35 993.981 1217.14 993.723 1238.23 980.946C1243.11 979.254 1245.8 976.499 1248.49 973.744L1248.49 973.743C1251.75 972.615 1255.07 976.933 1255.07 976.933C1272.36 1011.04 1280.38 1044.72 1279.08 1072.51C1279.27 1088.85 1275.08 1103.06 1270.33 1115.65C1267.14 1122.22 1263.95 1128.8 1260.19 1133.74L1248.93 1148.58C1233.35 1166.74 1216.08 1180.02 1197.11 1188.41C1178.15 1196.81 1156.93 1198.69 1137.2 1189.12C1155.86 1200.88 1178.21 1202.25 1199.37 1194.92C1218.9 1188.16 1238.36 1175.94 1257.2 1156.65C1258.22 1155.6 1259.09 1154.87 1259.84 1154.25L1259.84 1154.24C1261.05 1153.23 1261.92 1152.5 1262.58 1151.14C1262.58 1151.14 1264.2 1150.58 1266.96 1153.27L1267.52 1154.9C1273.03 1160.28 1279.67 1168.92 1281.99 1180.87C1281.46 1181.97 1281.62 1183.74 1281.78 1185.5C1281.93 1187.27 1282.09 1189.04 1281.56 1190.14L1285.51 1201.53C1285.47 1201.67 1285.42 1201.88 1285.35 1202.14C1282.69 1212.88 1256.19 1319.92 1137.06 1314.95L1129.42 1313.95C1109.27 1313.64 1096.18 1312.71 1081.41 1306.89C1066.63 1301.07 1057.87 1296.82 1047.97 1289.31C1030.38 1275.36 1019.29 1259.15 1010.9 1240.18C1013.85 1259.21 1020.61 1278.74 1039.9 1297.58C1040.46 1299.2 1043.22 1301.9 1045.41 1302.96C1045.41 1302.96 1048.73 1307.28 1047.67 1309.47C1047.17 1313.29 1044.48 1316.04 1041.79 1318.8L1041.78 1318.8C1037.47 1322.12 1033.15 1325.44 1028.27 1327.13C1018.5 1330.51 1009.8 1331.7 1000.54 1331.27C991.273 1330.83 983.635 1329.84 978.688 1326.08C972.114 1322.89 968.231 1316.95 965.411 1308.81C965.454 1309.12 965.496 1309.43 965.537 1309.73L965.619 1310.34C966.698 1318.35 967.593 1325 973.307 1331.59C979.381 1338.6 987.583 1341.23 997.412 1343.29C1005.05 1344.29 1018.13 1345.22 1031.15 1340.71C1042.54 1336.76 1053.87 1327.37 1061.88 1313.66L1075.03 1320.04C1077.28 1320.89 1079.55 1321.79 1081.85 1322.71L1081.85 1322.71C1092.44 1326.92 1103.78 1331.43 1117.66 1332.61C1110.28 1353.39 1086.32 1399.97 1020.53 1410.01C991.557 1414.5 969.562 1408.65 952.344 1396.53C957.46 1385.63 960.366 1374.03 961.497 1362.04C964.444 1330.79 955.257 1297.74 945.826 1269.08C925.914 1208.57 904.342 1171.91 884.035 1149.91C912.802 1146.58 937.844 1137.74 956.709 1125.9C968.6 1118.13 976.109 1108.24 980.862 1095.65C982.425 1089.64 983.988 1083.63 983.923 1078.19C983.359 1076.56 983.343 1075.2 983.327 1073.84C983.311 1072.48 983.295 1071.11 982.731 1069.49L980.475 1062.98C977.091 1053.21 972.644 1045.64 968.197 1038.07C963.75 1030.49 956.048 1024.05 947.846 1021.42C939.081 1017.17 930.38 1018.36 922.807 1022.81C917.925 1024.5 915.234 1027.26 912.544 1030.01C909.853 1032.77 907.162 1035.52 906.662 1039.34C908.08 1036.42 910 1034.94 911.919 1033.47C912.879 1032.73 913.838 1031.99 914.735 1031.07C917.425 1028.32 920.679 1027.19 923.933 1026.06L923.935 1026.06C930.445 1023.81 937.518 1023.18 944.092 1026.37C955.613 1033.31 962.316 1047.4 966.328 1064.23C965.829 1068.05 966.393 1069.68 966.957 1071.31C967.239 1072.12 967.114 1073.08 966.989 1074.03C966.864 1074.98 966.739 1075.94 967.021 1076.75C966.771 1078.66 966.115 1080.71 965.458 1082.76C964.802 1084.81 964.145 1086.86 963.895 1088.77C959.642 1097.54 952.633 1103.61 943.996 1110.25C929.914 1116.96 913.64 1122.59 893.547 1127.73C891.638 1127.48 889.87 1127.64 888.101 1127.8C886.333 1127.96 884.565 1128.11 882.655 1127.86L865.753 1126.43C865.753 1126.43 862.844 1125.99 858.084 1123.67L858.212 1123.56L858.557 1123.2L847.772 1112.77Z" fill="#FFEECC"/>
<path d="M797.764 944.285C797.604 944.444 797.444 944.602 797.284 944.759C797.154 944.887 797.024 945.015 796.894 945.143C797.184 944.858 797.474 944.573 797.764 944.285Z" fill="#FFEECC"/>
<path fill-rule="evenodd" clip-rule="evenodd" d="M836.178 951.664C834.494 951.757 832.811 951.85 831.191 951.921C821.841 942.204 812.93 936.125 806.896 932.308L807.104 930.895C807.281 930.612 807.434 930.386 807.714 929.976L807.715 929.975L807.718 929.969C807.83 929.806 807.961 929.613 808.121 929.376L808.132 929.361C808.547 928.747 809.413 927.468 810.16 925.988L810.262 925.785L810.359 925.579C820.955 902.904 819.126 878.828 813.154 858.386C807.226 838.094 796.828 819.934 787.824 807.278C781.34 797.137 772.068 787.944 761.336 779.967C762.232 778.37 763.153 776.787 764.096 775.222L773.167 759.319C780.676 749.425 787.121 741.723 794.13 735.648C804.893 724.627 816.784 716.861 829.239 710.722C852.522 699.008 874.806 694.931 894.399 693.61C915.62 691.724 933.086 694.786 948.925 698.411C964.763 702.037 979.539 707.853 996.506 714.733C995.84 714.353 995.177 713.975 994.519 713.599C979.449 704.996 966.203 697.434 950.487 692.401C933.521 685.521 915.491 680.833 893.706 681.091C881.187 681.783 868.667 682.476 855.084 685.361C837.731 645.804 830.834 615.383 830.012 591.971C829.754 570.187 832.815 552.721 840.259 537.381C841.355 537.913 842.31 538.038 843.264 538.163C844.219 538.288 845.174 538.413 846.269 538.944C850.652 541.071 854.471 541.571 858.289 542.07L869.746 543.569C877.383 544.568 885.021 545.566 891.53 543.311C898.603 542.682 905.677 542.054 911.623 538.171C935.469 528.084 949.423 510.489 958.494 494.585C967.566 478.682 972.818 462.279 975.38 448.632C975.887 444.751 976.431 440.975 976.967 437.26C978.538 426.353 980.034 415.972 980.31 404.998C976.121 419.21 971.932 433.421 967.179 446.005C962.989 460.217 956.609 473.365 946.974 487.641C938.966 501.353 926.075 516.756 906.547 523.524L906.543 523.525C901.662 525.216 896.781 526.908 891.337 526.972C886.725 528.571 882.364 528.252 878.276 527.953C876.594 527.83 874.959 527.711 873.371 527.729C871.462 527.48 869.959 527.089 868.456 526.698C866.954 526.308 865.451 525.917 863.542 525.667C861.633 525.418 860.131 525.027 858.629 524.636C857.126 524.245 855.623 523.854 853.713 523.605C847.703 522.042 841.129 518.852 834.555 515.661C809.323 500.709 800.299 474.671 796.787 454.014C793.274 433.358 794.144 414.828 797.205 397.362C798.639 380.46 802.828 366.248 809.209 353.1C813.962 340.516 820.342 327.368 834.425 320.665C819.779 325.741 811.207 337.825 802.635 349.91C794.063 361.994 788.246 376.77 783.557 394.8C779.932 410.639 776.372 431.924 779.385 456.399L779.385 456.401C781.705 468.356 784.026 480.311 790.728 494.393C797.431 508.475 807.389 521.43 823.293 530.501C826.673 533.067 830.549 534.609 834.064 536.007L834.065 536.007C835.694 536.655 837.244 537.272 838.632 537.945C826.805 551.158 818.862 570.316 817.492 592.664C816.123 615.013 819.201 644.934 833.799 681.8C833.799 681.8 838.246 689.373 833.928 692.692L820.909 697.204C808.454 703.343 795.499 713.3 782.545 723.258C776.174 729.058 770.046 735.559 763.541 742.462L763.539 742.463C760.141 746.069 756.639 749.785 752.946 753.566C749.283 752.266 741.334 749.054 731.347 742.353C741.011 720.964 752.359 679.398 735.581 619.263C724.077 575.718 707.761 547.62 693.7 530.114C686.681 521.375 680.282 515.349 675.43 511.398C674.169 510.371 673.013 509.485 671.981 508.73C673.561 506.623 675.237 504.614 676.989 502.821C678.017 501.768 678.807 500.798 679.482 499.97C680.574 498.629 681.365 497.659 682.37 497.31C692.634 490.108 700.207 485.66 712.163 483.34C701.77 479.65 690.878 479.779 676.795 486.482C673.033 488.532 668.914 491.314 664.813 494.825L664.637 492.967C662.783 473.402 658.347 431.554 645.862 387.927C635.106 350.344 617.793 309.289 589.176 280.524C593.294 271.187 598.232 262.086 603.787 254.766C610.73 243.247 618.802 234.982 626.873 226.717L626.876 226.714C643.021 210.182 658.167 201.288 673.313 192.393C701.346 175.548 725.851 168.642 753.322 160.901L755.181 160.376C726.888 162.89 700.785 166.467 668.801 179.374C647.387 164.921 634.175 153.094 626.409 141.203C618.642 129.312 613.067 118.485 613.438 103.774C608.684 116.358 608.314 131.069 615.581 146.779C620.592 155.979 627.23 164.615 633.305 171.624C636.624 175.942 642.699 182.951 649.837 187.769C639.009 193.344 627.118 201.111 614.727 212.696C605.028 221.526 596.955 229.791 588.383 241.876C586.375 246.014 584.004 250.278 581.5 254.78C579.607 258.185 577.639 261.726 575.694 265.451L576.735 256.72C587.297 168.155 560.525 96.4692 530.208 58.662C524.911 51.8616 519.26 45.8995 513.343 40.8309C513.768 40.405 514.198 39.9883 514.634 39.581C616.014 -46.5906 734.105 36.4377 739.052 40.1919L746.19 45.0095L768.232 66.536L786.456 87.563C786.891 78.2982 784.071 70.1611 780.687 60.3969C778.431 53.8873 773.984 46.3144 767.346 37.678C830.25 14.0564 856.739 43.1557 862.814 50.1647C851.051 68.8233 849.618 85.7255 848.683 98.809C848.877 115.147 852.824 126.539 860.027 136.803C857.706 124.847 859.205 113.391 861.767 99.7438C864.329 86.0963 871.772 70.7567 890.044 49.8423C903.498 36.0658 917.581 29.3627 917.581 29.3627C985.93 5.67655 1028.95 50.9209 1052.88 93.6678L1057.89 102.868L1068.22 101.112C1069.85 100.548 1104.09 94.1507 1132.07 111.794C1148.54 122.493 1160.19 140.33 1165.4 165.868C1147.99 168.253 1137.17 173.828 1128.53 180.467C1117.2 189.86 1110.76 197.562 1107.07 207.955C1115.7 201.316 1123.28 196.869 1134.1 191.294C1136.27 190.542 1138.38 189.609 1140.49 188.677C1144.7 186.811 1148.92 184.945 1153.63 184.527L1158.52 182.835C1162.49 181.458 1167.21 182.237 1170.89 182.844C1171.73 182.983 1172.52 183.112 1173.23 183.205L1177.04 183.705C1177.04 183.705 1240.4 198.206 1259.01 251.909C1266.91 274.693 1270.92 291.53 1272.18 305.677C1269.79 306.503 1267.98 306.154 1265.68 305.712L1265.68 305.712L1265.67 305.711C1264.84 305.55 1263.93 305.376 1262.91 305.242C1253.65 304.808 1244.94 306 1236.81 308.819C1218.91 315.023 1208.71 327.671 1200.14 339.756C1187.38 359.608 1181.07 379.383 1175.47 396.916L1175.47 396.921C1173.8 402.17 1172.19 407.218 1170.49 412.006C1166.8 422.399 1162.55 431.164 1155.54 437.238C1150.15 442.749 1140.39 446.133 1132.25 448.953C1129.53 448.985 1127.36 449.283 1125.18 449.581C1123 449.879 1120.83 450.177 1118.11 450.209C1116.2 449.96 1113.88 449.851 1111.57 449.742L1111.56 449.742C1109.25 449.634 1106.93 449.525 1105.02 449.275C1102.3 449.307 1099.03 449.074 1095.76 448.84L1095.76 448.84C1092.49 448.607 1089.22 448.373 1086.49 448.405C1090.05 427.12 1090.36 406.963 1089.6 388.997C1089.91 368.84 1085.33 350.375 1079.13 332.474C1071.86 316.764 1061.34 302.182 1048.69 291.983C1036.04 281.784 1021.83 277.595 1007.12 277.224C994.037 276.29 981.018 280.801 970.754 288.004L957.8 297.961C949.341 273.551 939.254 249.704 916.647 226.551C905.062 214.16 889.658 201.27 865.618 195.018C841.578 188.767 812.72 189.653 782.928 203.623C775.355 208.07 767.782 212.517 761.837 216.401C760.374 217.668 758.957 218.841 757.602 219.962L757.601 219.963C752.465 224.214 748.216 227.731 745.691 232.932C744.446 235.499 743.006 237.508 741.814 239.173C740.971 240.349 740.251 241.354 739.81 242.262L735.557 251.027C731.803 255.974 730.24 261.983 728.677 267.993C723.901 286.359 722.266 301.508 720.869 314.447C720.438 318.445 720.029 322.232 719.557 325.838C717.559 341.113 714.998 354.761 708.053 366.281C701.673 379.429 691.409 386.632 678.954 392.771C691.973 388.259 706.619 383.183 715.191 371.099C723.763 359.014 729.579 344.239 733.205 328.4C734.525 322.632 735.695 316.433 736.928 309.905L736.929 309.902C739.081 298.504 741.422 286.103 745.08 273.246C751.396 254.652 762.03 232.739 789.131 221.524C814.042 209.246 839.081 207.86 858.738 211.985C878.396 216.109 892.672 225.745 905.32 235.944C928.99 256.907 942.831 275.807 954.545 299.089C952.668 301.562 950.651 303.629 948.633 305.695C946.614 307.761 944.595 309.829 942.718 312.302C930.392 329.333 920.822 349.055 917.261 370.34C923.013 350.119 935.339 333.087 948.229 317.683C954.674 309.982 963.311 303.343 972.511 298.332C981.711 293.321 993.103 289.373 1004.56 290.872C1016.02 292.37 1028.6 297.123 1038.49 304.631C1048.95 313.767 1056.72 325.659 1061.79 340.305C1071.94 369.598 1072.39 407.721 1067.46 451.354C1051.69 453.175 1037.04 458.25 1025.72 467.644C1013.33 479.229 1005.32 492.941 998.937 506.089C986.74 534.013 982.18 562.935 981.439 592.357C983.808 562.371 991.123 536.139 1003.88 509.843C1010.26 496.695 1019.4 486.238 1030.73 476.845C1042.62 469.078 1057.26 464.002 1074.17 465.436C1076.58 465.752 1079.16 466.011 1081.86 466.283L1081.87 466.284L1081.87 466.285L1081.88 466.285C1087.73 466.874 1094.18 467.523 1100.9 468.933C1110.16 469.368 1121.06 469.239 1131.38 467.482C1141.71 465.726 1153.1 461.778 1162.8 452.948C1172.5 444.118 1177.82 433.162 1183.14 422.205C1184.99 417.167 1186.73 412.078 1188.48 406.977C1194.72 388.813 1201 370.493 1212.28 353.774C1214.35 351.657 1216.1 349.383 1217.8 347.164C1220.52 343.609 1223.14 340.198 1226.8 337.807C1246.27 325.593 1268.68 332.409 1268.68 332.409L1279.07 336.098C1282.89 336.598 1358.39 365.116 1352.79 443.618C1351.16 444.182 1350.6 442.554 1350.6 442.554C1326.49 430.856 1299.76 427.36 1276.98 435.256C1255.26 440.96 1236.36 454.801 1225.66 471.268C1212.77 486.672 1208.08 504.702 1204.46 520.541C1199.4 553.282 1200.28 582.14 1203.86 608.243C1208 635.973 1212.64 659.884 1221.66 685.922C1215.9 658.756 1212.88 634.281 1210.93 607.614C1208.98 580.948 1208.66 553.717 1216.48 523.667C1220.66 509.455 1225.92 493.053 1236.12 480.404C1245.75 466.128 1261.96 455.042 1280.43 450.466C1298.89 445.89 1321.24 447.259 1341.53 458.458C1350.85 464.339 1358.56 470.784 1366.82 478.856C1392.94 522.667 1447.63 633.135 1405.85 738.754C1405.39 738.912 1404.9 739.372 1404.32 739.904C1402.85 741.266 1400.86 743.104 1397.71 741.574C1384.56 735.193 1371.98 730.44 1358.33 727.878C1350.7 726.88 1341.43 726.445 1332.73 727.637C1313.75 688.644 1310.11 657.095 1308.72 632.056C1308.4 604.826 1310.9 585.732 1319.34 562.755C1305.95 581.978 1298.57 602.764 1295.64 631.122C1293.77 657.289 1296.91 692.657 1317.02 734.904C1315.39 735.468 1312.7 738.223 1311.64 740.414C1309.15 741.276 1308.27 743.708 1307.52 745.785C1307.29 746.427 1307.07 747.035 1306.82 747.553C1306.32 751.371 1305.26 753.562 1304.19 755.754C1298.94 772.157 1293.13 786.932 1282.36 797.953C1273.23 808.41 1259.14 815.113 1245.56 817.997C1239.05 820.253 1231.98 820.882 1224.9 821.51C1217.83 822.139 1212.38 822.203 1204.75 821.204C1203.12 821.768 1199.3 821.269 1195.48 820.77C1193.57 820.52 1192.07 820.129 1190.57 819.738C1189.07 819.347 1187.56 818.957 1185.65 818.707C1182.65 817.925 1179.5 816.737 1176.36 815.549L1176.36 815.549C1173.21 814.361 1170.06 813.172 1167.06 812.391C1143.52 802.321 1126.99 786.176 1113.71 768.903C1102.06 751.067 1093.67 732.102 1088.53 712.009C1081.76 692.481 1080.44 672.887 1081.31 654.358C1082.18 635.828 1086.87 617.798 1095.94 601.895C1105.01 585.992 1118.46 572.215 1135.8 564.384C1116.27 571.152 1102.25 583.301 1091.55 599.768C1080.85 616.235 1074.54 634.83 1072.04 653.923C1069.54 673.017 1071.43 694.237 1076.57 714.33L1077.7 717.585C1078.33 724.658 1076.26 734.487 1076.26 734.487C1074.83 751.389 1068.51 769.983 1057.75 781.004C1047.55 793.652 1033.47 800.355 1019.89 803.24C1006.3 806.124 992.156 807.381 979.636 808.074L979.609 808.075C967.098 808.768 954.589 809.46 943.705 809.589C922.485 811.474 901.264 813.36 883.363 819.563C875.226 822.383 866.026 827.394 859.017 833.469C852.008 839.543 845.563 847.245 841.309 856.01C846.127 848.872 852.572 841.171 860.145 836.723C860.348 836.613 860.55 836.503 860.751 836.393L862.266 835.564C870.531 831.04 877.596 827.172 885.619 826.073C902.224 821.957 920.197 821.79 939.491 821.611C941.653 821.591 943.831 821.57 946.025 821.544C950.22 821.495 954.74 821.603 959.427 821.715H959.43C966.913 821.894 974.823 822.083 982.521 821.657C985.676 821.483 988.868 821.411 992.146 821.338L992.152 821.338L992.153 821.338C1001.88 821.121 1012.37 820.887 1024.96 817.887C1040.17 814.438 1057.51 806.607 1070.4 791.203C1081.16 780.182 1087.54 767.034 1091.17 751.195C1093.99 759.332 1098.43 766.905 1102.88 774.478C1110.65 786.369 1121.67 797.133 1134.32 807.332C1113.23 820.11 1094.33 833.95 1078.18 850.482C1060.97 869.205 1048.15 890.055 1042.96 911.904C1042.43 913 1042.04 914.502 1041.65 916.005C1041.26 917.507 1040.87 919.01 1040.33 920.105C1039.8 921.201 1039.82 922.563 1039.83 923.924C1039.85 925.286 1039.87 926.647 1039.33 927.743L1039.53 944.081C1039.56 946.469 1039.79 948.436 1040 950.213C1040.27 952.49 1040.5 954.456 1040.22 956.601C1022 935.574 992.447 923.94 958.143 924.891C936.358 925.149 912.447 929.79 886.973 940.441L886.969 940.442C873.952 944.953 860.933 949.464 845.161 951.285C842.437 951.317 839.308 951.49 836.178 951.664ZM949.97 96.5216C958.734 100.775 965.307 103.965 973.009 110.409C973.801 111.072 974.61 111.729 975.43 112.394C982.579 118.197 990.511 124.635 994.616 141.201C1000.26 157.474 998.757 168.931 996.695 178.76L996.695 178.761L996.694 178.762C994.068 186.963 991.442 195.163 986.625 202.3C996.389 198.917 1003.4 192.842 1009.28 183.513C1014.6 172.556 1019.85 156.153 1012.52 134.997C1004.62 112.214 990.346 102.578 979.953 98.8886C967.933 95.7629 958.669 95.3282 949.968 96.5206L949.97 96.5216Z" fill="#FFEECC"/>
<path d="M1404.11 775.813C1399.6 762.794 1392.46 757.976 1388.08 755.85C1377.12 750.532 1364.54 745.779 1354.71 743.717C1346.51 741.09 1337.8 742.283 1331.29 744.539C1325.9 746.407 1323.9 750.853 1321.56 756.061C1321.08 757.14 1320.58 758.251 1320.03 759.379C1315.34 777.409 1306.84 794.939 1293.38 808.716C1288 814.226 1282.06 818.11 1276.11 821.993C1292.34 858.295 1293.85 894.226 1283.84 923.213C1279.66 937.424 1272.71 948.945 1265.2 958.838C1265.2 958.838 1262.51 961.594 1266.96 969.167C1287.57 1007.6 1294.53 1043.46 1293.29 1076.7C1292.42 1095.23 1287.16 1111.64 1280.78 1124.78C1277.59 1131.36 1274.4 1137.93 1269.02 1143.44L1267.96 1145.63C1268.52 1147.26 1270.71 1148.32 1272.91 1149.39C1279.48 1152.58 1284.43 1156.33 1287.18 1159.02L1287.75 1160.65C1293.82 1167.66 1298.27 1175.23 1300.59 1187.19C1313.11 1186.49 1322.87 1183.11 1332.57 1174.28C1365.99 1144.47 1377.73 1078.43 1380.6 1044.62C1371.68 1018.88 1367.84 995.607 1364.65 976.325C1364.21 973.662 1363.79 971.076 1363.36 968.57C1359.85 947.913 1358.53 928.32 1358.33 911.982C1356.75 886.681 1357.92 866.08 1359.13 844.885C1359.45 839.179 1359.78 833.431 1360.06 827.535C1363.63 853.638 1366.65 878.113 1370.29 909.661C1372.11 925.436 1374.49 942.838 1378.57 965.121C1380.12 973.092 1382.17 982.508 1384.21 991.925C1385.24 996.634 1386.26 1001.34 1387.22 1005.87C1388.92 1010.75 1391.61 1008 1391.04 1006.37C1456.56 927.159 1418.14 811.051 1404.11 775.813Z" fill="#FFEECC"/>
<path d="M56.6544 901.693C58.3321 890.262 60.5481 880.467 64.4001 870.133C73.7403 848.927 90.6804 834.286 108.138 826.728C125.596 819.169 145.207 818.155 161.526 823.664C177.306 827.537 191.429 837.395 203.378 846.155C227.814 865.311 244.07 887.16 258.69 909.546C273.31 931.933 285.756 953.222 297.643 978.321C289.028 952.145 278.219 930.317 264.696 905.756C251.712 882.831 234.917 859.347 211.04 836.38C198.553 825.984 183.892 814.491 164.301 810.058C145.808 803.452 122.387 803.907 101.657 812.542C78.7525 820.08 59.6169 839.069 47.5431 862.988C47.5431 862.988 48.0817 864.624 46.4457 865.162C-5.61526 806.141 37.1294 737.678 39.863 734.965L45.8895 725.729C45.8895 725.729 59.5784 706.719 82.4618 704.628C89.5443 704.11 96.0675 707.403 103.688 708.521C128.166 716.785 147.715 732.11 168.361 745.26C179.233 750.748 190.105 756.236 203.173 757.376C216.24 758.515 227.692 754.746 236.97 749.88C246.248 745.013 254.987 738.511 262.09 732.547C268.655 724.947 275.758 718.983 281.226 713.557C293.796 702.167 308.52 697.322 322.685 696.287C337.389 696.888 350.994 699.663 364.041 706.249C390.134 719.42 411.857 735.843 431.923 758.25C413.493 735.304 392.329 715.072 365.697 700.264C352.651 693.678 337.969 687.631 321.091 685.932C306.388 685.332 291.664 690.177 278.016 698.295C247.637 666.589 224.878 636.002 215.187 606.553C210.342 591.829 209.306 577.664 212.082 564.058C215.395 552.088 222.519 540.678 230.72 532.54C238.921 524.401 250.373 520.633 260.728 519.038C271.082 517.444 281.975 517.485 291.771 519.701C311.361 524.133 331.49 530.202 348.326 542.793C332.588 528.027 313.018 518.149 292.889 512.081C286.904 510.424 281.458 510.403 275.473 508.746C270.669 483.129 270.214 459.707 276.323 428.686C280.196 412.906 285.705 396.587 298.835 381.387C311.965 366.187 332.715 352.105 359.969 346.763C388.319 339.246 410.063 350.222 426.361 361.178C443.197 373.769 456.761 387.437 469.248 397.833C481.736 408.229 495.32 416.451 509.464 420.862C523.608 425.274 538.333 420.428 551.421 416.121C537.794 418.792 525.265 419.289 512.219 412.703C499.711 407.753 489.398 398.455 478.547 387.52C467.696 376.586 455.767 362.379 436.219 347.054C431.331 343.223 426.444 339.392 420.459 337.735C418.285 336.638 413.936 334.442 411.762 333.345C409.588 332.247 405.777 331.688 401.428 329.492C394.905 326.199 387.822 326.718 378.565 326.137C371.483 326.655 362.765 327.711 354.046 328.767C321.885 335.724 298.401 352.519 283.076 372.068C267.751 391.616 263.319 411.207 261.62 428.085C257.685 460.204 264.125 485.283 272.201 509.823C266.754 509.802 261.308 509.781 255.862 509.761C243.333 510.257 230.245 514.565 220.408 523.241C208.935 532.457 200.175 544.405 196.302 560.185C192.429 575.965 192.905 593.941 196.653 610.84C202.575 628.836 210.133 646.293 222.6 662.136C232.892 676.881 245.358 692.724 261.097 707.489C256.727 710.741 251.26 716.166 246.89 719.417C244.157 722.13 239.787 725.381 237.053 728.094C232.684 731.345 229.412 732.422 225.042 735.673C216.862 738.365 207.046 741.595 199.425 740.477C190.168 739.897 181.47 735.507 172.234 729.48C153.762 717.428 133.675 700.466 104.848 690.008C90.7042 685.596 74.9242 681.723 56.9281 687.646C48.748 690.338 41.1064 694.666 34.0032 700.63C31.2695 703.343 30.1718 705.517 26.8998 706.594C19.3206 694.582 12.3006 678.761 4.76307 655.857C-13.004 601.868 28.5803 551.919 28.5803 551.919L31.314 549.207C34.0477 546.494 37.8789 541.606 42.7869 539.991C44.4229 539.453 46.059 538.914 47.695 538.376C53.7007 534.586 60.7831 534.069 67.3271 531.915C79.3176 529.782 88.0361 528.726 98.929 528.768C89.6929 522.741 79.8979 520.526 65.1945 519.925C54.3017 519.883 42.3111 522.016 27.0277 530.672C15.6797 507.208 14.127 485.961 20.7336 467.468C32.2898 436.467 63.3947 420.791 65.0307 420.253L74.3085 415.386L72.7142 405.032C65.8192 356.531 72.5922 294.467 141.305 271.854C141.305 271.854 156.567 268.645 175.619 271.441C202.831 276.991 218.052 284.675 228.365 293.973C238.677 303.272 246.816 311.473 252.221 322.387C251.724 309.858 247.955 298.405 238.201 285.296C229.524 275.459 218.135 262.889 197.468 255.185C198.048 245.928 201.465 206.726 265.808 187.365C265.767 198.257 266.823 206.976 268.976 213.52C272.207 223.336 274.899 231.516 280.863 238.619C281.443 229.363 282.023 220.106 282.603 210.849C283.721 203.228 285.399 191.797 287.077 180.365L289.831 172.206C291.488 166.221 335.042 28.5906 467.91 35.6343C484.788 37.3328 502.721 47.75 518.439 67.9622C546.085 102.381 571.969 170.017 561.841 254.944C550.969 249.456 540.635 245.603 531.937 241.213C517.793 236.802 506.362 235.124 493.295 233.985C476.417 232.287 462.252 233.322 450.262 235.454C453.016 227.295 453.596 218.038 453.617 212.592C454.197 203.335 454.239 192.442 452.644 182.088C448.896 165.189 439.681 153.716 428.271 146.592C437.486 158.065 439.619 170.056 440.654 184.22C441.689 198.385 438.354 215.801 430.091 240.279C396.832 249.411 373.907 262.395 349.885 277.554C377.159 266.765 401.16 257.053 434.398 253.367C451.835 251.256 469.272 249.144 492.135 252.499C503.566 254.177 514.997 255.854 527.505 260.804C539.475 264.117 552.521 270.703 563.932 277.827L566.645 280.561C632.353 331.465 646.039 455.698 649.704 494.382C635.021 488.335 620.318 487.734 609.963 489.328C594.701 492.538 585.962 499.04 579.935 508.276C590.849 502.871 599.567 501.816 612.096 501.319C613.732 500.78 615.907 501.878 619.717 502.437C634.959 504.674 652.893 515.091 652.893 515.091L659.416 518.384C659.416 518.384 699.093 539.777 721.105 623.193C741.523 696.254 717.396 738.645 711.37 747.881C696.128 745.644 682.522 742.869 669.455 741.729C653.115 741.667 636.776 741.605 623.15 744.276C618.242 745.891 614.97 746.968 610.062 748.583C604.615 748.562 603.559 739.844 603.559 739.844C592.812 701.677 577.115 676.018 562.474 659.078C547.834 642.138 529.9 631.721 512.484 628.386C514.679 624.037 518.51 619.15 520.167 613.166C527.312 596.309 527.375 579.969 524.165 564.707C520.955 549.444 515.551 538.531 510.146 527.617C497.7 506.328 481.962 491.562 469.474 481.166C454.813 469.672 441.228 461.45 427.084 457.039C412.94 452.628 398.795 448.216 384.071 453.062C399.334 449.852 412.38 456.438 423.791 463.563C436.837 470.148 448.786 478.908 460.176 491.479C473.201 503.511 485.13 517.717 494.862 536.273C504.595 554.828 513.21 581.004 502.213 608.195C498.92 614.718 495.627 621.241 491.795 626.129C489.062 628.841 487.964 631.016 485.231 633.729C482.497 636.442 481.399 638.616 478.666 641.329C474.296 644.58 470.465 649.467 463.921 651.621C459.551 654.872 454.643 656.487 449.735 658.102C430.103 664.563 410.512 660.131 395.83 654.084C379.511 648.575 366.465 641.989 354.516 633.229C343.106 626.105 331.157 617.345 319.208 608.585C328.423 620.058 338.736 629.356 349.587 640.291C359.9 649.589 374.023 659.447 390.88 666.592C407.737 673.737 429.502 679.267 454.581 672.827C461.663 672.309 467.669 668.519 473.675 664.73C480.219 662.576 485.686 657.151 491.153 651.725C493.887 649.012 496.62 646.299 499.354 643.586C502.088 640.874 504.821 638.161 507.016 633.812C508.114 631.638 509.75 631.099 510.848 628.925C526.069 636.608 539.094 648.64 552.099 666.119C565.642 685.234 578.606 713.605 588.793 755.582C576.244 761.526 565.868 768.566 555.493 775.607C538.015 788.612 526.521 803.273 517.201 819.033C507.344 833.156 501.296 847.838 494.151 864.695C503.471 848.936 511.693 835.351 522.089 822.864C532.485 810.377 544.517 797.351 562.534 785.982C578.915 775.152 599.106 764.881 624.723 760.077C638.35 757.406 652.515 756.37 667.756 758.607C677.013 759.187 686.809 761.404 698.778 764.717L715.635 771.862C740.651 781.761 764.01 797.645 775.379 815.662C792.174 839.147 813.793 882.802 796.769 919.228C795.672 921.403 792.938 924.115 792.379 927.926L787.45 934.988C782.521 942.049 777.054 947.475 772.684 950.726C768.315 953.977 762.309 957.767 757.94 961.018C744.292 969.136 731.204 973.443 718.116 977.75C691.401 984.728 669.574 995.538 652.095 1008.54C624.241 1028.59 607.798 1055.76 606.058 1083.53C603.345 1080.8 602.268 1077.52 599.017 1073.15C595.766 1068.78 592.515 1064.41 589.263 1060.04C587.089 1058.95 586.012 1055.67 583.838 1054.58C581.663 1053.48 578.951 1050.75 576.776 1049.65C559.402 1035.42 536.56 1026.62 511.523 1022.17C488.661 1018.81 465.239 1019.27 440.719 1021.9C444.592 1006.12 446.829 990.874 445.794 976.709C444.738 967.99 443.682 959.272 440.99 951.092C453.477 961.488 466.524 968.074 481.765 970.311C501.356 974.743 519.89 970.457 534.076 963.975C549.898 956.955 559.735 948.278 570.11 941.237C580.486 934.196 590.322 925.519 599.062 919.017C616.54 906.012 632.383 893.546 649.841 885.987C657.482 881.659 666.201 880.603 676.555 879.009C685.274 877.953 695.069 880.169 703.228 882.923C694.53 878.533 684.735 876.317 675.478 875.737C666.222 875.157 655.867 876.751 647.687 879.443C629.691 885.366 611.674 896.735 593.657 908.104C584.918 914.606 574.542 921.646 564.167 928.687C553.792 935.728 541.78 943.307 529.23 949.25C516.681 955.194 501.418 958.403 485.638 954.53C470.396 952.293 454.099 941.338 442.709 928.768C442.709 928.768 435.109 922.203 431.32 916.197C430.781 914.561 430.781 914.561 430.243 912.925C422.146 893.831 410.777 875.814 397.213 862.146C383.649 848.478 367.352 837.523 348.859 830.916C330.366 824.31 311.852 823.149 292.22 829.61C310.754 825.324 329.806 828.12 346.663 835.265C363.52 842.41 378.182 853.903 390.11 868.11C402.038 882.317 412.868 898.698 419.329 918.33C427.426 937.424 432.251 957.594 433.804 978.842C433.72 1000.63 430.365 1023.49 417.753 1045.77C413.921 1050.66 410.629 1057.18 406.797 1062.07C404.064 1064.78 402.966 1066.96 400.232 1069.67C397.499 1072.38 394.765 1075.1 393.129 1075.63C387.662 1081.06 383.292 1084.31 377.287 1088.1C371.281 1091.89 365.275 1095.68 358.731 1097.83C346.181 1103.78 330.919 1106.99 317.313 1104.21C302.071 1101.97 288.487 1093.75 274.363 1083.89C272.189 1082.8 270.015 1081.7 267.302 1078.97C265.127 1077.87 262.414 1075.13 259.142 1076.21C256.968 1075.11 253.158 1074.55 251.522 1075.09C241.893 1029.31 222.945 999.277 205.591 979.603C186.063 958.832 167.591 946.779 145.288 939.613C165.934 952.763 179.498 966.432 195.754 988.28C209.836 1009.03 226.071 1036.33 234.623 1078.84C226.981 1083.17 219.878 1089.13 214.411 1094.56C205.112 1104.87 197.988 1116.28 191.403 1129.33C189.207 1133.68 184.859 1131.48 183.222 1132.02C85.954 1073.37 62.4518 952.368 56.6544 901.693ZM146.376 369.911C148.592 360.116 151.885 353.593 156.276 344.895C148.634 349.223 141.531 355.187 133.868 364.961C127.842 374.197 122.333 390.516 129.871 413.42C136.87 434.688 150.993 444.546 161.865 450.034C172.199 453.886 181.456 454.466 191.272 451.236C183.112 448.482 176.051 443.553 168.989 438.624C161.389 432.059 153.251 423.858 147.867 407.498C140.308 390.04 144.16 379.706 146.376 369.911Z" fill="#FFEECC"/>
<path d="M555.77 1415.57C553.596 1414.48 551.981 1409.57 549.806 1408.47C544.401 1397.56 544.443 1386.66 545.562 1379.04C545.562 1379.04 545.562 1379.04 545.023 1377.41C545.582 1373.6 547.218 1373.06 547.218 1373.06C549.393 1374.16 551.029 1373.62 554.839 1374.18C581.512 1378.09 604.396 1376 624.028 1369.54C645.296 1362.54 662.236 1347.9 669.94 1327.23C660.062 1346.8 642.045 1358.17 621.874 1362.99C601.704 1367.82 579.918 1367.74 556.517 1362.75C550.532 1361.09 544.547 1359.43 538.562 1357.77C532.578 1356.12 526.054 1352.83 519.531 1349.53C508.121 1342.41 496.172 1333.65 486.418 1320.54C468.526 1299.23 454.486 1267.59 447.549 1229.98C447.549 1229.98 447.57 1224.53 450.842 1223.45C454.653 1224.01 458.463 1224.57 463.371 1222.96C487.891 1220.33 505.369 1207.32 517.401 1194.3C528.895 1179.64 538.214 1163.88 543.185 1145.92C536.04 1162.78 524.546 1177.44 511.976 1188.83C499.405 1200.22 483.024 1211.05 461.238 1210.97C455.792 1210.95 450.346 1210.93 446.535 1210.37C440.55 1208.71 435.104 1208.69 429.119 1207.03C417.149 1203.72 406.277 1198.23 394.329 1189.47C375.318 1175.78 358.523 1152.3 350.468 1122.31C349.93 1120.67 349.412 1113.59 354.32 1111.98C355.957 1111.44 359.228 1110.36 360.864 1109.82C368.506 1105.5 374.512 1101.71 382.154 1097.38C388.159 1093.59 395.262 1087.62 399.094 1082.74C401.827 1080.02 404.561 1077.31 407.294 1074.6C410.028 1071.89 412.762 1069.17 415.496 1066.46C420.963 1061.03 424.256 1054.51 427.548 1047.99C428.646 1045.81 429.205 1042 430.303 1039.83C430.303 1039.83 430.862 1036.02 436.308 1036.04C487.542 1026.43 535.98 1035.88 565.304 1058.86C567.478 1059.96 569.653 1061.06 570.191 1062.69L575.617 1068.16C578.33 1070.9 583.217 1074.73 584.294 1078C587.545 1082.37 590.258 1085.1 591.334 1088.37C592.95 1093.28 595.662 1096.02 596.739 1099.29C603.759 1115.11 609.143 1131.47 613.989 1146.19C616.681 1154.37 618.834 1160.92 619.89 1169.64L618.254 1170.17C618.793 1171.81 620.967 1172.91 621.505 1174.54C624.156 1193.62 622.457 1210.49 614.236 1224.08C601.085 1244.73 576.524 1258.25 554.696 1269.06C578.698 1259.35 602.7 1249.63 620.759 1227.37C629.519 1215.42 632.294 1201.82 633.433 1188.75C648.074 1205.69 664.91 1218.28 683.403 1224.89C706.245 1233.69 726.933 1235.95 744.37 1233.84C762.345 1233.36 777.07 1228.51 789.619 1222.57C802.707 1218.26 814.719 1210.69 826.73 1203.11C814.18 1209.05 801.092 1213.36 787.466 1216.03C773.839 1218.7 760.213 1221.37 743.873 1221.31C727.534 1221.25 708.482 1218.45 689.451 1210.21C670.419 1201.96 650.332 1185 635.173 1160.98L633.538 1161.52C633.02 1154.44 630.866 1147.89 628.713 1141.35C625.503 1126.09 620.119 1109.73 612.561 1092.27C610.946 1087.36 607.694 1082.99 606.618 1079.72C608.295 1068.29 613.783 1057.41 619.81 1048.18C628.032 1034.59 642.238 1022.67 658.619 1011.84C675 1001 696.268 994.005 721.347 987.565C734.435 983.258 749.159 978.413 764.443 969.757C775.356 964.352 786.829 955.137 797.764 944.285C809.174 951.409 834.708 968.391 848.706 1010.93C873.472 1086.18 847.772 1112.77 847.772 1112.77L835.202 1124.16C832.468 1126.88 829.196 1127.95 826.462 1130.67C807.369 1138.76 791.008 1144.15 775.746 1147.36C764.853 1147.32 755.596 1146.73 746.898 1142.34C744.186 1139.61 739.837 1137.42 737.124 1134.68C736.586 1133.05 734.411 1131.95 733.873 1130.31C733.334 1128.68 732.796 1127.04 730.083 1124.31C723.063 1108.48 719.854 1093.22 724.803 1080.71C728.096 1074.19 734.102 1070.4 740.646 1068.25C743.918 1067.17 747.19 1066.09 751 1066.65C754.811 1067.21 758.083 1066.14 762.432 1068.33C759.719 1065.6 755.909 1065.04 752.098 1064.48C748.288 1063.92 744.477 1063.36 739.569 1064.98C730.851 1066.03 723.209 1070.36 718.818 1079.06C713.89 1086.12 711.674 1095.91 712.73 1104.63C713.786 1113.35 714.841 1122.07 718.072 1131.89C718.61 1133.52 719.687 1136.79 720.226 1138.43C721.302 1141.7 723.477 1142.8 724.554 1146.07C727.805 1150.44 732.692 1154.27 737.579 1158.1C748.99 1165.23 760.959 1168.54 775.124 1167.51C798.007 1165.41 824.184 1156.8 849.843 1141.1C872.125 1153.72 903.043 1187.06 931.578 1273.77C950.422 1331.03 964.337 1395.35 896.659 1432.13C838.259 1464.04 790.961 1441.53 772.489 1429.47C785.059 1418.08 791.645 1405.04 798.769 1393.63C800.964 1389.28 803.16 1384.93 805.355 1380.58C820.037 1386.63 834.741 1387.23 846.193 1383.46C859.281 1379.15 869.118 1370.48 874.585 1365.05C881.15 1357.45 886.079 1350.39 886.659 1341.13C887.239 1331.87 883.449 1325.87 879.121 1318.23C881.813 1326.41 882.331 1333.49 879.038 1340.01C877.381 1346 871.914 1351.42 864.81 1357.39C857.707 1363.35 850.065 1367.68 840.249 1370.91C835.341 1372.53 829.895 1372.5 824.448 1372.48C820.638 1371.92 816.828 1371.37 814.115 1368.63C811.94 1367.53 811.961 1362.09 811.961 1362.09C813.059 1359.91 813.618 1356.1 813.08 1354.47C816.994 1327.79 810.533 1308.16 801.339 1291.24C806.164 1311.41 807.178 1331.02 801.648 1352.79C798.335 1364.76 793.944 1373.46 785.723 1387.04C777.501 1400.63 767.664 1409.3 751.821 1421.77L746.354 1427.2C652.375 1505.27 564.426 1430.86 559.539 1427.03L555.77 1415.57Z" fill="#FFEECC"/>
<path d="M207.079 1160.43C202.772 1147.34 205.527 1139.19 207.722 1134.84C213.21 1123.96 220.334 1112.55 226.899 1104.95C231.828 1097.89 239.469 1093.56 246.013 1091.41C252.557 1089.26 257.445 1093.09 263.968 1096.38C278.63 1107.87 296.025 1116.66 315.077 1119.45C322.698 1120.57 329.78 1120.05 336.863 1119.54C345.974 1158.24 366.558 1187.73 392.092 1204.71C404.04 1213.47 416.548 1218.42 428.518 1221.74C428.518 1221.74 432.329 1222.29 433.385 1231.01C440.301 1274.07 456.515 1306.81 477.658 1332.49C489.586 1346.69 503.709 1356.55 516.756 1363.14C523.279 1366.43 529.802 1369.72 537.423 1370.84L539.598 1371.94C540.136 1373.58 539.039 1375.75 537.941 1377.92C534.648 1384.45 532.991 1390.43 532.432 1394.24C532.97 1395.88 532.97 1395.88 532.97 1395.88C532.39 1405.14 533.446 1413.85 538.851 1424.77C528.476 1431.81 518.66 1435.04 505.592 1433.9C460.944 1430.46 411.554 1385.07 388.775 1359.92C379.084 1330.48 366.1 1307.55 356.367 1289C346.634 1270.44 335.804 1254.06 326.05 1240.95C308.179 1214.2 291.364 1196.16 273.472 1174.85C286.456 1197.77 298.901 1219.06 315.136 1246.36C323.254 1260 331.91 1275.29 342.181 1295.48C347.586 1306.39 354.068 1320.58 360.011 1333.13C361.626 1338.03 357.816 1337.48 357.277 1335.84C257.15 1312.58 217.288 1196.96 207.079 1160.43Z" fill="#FFEECC"/>
</svg>
