<svg width="878" height="1080" viewBox="0 0 878 1080" fill="none" xmlns="http://www.w3.org/2000/svg">
<path d="M520 944C518 994 514 1096.8 514 1108L302.759 988.452L245.012 878.21L385.003 610.477L406.002 431.989L355.255 -40.48L392 -46L506 158L584 152L682 124L770 144L830 186L878 338L854 498L762 658L584 914L520 944Z" fill="#FFB0A3"/>
<path d="M396 666L394 698L400 708L454 706L480 662L516 660L570 664L634 620L666 566L682 492L684 378L642 332L646 254L698 252L738 352L744 472L718 586L628 726L636 744L722 634L778 534C780.667 511.333 787.2 464.4 792 458C796.8 451.6 814 359.333 822 314L806 238L718 190L638 216L572 288L540 378L504 492L512 524L556 576L494 560L448 502L456 564L436 634L396 666Z" fill="#FF6973"/>
<path d="M411 878L372 770L456 826L490 806L494 762L528 770L564 810L554 886L527 898L461 904L411 878Z" fill="#FF6973"/>
<path d="M98 136L-22 -14L766 -26L784 62L786 106L772 118L800 162L724 130L672 126L642 136L608 148L606 172L566 154V180L570 220L548 198L510 194V228L448 170L508 314L468 270L444 214V268L438 324L406 286V332L386 306L384 222L380 344L364 408L348 458L328 410L320 488L306 440L300 398L272 366L234 432L232 362L200 308L184 370L158 340L150 424L128 356L114 264L98 136Z" fill="#46425E"/>
</svg>
