<svg width="770" height="736" viewBox="0 0 770 736" fill="none" xmlns="http://www.w3.org/2000/svg">
<path fill-rule="evenodd" clip-rule="evenodd" d="M174.638 115.438L174.609 119.193L176.42 120.924C177.519 131.627 179.15 140.492 181.314 147.519C183.236 153.435 186.533 154.801 191.206 151.618L193.75 155.607C195.777 161.846 194.411 165.144 189.652 165.502L190.753 168.89L196.89 172.961C199.457 183.424 203.792 191.827 209.894 198.168C212.867 206.954 217.248 214.034 223.036 219.407C224.508 232.724 229.813 242.833 238.951 249.734L235.696 254.538C241.479 255.869 245.888 254.436 248.924 250.239C262.145 256.169 273.518 253.663 283.041 242.718C288.537 239.505 293.953 237.329 299.29 236.189L302.677 235.088L303.125 232.623L304.855 230.812L307.876 228.582L309.606 226.771L310.002 224.145C315.003 220.141 318.749 216.485 321.242 213.178C327.611 212.654 332.719 210.994 336.567 208.197C337.501 193.504 341.635 181.16 348.97 171.164L345.039 159.063L337.772 155.359C335.708 149.37 334.407 144.085 333.87 139.502L332.769 136.114L332.483 131.39L327.428 104.848L334.49 100.234L337.401 105.353C337.341 108.464 337.926 111.545 339.154 114.594C338.414 127.322 340.29 139.319 344.782 150.584C351.365 154.747 355.597 160.27 357.475 167.151C361.21 165.105 364.194 162.946 366.429 160.674C364.451 152.754 363.482 146.112 363.523 140.747C365.687 138.26 368.295 136.223 371.347 134.636L373.21 136.528C371.988 146.677 372.527 155.838 374.825 164.01L372.933 165.874C365.555 172.077 358.406 176.422 351.486 178.909C343.594 196.34 344.272 205.931 353.52 207.682C357.427 201.774 362.721 199.222 369.402 200.023C374.136 202.885 378.055 204.882 381.157 206.014C385.117 207.225 388.8 207.217 392.207 205.991C397.333 213.72 411.05 210.927 433.358 197.612C437.288 202.756 438.965 207.92 438.39 213.102L442.173 209.375L445.427 204.571L448.134 201.372L450.626 198.065C454.229 194.515 457.223 191.104 459.608 187.832L464.44 180.196L470.715 173.162L472.445 171.351L474.389 169.649C480.455 161.969 485.863 156.108 490.614 152.067L492.22 145.48L504.318 141.548L505.499 148.478C501.442 150.629 497.732 151.835 494.369 152.095L491.715 155.455L489.932 157.105L482.895 165.636C477.455 170.852 473.359 175.811 470.606 180.511C468.014 182.781 466.044 185.502 464.697 188.675C462.32 190.875 460.587 193.044 459.498 195.181C450.099 203.945 443.307 213.05 439.123 222.496C444.642 230.336 450.587 236.193 456.958 240.069L461.314 238.653C468.748 229.696 475.916 222.847 482.818 218.107C481.139 231.972 475.326 244.089 465.378 254.458C467.872 269.821 475.288 272.703 487.626 263.104C485.843 267.132 482.913 269.274 478.834 269.529L478.043 274.781C489.271 274.937 498.57 272.272 505.942 266.784L517.073 263.166C520.842 265.985 523.377 268.848 524.678 271.755C512.851 279.999 500.689 285.2 488.193 287.359L488.846 293.212C489.687 295.436 490.027 297.763 489.865 300.194C496.095 299.24 501.379 297.939 505.719 296.291C518.653 302.434 515.091 305.196 495.035 304.579L495.74 310.594C491.627 315.498 489.158 320.344 488.335 325.131L491.166 326.708L494.921 326.737C496.241 327.14 497.421 327.113 498.461 326.656L501.454 328.181C513.044 327.625 522.501 327.822 529.824 328.772L526.803 331.003C513.861 330.69 502.794 333.038 493.601 338.047C497.918 344.017 502.929 348.097 508.634 350.287C509.11 353.581 507.404 354.552 503.517 353.199C509.019 363.184 509.076 372.144 503.688 380.08C501.327 389.647 490.051 388.793 469.861 377.516L470.2 382.401L473.845 389.779C476.684 392.662 478.72 395.27 479.954 397.604L489.898 409.001L491.708 410.731C494.224 418.476 497.466 424.796 501.434 429.69C498.186 428.843 494.862 428.675 491.461 429.186C493.397 433.314 496.108 436.535 499.595 438.851L508.701 433.394C513.285 437.256 518.21 438.509 523.477 437.154L527.856 446.791C531.856 447.394 535.014 445.952 537.329 442.464C536.482 436.198 533.984 430.885 529.833 426.526C527.667 415.1 522.326 407.44 513.809 403.549L513.361 398.878C520.868 399.292 527.149 398.499 532.207 396.499C531.405 398.424 530.303 399.972 528.899 401.142L530.367 405.659L533.879 409.334C534.653 420.5 537.763 430.074 543.209 438.055C546.047 445.696 547.769 452.093 548.373 457.248L539.501 460.132C538.329 459.086 537.332 458.577 536.509 458.607C527.438 457.036 519.609 456.726 513.022 457.677C511.67 456.809 510.296 456.423 508.901 456.519L505.755 453.974L502.001 453.945L500.138 452.053C493.527 451.467 487.903 450.44 483.265 448.974C478.001 445.215 473.157 442.746 468.732 441.567L465.344 442.668C464.38 461.296 470.401 475.989 483.408 486.747C485.84 496.065 485.181 502.82 481.43 507.012C475.637 502.354 471.51 497.154 469.051 491.413C469.466 469.633 464.465 461.923 454.046 468.282L459.188 476.422C464.547 491.092 464.161 494.845 458.029 487.68C455.124 479.468 450.97 473.087 445.569 468.539C450.955 503.419 441.355 512.663 416.77 496.273C413.309 499.896 409.276 501.206 404.671 500.205L402.155 492.46C406.656 488.381 409.596 484.988 410.975 482.28C404.138 483.194 398.6 484.994 394.36 487.68C395.647 497.132 395.513 505.322 393.959 512.249C388.343 512.529 384.302 510.155 381.837 505.129L377.687 507.726C375.769 520.123 377.418 531.421 382.633 541.618L379.979 544.978L378.563 547.757C374.382 552.089 371.511 555.877 369.949 559.12C363.413 562.79 358.146 566.524 354.147 570.32C345.504 568.967 338.034 566.103 331.738 561.727L329.927 559.996L328.093 554.349C329.849 544.383 336.79 536.835 348.916 531.705C358.41 519.938 357.722 511.599 346.853 506.688C345.635 502.207 343.572 498.418 340.663 495.32C327.558 483.524 316.195 484.779 306.574 499.085C306.872 474.014 301.362 469.68 290.045 486.083L283.064 487.103C282.107 481.23 282.004 475.971 282.755 471.327L264.833 465.021L255.813 452.076C251.068 455.402 246.16 456.581 241.089 455.613C234.456 457.887 228.446 458.235 223.059 456.656L226.079 454.426L229.306 453.377C238.893 452.878 247.616 450.816 255.475 447.191C254.859 443.467 253.417 440.308 251.148 437.716C251.764 436.683 251.896 435.808 251.544 435.09L246.059 436.872C238.257 437.743 231.843 439.411 226.818 441.877L181.489 456.609C174.818 459.133 168.835 460.662 163.539 461.194L165.35 455.789C171.361 455.262 176.269 454.083 180.074 452.252L195.56 447.219C199.652 445.176 203.685 443.865 207.658 443.287L211.808 440.69L215.402 440.771L218.422 438.54L221.81 437.439C231.986 434.726 240.306 431.606 246.769 428.079L244.225 424.089C241.489 412.372 237.68 403.026 232.798 396.05L235.291 392.742L232.665 392.347C229.913 387.533 226.126 384.661 221.306 383.73L219.89 379.373L224.774 379.035C227.578 381.81 230.027 381.847 232.122 379.144C228.95 368.282 228.15 358.315 229.721 349.242C228.328 348.981 227.348 348.526 226.781 347.878L223.188 347.797C217.515 346.073 212.389 345.301 207.811 345.481C217.535 341.012 225.366 336.386 231.303 331.602C251.708 338.052 270.558 339.716 287.854 336.592L286.386 332.074C282.574 325.464 280.425 318.848 279.939 312.228L264.196 308.782C255.232 307.176 247.403 306.866 240.709 307.852C233.73 303.936 226.986 302.025 220.477 302.119C211.541 287.422 200.375 276.839 186.979 270.371C166.274 246.893 142.608 236.627 115.98 239.572L108.919 237.05C104.273 241.415 99.9592 244.422 95.9774 246.073L90.9975 237.88C76.5358 239.845 64.4297 237.714 54.6789 231.488L72.314 233.07C78.847 234.515 84.9257 234.561 90.5502 233.209L94.6716 234.367L99.0271 232.951L103.911 232.613L106.689 234.029L114.198 234.086C118.054 234.974 121.578 234.661 124.772 233.147L127.712 234.51L141.278 235.096C150.602 241.105 159.296 245.177 167.361 247.312L170.926 251.149L175.362 253.275L177.592 256.296L180.737 258.842C181.909 259.888 182.907 260.396 183.729 260.367L185.959 263.388C187.096 264.327 188.076 264.781 188.899 264.752L190.762 266.644L192.83 269.718C193.828 270.226 194.686 270.304 195.403 269.952C201.224 275.791 206.357 280.247 210.804 283.321C213.895 281.127 217.298 280.437 221.011 281.252C221.862 286.803 225.204 289.403 231.036 289.054C231.342 295.853 234.235 298.539 239.717 297.114C241.525 289.867 244.125 284.146 247.518 279.951C239.827 270.915 230.697 265.32 220.129 263.165C216.586 249.331 210.433 237.893 201.669 228.848C201.791 222.268 198.852 218.347 192.854 217.085L189.943 211.966L196.952 207.191C202.458 216.819 208.053 223.979 213.739 228.672L211.619 218.301L208.627 216.776C205.896 209.101 201.918 203.08 196.695 198.712C195.324 190.833 193.175 184.217 190.248 178.865L182.614 174.032L181.147 169.515C178.973 159.161 175.354 150.585 170.292 143.786C170.497 140.39 169.913 137.31 168.539 134.545L167.124 130.188C167.326 122.393 166.411 115.733 164.379 110.209C167.084 107.189 168.572 104.268 168.844 101.444L172.07 100.396L174.638 115.438ZM280.739 107.005C289.795 113.174 293.92 121.431 293.113 131.779C289.537 140.518 283.603 144.149 275.313 142.674C264.661 136.613 260.704 127.511 263.441 115.366C243.608 102.006 245.261 91.0166 268.4 82.3968C277.409 88.3444 281.522 96.5469 280.739 107.005ZM211.772 112.128C201.85 113.312 200.899 110.74 208.918 104.409L211.772 112.128ZM129.917 152.079C125.576 159.94 118.362 157.542 108.274 144.886L112.753 143.934C120.196 146.861 125.917 149.576 129.917 152.079ZM205.365 132.57L210.01 131.582C210.409 138.898 208.86 139.227 205.365 132.57ZM402.664 98.9474C410.239 103.581 416.055 108.647 420.113 114.144C421.386 127.749 416.793 130.344 406.334 121.929C397.149 112.435 395.539 104.856 401.503 99.1943L402.664 98.9474L401.503 99.1943L402.664 98.9474ZM139.22 178.72C131.631 178.368 131.231 176.487 138.021 173.078L139.22 178.72ZM255.729 201.474C245.569 203.172 244.313 201.068 251.96 195.164C254.026 197.269 255.282 199.372 255.729 201.474ZM409.232 174.735L412.551 174.03C412.455 179.022 411.349 179.257 409.232 174.735ZM205.407 221.713L208.478 219.846C210.27 225.015 209.246 225.637 205.407 221.713ZM262.29 238.064C257.603 235.592 256.957 232.549 260.351 228.937L262.29 238.064ZM149.99 285.703C144.611 290.315 138.913 293.145 132.893 294.194C125.13 303.361 117.471 304.584 109.916 297.865C110.314 286.68 115.823 279.149 126.444 275.272C128.57 269.501 132.071 265.576 136.948 263.499C146.171 268.823 150.519 276.224 149.99 285.703ZM539.839 196.92C527.14 201.354 525.884 199.251 536.07 190.61L539.839 196.92ZM646.586 190.876L651.231 189.888C650.764 195.306 649.216 195.636 646.586 190.876ZM686.794 211.987C680.421 211.376 680.022 209.495 685.595 206.344L686.794 211.987ZM52.0283 344.515C57.6073 347.376 62.7063 349.067 67.3256 349.588C81.4602 355.718 95.3214 357.57 108.91 355.143L115.001 360.96C115.16 364.973 114.716 368.594 113.668 371.823C107.994 373.955 102.685 375.083 97.7406 375.21L92.8026 374.005C91.5485 372.999 90.2226 372.472 88.8248 372.422L85.9274 369.396L82.1964 368.975C81.1401 367.812 80.213 367.257 79.4153 367.311L75.6034 365.693C71.1305 362.597 67.1375 360.671 63.6242 359.915L61.9692 357.838C55.7336 355.695 50.4817 353.285 46.2134 350.608C45.8469 347.795 46.6086 345.667 48.4985 344.225C49.7692 344.764 50.9458 344.861 52.0283 344.515ZM518.654 647.498C519.216 641.252 518.873 635.89 517.626 631.411C518.013 616.006 514.537 602.457 507.197 590.764L510.307 582.936C513.967 581.285 517.491 580.341 520.876 580.103C524.978 584.567 528.013 589.068 529.982 593.606L530.715 598.636C530.253 600.176 530.26 601.603 530.738 602.918L529.018 606.739L530.025 610.357C529.343 611.772 529.176 612.84 529.525 613.559L529.454 617.701C528.259 623.009 527.969 627.433 528.584 630.975L527.28 633.288C527.629 639.874 527.362 645.647 526.48 650.608C524.009 652.002 521.752 652.093 519.707 650.88C519.731 649.5 519.38 648.372 518.654 647.498ZM635.31 232.472C631.688 235.555 628.787 234.958 626.606 230.68C627.141 227.213 629.009 224.85 632.209 223.592C633.76 227.078 634.793 230.038 635.31 232.472ZM514.898 263.97L522.368 259.954C521.435 265.356 518.945 266.694 514.898 263.97ZM606.244 294.286L614.614 305.396L610.009 308.868C595.322 304.784 590.146 306.278 594.482 313.348C602.731 310.954 610.049 311.741 616.436 315.707L625.596 316.026L634.62 316.447C645.163 318.413 654.854 318.403 663.692 316.414C672.736 305.491 675.48 293.721 671.923 281.107L664.88 271.758C631.349 255.253 611.804 262.762 606.244 294.286ZM200.391 360.496C196.308 360.324 195.604 358.913 198.278 356.263L200.391 360.496ZM545.275 283.702L548.593 282.997C548.964 288.006 547.858 288.241 545.275 283.702ZM183.135 408.221C179.252 406.271 176.643 403.241 175.308 399.131C178.386 395.124 181.885 392.819 185.803 392.217C192.45 399.014 191.56 404.348 183.135 408.221ZM214.002 396.802L221.26 391.79C220.828 400.092 218.409 401.762 214.002 396.802ZM212.203 410.366C207.178 411.203 206.931 410.042 211.462 406.882L212.203 410.366ZM184.784 420.879L198.389 417.986C198.789 429.118 194.254 430.082 184.784 420.879ZM545.505 352.512C541.415 351.763 538.111 350.904 535.594 349.936L544.306 346.87C548.188 348.82 548.588 350.7 545.505 352.512ZM587.472 348.446C592.797 352.286 593.209 356.13 588.709 359.978C576.511 352.627 564.433 349.644 552.473 351.031C554.262 348.569 556.365 347.312 558.782 347.261C568.688 350.358 578.252 350.753 587.472 348.446ZM506.593 364.427C506.257 362.302 507.116 360.905 509.171 360.237C509.507 362.363 508.648 363.759 506.593 364.427ZM647.526 346.258C647.108 364.964 642.573 365.928 633.921 349.151C636.524 346.169 638.944 344.498 641.179 344.139L647.526 346.258ZM204.666 447.526L198.604 452.457C187.957 448.592 187.794 444.29 198.116 439.552C201.69 441.683 203.874 444.341 204.666 447.526ZM534.154 382.33C527.633 385.914 522.077 385.881 517.486 382.231L528.768 379.833C527.07 375.106 528.359 371.652 532.635 369.471C537.896 373.556 538.403 377.842 534.154 382.33ZM515.41 383.887C512.325 387.318 510.28 386.944 509.276 382.763L511.598 382.269L509.276 382.763L511.598 382.269L515.41 383.887ZM555.551 388.361C550.211 388.803 546.218 386.877 543.572 382.583L551.535 380.89C556.816 382.889 558.154 385.38 555.551 388.361ZM646.191 401.178C637.764 410.486 628.073 411.39 617.115 403.891C613.566 405.686 610.524 406.333 607.99 405.831C608.421 402.964 609.585 401.098 611.482 400.232C609.763 393.775 611.536 389.062 616.801 386.093C631.429 385.295 641.225 390.324 646.191 401.178ZM260.252 474.907C253.487 482.242 248.775 480.469 246.116 469.587L256.402 467.4L260.252 474.907ZM340.772 489.875C345.596 500.066 347.089 499.749 345.251 488.923L340.772 489.875ZM278.619 522.169C273.176 523.21 272.444 521.4 276.424 516.738L278.619 522.169ZM273.088 535.313C269.282 530.456 270.184 527.084 275.794 525.198C278.699 530.708 277.798 534.08 273.088 535.313ZM597.147 472.312C593.178 470.496 590.956 467.384 590.481 462.976L597.951 458.959C603.273 464.419 603.005 468.87 597.147 472.312ZM178.042 579.282L177.055 574.636L178.965 573.016L181.041 571.36L181.744 568.956L190.128 563.531L192.038 561.911L194.114 560.255C201.154 553.671 208.483 548.99 216.101 546.214C206.289 562.061 193.603 573.083 178.042 579.282ZM668.048 486.897C661.738 491.477 657.523 490.407 655.401 483.689C657.167 481.117 659.574 479.391 662.624 478.511C665.605 481.115 667.413 483.91 668.048 486.897ZM572.131 527.584C570.945 528.53 570.323 529.413 570.266 530.235C564.594 536.182 560.249 541.847 557.231 547.229C527.682 544.723 526.975 530.246 555.111 503.798L561.913 502.351C571.483 508.758 574.888 517.169 572.131 527.584ZM468.888 556.645C460.461 565.953 455.749 564.18 454.752 551.325C458.16 548.866 461.424 547.363 464.545 546.815C466.892 550.247 468.34 553.524 468.888 556.645ZM475.165 586.184L479.81 585.197C480.903 593.059 479.355 593.388 475.165 586.184Z" fill="#FF6973"/>
</svg>
