<svg width="74" height="127" viewBox="0 0 74 127" fill="none" xmlns="http://www.w3.org/2000/svg">
<path d="M10.9652 11.0435C9.09338 11.0807 7.25104 11.1172 5.4491 11.1359L0.84375 9.59375L3.79699 5.65625L5.58656 4.98266C6.20621 4.81846 7.09958 4.58705 8.20531 4.31518C10.4146 3.77196 13.4824 3.06457 16.9151 2.40885C23.6484 1.1226 32.2482 -0.0608791 38.4565 0.845949C44.2554 1.69298 48.6754 2.83447 52.4362 4.72627C56.242 6.64075 59.1767 9.22419 62.1523 12.6526C65.2745 16.2499 68.2213 20.8612 70.3336 25.5247C72.4129 30.1151 73.844 35.1082 73.5417 39.3924L73.5408 39.4057L73.5401 39.4166C73.5385 39.4422 73.5361 39.4769 73.5329 39.5203C73.5265 39.6071 73.5169 39.7289 73.5031 39.883C73.4755 40.1911 73.4312 40.6289 73.3626 41.1747C73.2256 42.2648 72.9907 43.7938 72.5964 45.5851C71.8136 49.1413 70.3747 53.8607 67.7308 58.2441C65.2041 62.4331 61.9946 66.5782 59.4549 69.6406C58.1779 71.1805 57.0548 72.465 56.249 73.3667L54.8675 74.8776C49.4186 80.2955 47.7738 86.9474 47.542 92.828C47.4261 95.7683 47.667 98.4688 47.9473 100.659C48.0575 101.521 48.171 102.284 48.2732 102.971L48.5834 105.988C48.8905 107.828 49.5696 112.33 50.9826 122.625L51.4438 125.986L26.0917 126.338L27.7371 117.38C28.3305 114.117 29.1289 109.695 29.9489 105.056C31.6022 95.7019 33.3042 85.6804 33.6395 82.3275C34.4368 74.3543 39.9582 68.1998 43.1825 64.6058L43.3525 64.4163C43.9164 63.7872 44.5396 63.1025 45.2037 62.3727C48.5596 58.6851 52.9622 53.8474 56.0624 49.2369C57.2336 47.4951 58.4352 45.5413 59.0827 42.6974C59.7322 39.845 59.8706 35.8708 58.4946 30.1274C56.7165 22.7059 50.2066 15.9329 43.7474 13.7792C38.2738 11.9541 31.8411 11.237 25.1255 11.0155C20.3361 10.8576 15.562 10.9523 10.9655 11.0435H10.9654L10.9652 11.0435Z" fill="#FFEECC"/>
</svg>
